<?xml version="1.0" encoding="UTF-8"?>
<svg width="120px" height="45px" viewBox="0 0 120 45" version="1.1" xmlns="http://www.w3.org/2000/svg" xmlns:xlink="http://www.w3.org/1999/xlink">
    <!-- Generator: Sketch 55 (78076) - https://sketchapp.com -->
    <title>Group 24</title>
    <desc>Created with Sketch.</desc>
    <defs>
        <polygon id="path-1" points="0.190511475 0.0666126582 16.9136066 0.0666126582 16.9136066 21.9699797 0.190511475 21.9699797"></polygon>
    </defs>
    <g id="Symbols" stroke="none" stroke-width="1" fill="none" fill-rule="evenodd">
        <g id="TopNav_D" transform="translate(-130.000000, -20.000000)">
            <g id="Group-24" transform="translate(130.000000, 20.000000)">
                <path d="M16.8442798,6.84171781 C14.7191908,5.53671462 12.5294201,5.3813571 11.3380823,5.3813571 C8.89072517,5.3813571 8.37555207,6.53100276 8.37555207,7.40100489 C8.37555207,8.76815108 9.3739849,9.14128411 13.0767916,9.70029622 C16.7798832,10.2598583 20,11.782362 20,16.1637191 C20,20.6693622 15.5241487,23 11.1448924,23 C8.11796552,23 4.96253027,22.5336525 2,20.0168606 L4.86565038,16.3501481 C6.95882604,18.1522954 9.11611341,18.6186429 11.402479,18.6186429 C13.5600513,18.6186429 14.7835874,17.6240798 14.7835874,16.4744341 C14.7835874,15.418003 14.429121,14.3615718 11.7244622,14.1129998 C7.47399915,13.7090702 3.44892435,12.4970066 3.44892435,7.64957692 C3.44892435,3.05071929 7.53839578,1 11.2092891,1 C13.9464311,1 16.7476849,1.49714407 19.1303605,3.01964779 L16.8442798,6.84171781 Z" id="Fill-1" fill="#4D4E4C"></path>
                <polygon id="Fill-3" fill="#4D4E4C" points="37.3031854 23 31.66897 13.6434338 28.8204242 16.8676465 28.8204242 23 24 23 24 1 28.8204242 1 28.8204242 10.4195008 28.8830235 10.4827152 32.2010642 6.40510851 36.7397915 1 42.5618048 1 34.9241344 9.91378587 43 23"></polygon>
                <polygon id="Fill-5" fill="#4D4E4C" points="57.1946663 23 57.1946663 14.0229998 48.8682746 14.0229998 48.8682746 23 44 23 44 1 48.8682746 1 48.8682746 9.81896431 57.1946663 9.81896431 57.1946663 1 62 1 62 23"></polygon>
                <g id="Group-9" transform="translate(103.000000, 1.000000)">
                    <mask id="mask-2" fill="white">
                        <use xlink:href="#path-1"></use>
                    </mask>
                    <g id="Clip-8"></g>
                    <path d="M8.97728197,4.40952405 L5.04052787,4.40952405 L5.04052787,9.63354937 L9.10324918,9.63354937 C10.7093311,9.63354937 12.0007738,8.62656203 12.0007738,7.02139747 C12.0007738,5.25916962 10.8985607,4.40952405 8.97728197,4.40952405 M9.3236918,13.9764608 L5.04052787,13.9764608 L5.04052787,21.9699797 L0.190511475,21.9699797 L0.190511475,0.0666126582 L9.22921639,0.0666126582 C13.8587902,0.0666126582 16.9137738,2.77316962 16.9137738,7.11608101 C16.9137738,11.0813722 13.5121016,13.9764608 9.3236918,13.9764608" id="Fill-7" fill="#4D4E4C" mask="url(#mask-2)"></path>
                </g>
                <path d="M65,11.4998561 C65,5.15888926 70.1589538,0 76.5,0 C78.3556001,0 79.7685271,0.313436198 81.2724065,1.07126678 C79.6355525,2.18887262 78.378626,3.58480059 77.5309849,5.22796611 C77.2972719,5.18162706 77.1182455,5.17184117 76.9012264,5.17184117 L76.5,5.17414373 C73.0118633,5.17414373 70.1739207,8.01205091 70.1739207,11.4998561 C70.1739207,14.9879491 73.0118633,17.8258563 76.5,17.8258563 C79.7250657,17.8258563 83.293793,15.8853725 83.5087974,11.6247701 C83.5119635,11.607213 84.089338,7.79503448 87.0709048,6.81011375 C87.7377925,8.18589431 88,9.52253132 88,11.4998561 C88,17.8411107 82.8410462,23 76.5,23 C70.1589538,23 65,17.8411107 65,11.4998561 Z" id="Fill-10" fill="#4D4E4C"></path>
                <path d="M83.7854461,21.9012389 C85.8897259,20.9139782 86.9371168,19.4699787 87.7254661,18.0259792 C87.8567138,18.0568139 87.9393192,18.0689275 88.0273933,18.0689275 C88.0668252,18.0689275 88.1068327,18.0664498 88.1574897,18.0628707 C88.2300213,18.0576398 88.3290327,18.0507571 88.5,18.0507571 C91.9881367,18.0507571 94.8260793,15.3364785 94.8260793,12 C94.8260793,8.66352146 91.9881367,5.9492429 88.5,5.9492429 C82.1759354,5.9492429 81.8187461,12.0996621 81.8014767,12.55998 C81.4149293,14.1785258 80.1761357,15.3337254 77.9129771,16.1819547 C77.2576023,14.8188963 77,13.6268052 77,12 C77,5.93465148 82.1589538,1 88.5,1 C94.8410462,1 100,5.93465148 100,12 C100,18.0653485 94.8410462,23 88.5,23 C86.6429608,23 85.3575397,22.7076211 83.7854461,21.9012389 Z" id="Fill-12" fill="#4D4E4C"></path>
                <path d="M3.62050339,38.4050333 L3.63258324,38.4412756 C3.65674293,38.5771131 3.74158949,38.7069577 3.88654769,38.8308096 C4.03150588,38.9549468 4.17243745,39.0168727 4.30963002,39.0168727 C4.42237528,39.0168727 4.51498746,38.9583712 4.58746656,38.8427952 C4.66023327,38.7269338 4.71631828,38.5788253 4.75687206,38.3990404 C4.79685061,38.2192555 4.82733785,38.0135017 4.84747093,37.7812082 C4.8673164,37.5494854 4.88371048,37.3177627 4.89579033,37.0857545 C4.90787018,36.8537464 4.91793672,36.6320117 4.92598995,36.4199797 C4.93404318,36.2085184 4.95043727,36.0264505 4.97430935,35.8746321 L5.37323199,33.4158596 L5.49403048,32.9361478 L5.73591508,32.0126813 C5.76007478,31.9724437 5.78222117,31.916796 5.80235425,31.8445966 C5.82248733,31.7726827 5.85268696,31.7287353 5.89295312,31.7127544 C5.98153868,31.6728022 6.06638524,31.6448356 6.14691757,31.6285694 C6.2274499,31.6125885 6.31200884,31.6045981 6.40088202,31.6045981 C6.7149581,31.6045981 6.96690924,31.6105909 7.15616021,31.6225766 C7.3456988,31.6345622 7.51079007,31.6488309 7.65172165,31.6648117 C7.79294084,31.681078 7.92179256,31.6987711 8.03856444,31.7184618 C8.15533632,31.7387233 8.29425458,31.760697 8.45589447,31.7846683 L8.79413025,31.796654 C8.82634318,31.796654 8.8565428,31.7986516 8.88472912,31.8023615 C8.91291543,31.8066421 8.93908844,31.8086397 8.96353575,31.8086397 C9.03601485,31.8086397 9.09037417,31.7946564 9.12661372,31.7664045 C9.16285327,31.7387233 9.17291981,31.6690923 9.15681334,31.5566554 C9.09209986,31.2767047 8.92125628,31.0732338 8.64313213,30.944816 C8.36500798,30.8172544 8.04460436,30.7533308 7.68220889,30.7533308 C7.43227105,30.7533308 7.18463414,30.7653165 6.93872293,30.7892878 C6.69281171,30.8129738 6.48112673,30.8249594 6.30424323,30.8249594 C6.20731682,30.8249594 6.1287978,30.819252 6.06839855,30.8072663 C6.00771169,30.7952806 5.97348545,30.7693117 5.96571983,30.7293595 C5.96571983,30.6891219 5.96945883,30.6651506 5.97779968,30.6571602 L6.06235863,30.4893609 C6.07817748,30.4494087 6.08220409,30.417447 6.07443848,30.3934757 C6.05833201,30.3292668 5.97779968,30.2876023 5.83255388,30.2673409 C5.68759568,30.2473648 5.53055764,30.2373767 5.36115214,30.2373767 L4.72063251,30.2373767 C4.68841958,30.2453672 4.65189242,30.2813241 4.61191387,30.345533 C4.57136009,30.4091712 4.54317378,30.4414183 4.52706731,30.4414183 C4.51096085,30.5615603 4.40425551,30.6534503 4.20695131,30.7173739 C4.00935949,30.7812974 3.77754143,30.826957 3.51178474,30.8552089 C3.24574045,30.8834609 2.97365622,30.9051492 2.69581969,30.9208447 C2.41769554,30.937111 1.32734534,30.9568017 1.15017422,30.9810584 L0.364408785,31.1129006 C0.308036156,31.1608433 0.255402527,31.2030785 0.20708313,31.2390354 C0.158763733,31.2749924 0.116484261,31.3109494 0.0802447128,31.3469064 C0.0437175496,31.3828634 0.0198454666,31.4248132 0.00776561737,31.4727558 C-0.00431423187,31.5206985 -0.00230092367,31.5849073 0.013805542,31.6648117 L0.0258853912,31.72474 C0.0580983225,31.8845488 0.154737116,32.0403624 0.315801773,32.1924662 C0.477154045,32.3445699 0.6623784,32.4201937 0.872050069,32.4201937 L0.920369466,32.4201937 C0.936475932,32.4201937 0.952582397,32.4164838 0.968688863,32.408208 L1.15017422,32.3123228 L3.41514595,31.9404819 C3.43930565,31.9404819 3.47353189,31.9367721 3.51782467,31.9287816 C3.56211745,31.9205058 3.61245015,31.9125154 3.66882278,31.9045249 C3.72519541,31.8965345 3.77552812,31.8885441 3.82010851,31.8805536 C3.86411368,31.8725632 3.89862753,31.868568 3.92278723,31.868568 L3.93486708,31.868568 C3.9426327,31.868568 3.97714656,31.8665704 4.0375458,31.8622898 C4.09794505,31.8585799 4.14051214,31.8565823 4.16467183,31.8565823 C4.18049068,31.8565823 4.21471692,31.8585799 4.26735055,31.8622898 C4.31969657,31.8665704 4.35363519,31.8725632 4.36974166,31.8805536 L4.33378972,32.2763658 L3.93486708,34.2071985 C3.92652623,34.2314552 3.91674731,34.2731197 3.90466746,34.3333333 C3.89258761,34.3932616 3.88050776,34.4551875 3.86842791,34.5191111 C3.85606045,34.5830346 3.84599391,34.6429629 3.83794067,34.6991813 C3.83017506,34.7551144 3.82614844,34.7950666 3.82614844,34.8190379 C3.76143496,35.322721 3.7211688,35.8286871 3.70506233,36.33608 C3.68895587,36.8437584 3.66479617,37.3537197 3.63258324,37.8651078 C3.62453,37.9775447 3.61446346,38.0691494 3.60238361,38.1410634 C3.59030376,38.2129773 3.59634369,38.3011575 3.62050339,38.4050333 L3.62050339,38.4050333 Z M10.7510658,38.6861255 C10.7510658,38.6013698 10.7223043,38.5071967 10.6653564,38.4036064 C10.5891383,38.2623468 10.5419694,38.1681738 10.5324781,38.1210873 L10.304399,37.1602369 C10.1999946,36.8020939 10.029151,36.5195748 9.80107197,36.3212407 C9.57299291,36.1237626 9.3736754,36.0201723 9.21203551,36.0201723 C9.05068324,36.0201723 8.85136572,36.1423119 8.61379536,36.3968645 C8.60430405,36.1799811 8.58560904,35.7656197 8.54735618,35.1529242 C8.51916987,34.6349724 8.49989963,34.2203257 8.49989963,33.9095546 C8.49989963,33.7868443 8.50967856,33.5984982 8.53786487,33.344231 C8.56633881,33.0899638 8.57583012,32.9013323 8.57583012,32.7789074 C8.57583012,32.2606703 8.35752998,31.9967004 7.92121733,31.9967004 C7.5988004,31.9967004 7.43744813,32.1947491 7.43744813,32.5902759 C7.43744813,32.9392869 7.43744813,33.4572387 7.44693944,34.1449872 C7.45614314,34.8327358 7.45614314,35.3509729 7.45614314,35.6996986 C7.45614314,35.8221235 7.46592206,36.0104696 7.47541337,36.2650222 C7.48490468,36.5195748 7.49439599,36.7170528 7.49439599,36.8491804 C7.49439599,36.99044 7.48490468,37.207038 7.46592206,37.4898425 C7.44693944,37.7723616 7.43744813,37.9889596 7.43744813,38.1302192 C7.43744813,38.4036064 7.47541337,38.6013698 7.54185254,38.7146628 C7.62698672,38.8559224 7.80732161,38.9312608 8.0825696,38.9312608 C8.37680022,38.9312608 8.60430405,38.6861255 8.75645262,38.1870084 C8.87034834,37.8008989 9.02249692,37.4898425 9.21203551,37.2544099 C9.27876229,37.3577149 9.35469278,37.5840156 9.44011457,37.9327412 C9.53531528,38.328268 9.61124576,38.6013698 9.67768494,38.7432001 C9.80107197,38.9971819 9.96271185,39.1293096 10.1620294,39.1293096 C10.304399,39.1293096 10.437565,39.0916404 10.5514607,39.0065992 C10.6653564,38.9221289 10.7223043,38.8182532 10.7223043,38.6861255 L10.7510658,38.6861255 Z M14.8924408,34.7388482 C14.8924408,34.0702196 14.5219921,33.7400432 13.7813823,33.7400432 C13.3157329,33.7400432 12.8978276,33.9851784 12.5178876,34.4845809 C12.3280614,34.7294309 12.2141657,34.8709758 12.1762004,34.8992277 C12.090491,34.9745661 12.0240518,35.0969911 11.9765953,35.266788 C11.9291387,35.4365848 11.9006648,35.5213405 11.8911735,35.5307578 C11.8816822,35.5401751 11.7962604,35.5587244 11.6441118,35.5869763 C11.4922509,35.6155136 11.3875588,35.6437655 11.3308986,35.6720174 C11.1597674,35.6999839 11.0743456,35.7850251 11.0743456,35.9359873 C11.0743456,36.0957961 11.2262066,36.3035475 11.5207248,36.5578148 L11.5207248,36.6046159 C11.5302161,36.6990743 11.5207248,36.8309166 11.4922509,36.9912961 C11.4542856,37.1705103 11.435303,37.3023525 11.435303,37.3871083 C11.435303,37.7829204 11.587164,38.1313607 11.8911735,38.4230118 C12.1948954,38.7146628 12.5463615,38.8653397 12.9452842,38.8653397 C13.106924,38.8653397 13.258785,38.8373731 13.4109336,38.7902866 C13.6292337,38.7146628 13.8857867,38.5451513 14.1895086,38.2726203 C14.5219921,37.9709811 14.6928357,37.7261312 14.6928357,37.5286532 C14.6928357,37.3682737 14.5884313,37.2929352 14.3891138,37.2929352 C14.170526,37.2929352 13.9237519,37.4059429 13.638725,37.6228263 C13.3536981,37.8394243 13.1543806,37.9524319 13.0307059,37.9524319 C12.7364753,37.9524319 12.5846144,37.6228263 12.5846144,36.9721761 C12.5846144,36.8214993 12.5941057,36.7367435 12.6033094,36.7273262 C12.8598624,36.6425705 13.0879414,36.5766494 13.2872589,36.5389801 C13.6956729,36.3691833 14.0566303,36.1337507 14.3606398,35.8415289 C14.7215972,35.4836713 14.9019321,35.1161111 14.9019321,34.7388482 L14.8924408,34.7388482 Z M13.8478215,34.8427239 C13.8478215,34.9934008 13.7431294,35.144363 13.5248293,35.2953252 C13.3729683,35.3989156 13.2018371,35.4836713 13.0120109,35.5495925 C13.0784501,35.3894983 13.1733632,35.2197014 13.3062416,35.0407726 C13.4773728,34.8238893 13.6292337,34.7108816 13.7621121,34.7108816 L13.8190599,34.7108816 C13.8380425,34.7579681 13.8478215,34.7959227 13.8478215,34.8330212 L13.8478215,34.8427239 Z M28.9867487,33.8439189 C28.8633617,33.6079155 28.6922305,33.4949079 28.4834217,33.4949079 C28.3979999,33.4949079 28.2461389,33.5234452 28.0180599,33.5893663 L27.5337154,33.7023739 C27.3530929,33.7494605 27.2107233,33.8342162 27.1063189,33.9569265 C27.0398797,34.0413969 26.8972224,34.1641072 26.6884136,34.3242014 C26.5457563,34.4372091 26.3944706,34.6540924 26.2995575,34.8330212 C26.2995575,34.8330212 25.8715857,35.2836249 25.8333328,35.3683807 C25.8048589,35.4345872 25.5580848,34.6732124 25.5201196,34.8709758 C25.4913581,34.7485508 25.4631717,34.616994 25.4441891,34.4751636 C25.3587673,33.9760465 24.7890011,33.1370503 24.4944829,33.1370503 C24.3233517,33.1370503 24.1714907,33.2123887 24.0383248,33.3536483 C23.9054464,33.4949079 23.8390072,33.6550021 23.8390072,33.8247989 C23.8390072,33.9475092 23.8769725,34.0508142 23.9623943,34.1449872 C24.1050515,34.5313821 24.209456,34.7017497 24.2758951,34.8997985 L24.7697309,37.5192359 C24.8741353,38.0186384 24.9218794,38.535734 24.9218794,38.8276705 C24.9218794,38.8559224 24.9218794,38.9032943 24.9121005,38.9692154 C24.9028968,39.0351365 24.9028968,39.0822231 24.9028968,39.110475 C24.9028968,39.4497833 25.121197,39.6192948 25.5580848,39.6192948 C25.6627769,39.6192948 25.7481987,39.6101628 25.8146378,39.5816256 C25.9949727,39.3929941 26.13763,38.9221289 26.2420344,38.1684592 C26.3654214,37.2823764 26.4603345,36.6334386 26.5267737,36.4636417 C26.5935005,36.3415021 26.6504484,36.256461 26.6979049,36.1999572 C26.8023093,36.0019084 26.8972224,35.88833 26.9826442,35.6149428 C27.0585747,35.3700929 27.1345052,35.1908788 27.201232,35.0684538 C27.3151277,34.8801077 27.5147328,34.682059 27.7899808,34.4751636 C27.8187423,34.3901225 28.0180599,34.3053668 28.3885086,34.2206111 C28.7589573,34.1355699 28.9487835,34.013145 28.9582748,33.8439189 L28.9867487,33.8439189 Z M30.6862685,33.5037544 C30.6862685,33.4001641 30.6385243,33.305991 30.5436112,33.2212353 C30.4486981,33.1364796 30.4012415,33.089393 30.4012415,33.0799757 C30.4012415,33.0611411 30.4012415,33.0328892 30.4107329,32.99522 L30.4107329,32.9104643 C30.4012415,32.7692047 30.3253111,32.656197 30.1826538,32.5717267 C30.0402841,32.4866856 29.8884232,32.4490164 29.7270709,32.4490164 C29.4331279,32.4490164 29.2812669,32.581144 29.2812669,32.8445431 C29.2812669,33.0611411 29.385959,33.2965737 29.6039715,33.5414237 C29.8222716,33.7859882 30.0402841,33.9084131 30.2585843,33.9084131 C30.3822589,33.9084131 30.477172,33.8710293 30.5531025,33.7956909 C30.629033,33.7203524 30.6672858,33.6261794 30.6672858,33.5037544 L30.6862685,33.5037544 Z M30.230398,38.2703373 C30.230398,38.1573296 30.2114153,38.0154993 30.1826538,37.8362852 C30.1351972,37.5905791 30.1067233,37.4487488 30.1067233,37.4016623 C30.0497755,36.8166479 30.0118102,36.3726078 29.9928276,36.0801006 C29.9833363,35.9103037 29.973845,35.8158453 29.9643537,35.7967253 C29.8789319,35.6175112 29.7083759,35.5230528 29.4521105,35.5230528 C29.1199147,35.5230528 28.95885,35.6837177 28.95885,36.0141795 C28.95885,36.0801006 28.9680537,36.174559 28.9968153,36.3064013 C29.0252892,36.4388143 29.0347805,36.54269 29.0347805,36.6180284 C29.0347805,37.0055648 29.0347805,37.2224481 29.0442718,37.2601174 C29.0537631,37.2977866 29.0819494,37.4207823 29.129406,37.618831 C29.1581675,37.7606614 29.1768625,37.8739544 29.1768625,37.9589955 C29.1768625,38.006082 29.1676588,38.0817058 29.1483886,38.1758789 C29.129406,38.2703373 29.1199147,38.3365438 29.1199147,38.3839157 C29.1199147,38.5440098 29.1768625,38.6761375 29.3002496,38.7897159 C29.4236366,38.9030089 29.5657186,38.9595127 29.7270709,38.9595127 C30.0592668,38.9595127 30.230398,38.7329267 30.230398,38.28004 L30.230398,38.2703373 Z M35.8529925,37.1605222 C35.3119879,37.3488683 35.0082659,37.461876 34.9323355,37.5089625 L34.7522882,37.4430414 C34.7048316,36.9721761 34.7787488,37.0024257 34.7502749,36.5218578 L34.7522882,35.9354166 L34.4960228,34.2111938 C34.3343829,33.4101521 34.0303734,33.01434 33.5837066,33.01434 L33.15631,33.2029714 C33.1088535,33.250058 33.0611093,33.4101521 33.0136527,33.674122 C32.9092483,33.466656 32.7286258,33.3630656 32.4720728,33.3630656 C32.2347901,33.3630656 32.0921328,33.4386894 32.0446763,33.579949 L32.0446763,33.5705317 L32.035185,33.579949 C31.9687458,33.6455847 31.9115103,33.7494605 31.8545625,33.89072 C31.7976146,34.0319796 31.750158,34.126438 31.7027015,34.1735245 C31.5885182,34.2206111 31.5315703,34.3147841 31.5315703,34.4560437 C31.5315703,34.4845809 31.4936051,34.559634 31.4081833,34.6823443 C31.3132702,34.8236039 31.2658136,34.8989423 31.2560347,34.9083596 C31.1803918,35.0496192 31.1139526,35.2759199 31.0570048,35.577559 C31.0000569,35.8506608 30.9718706,36.0860934 30.9718706,36.2747249 C30.9718706,36.4913229 31.0098358,36.6514171 31.09497,36.7458755 C31.1803918,36.8400485 31.3322528,36.8874204 31.5505529,36.8874204 C31.645466,36.8874204 31.750158,36.8777177 31.8545625,36.8494658 C32.1490807,36.7741274 32.4246163,36.6043305 32.6814569,36.3500633 C32.7858613,36.2370557 32.8523005,36.1711345 32.8712831,36.1617172 C32.9377223,36.1146307 32.9851788,36.0769615 33.0136527,36.0578415 C33.0803795,35.9922058 33.1658013,35.8506608 33.279697,35.6340628 C33.3938804,35.4171794 33.4698109,35.2570853 33.4982848,35.1532096 C33.5742153,35.4548487 33.6314508,35.8224089 33.6789073,36.2653076 L33.7738204,37.3868229 C33.7738204,37.4242068 33.7833117,37.4995452 33.8117856,37.6128382 C33.8402596,37.7255605 33.8500385,37.8200189 33.8500385,37.88594 C33.8500385,37.9333119 33.8402596,37.9709811 33.8310559,37.9989477 C33.821277,38.027485 33.5457413,38.1875791 33.0044491,38.4703836 C32.5577822,38.7058163 32.5482909,38.7999893 32.5482909,38.7999893 C32.4815641,38.8470758 32.3961424,38.9224143 32.2917379,39.0168727 L31.1803918,40.0910161 C30.9054314,40.3832379 30.7250965,40.7034263 30.6301834,41.0424492 C30.5352703,41.3820429 30.4881014,41.909412 30.4881014,42.6256978 C30.4881014,42.7104536 30.5067964,42.7952093 30.5447617,42.879965 L30.6206921,42.9273369 C30.7630618,43.3228637 30.8579749,43.548879 30.8959401,43.6056682 C31.0383098,43.7375105 31.1519179,43.8319689 31.2373397,43.8881873 L31.2373397,43.9917777 C31.3224739,44.0579842 31.417387,44.12362 31.522079,44.1804092 C31.778632,44.3499206 31.9687458,44.4820483 32.0921328,44.5762213 C32.3297032,44.6986463 32.6814569,44.8022366 33.1370398,44.8869923 C33.5552327,44.9626162 33.9161901,45 34.2204872,45 C34.685849,45 34.9987746,44.9152443 35.1506356,44.7363155 C35.4161047,44.4158418 35.548983,43.9446912 35.548983,43.3325664 C35.548983,42.9929727 35.5015265,42.5877432 35.4161047,42.116878 L35.1791095,40.9200243 C35.1696182,40.7413808 35.1601269,40.6092532 35.1601269,40.5150802 C35.1506356,40.4488737 35.1126704,40.3264487 35.0462312,40.1472346 C34.9987746,40.005975 34.9703007,39.88355 34.9703007,39.7796743 C34.9608094,39.6384148 34.9228442,39.4218168 34.8472013,39.1295949 C34.7712708,38.8379439 34.7333056,38.6210605 34.7333056,38.4703836 C34.7333056,38.3756399 34.7427969,38.3100041 34.7614919,38.2629176 C34.8753876,38.1781618 34.979792,38.102538 35.0841964,38.0369023 C35.3781394,37.8576881 35.6249135,37.575169 35.8337223,37.1887741 L35.8529925,37.1605222 Z M32.6621867,34.5407994 C32.4815641,35.0402019 32.3107206,35.3795102 32.1490807,35.558439 C32.3391945,35.0025327 32.5100381,34.6635097 32.671678,34.5502167 L32.6621867,34.5407994 Z M34.6099185,42.9553035 C34.6099185,43.115683 34.5909359,43.3134464 34.5434794,43.5394617 C34.5052265,43.7375105 34.4672613,43.9355592 34.4198047,44.1330373 C34.3821271,44.1615745 34.305909,44.1804092 34.2015046,44.1804092 C34.0683386,44.1804092 33.8782248,44.1521572 33.6409421,44.1050707 C33.0044491,43.9638112 32.5577822,43.8034316 32.3012293,43.6242175 C31.9972197,43.4076195 31.7406667,43.02151 31.522079,42.4656037 C31.4556398,42.2866749 31.417387,42.1074607 31.417387,41.9376639 C31.417387,41.6739793 31.5030964,41.3914602 31.6742276,41.0801184 C31.7593617,40.9200243 31.9307805,40.674889 32.1870459,40.3452833 C32.2917379,40.2040238 32.4435989,40.0530615 32.643204,39.8929673 C32.9567049,39.6384148 33.1183448,39.5065725 33.1275485,39.4971552 L33.3556275,39.2523053 L33.9161901,38.7999893 C34.0683386,39.8270462 34.182522,40.5336294 34.2584524,40.9200243 L34.4770402,41.9285319 C34.5529707,42.3237733 34.5909359,42.663367 34.5909359,42.9458862 L34.6099185,42.9553035 Z M38.0086704,33.5037544 C38.0086704,33.4001641 37.9612139,33.305991 37.8663008,33.2212353 C37.7713877,33.1364796 37.7239311,33.089393 37.7239311,33.0799757 C37.7239311,33.0611411 37.7239311,33.0328892 37.7334224,32.99522 L37.7334224,32.9104643 C37.7239311,32.7692047 37.6480006,32.656197 37.5053434,32.5717267 C37.3629737,32.4866856 37.2111127,32.4490164 37.0497605,32.4490164 C36.7558175,32.4490164 36.6039565,32.581144 36.6039565,32.8445431 C36.6039565,33.0611411 36.7083609,33.2965737 36.9266611,33.5414237 C37.1446736,33.7859882 37.3629737,33.9084131 37.5812738,33.9084131 C37.7049485,33.9084131 37.7998616,33.8710293 37.8757921,33.7956909 C37.9517225,33.7203524 37.9899754,33.6261794 37.9899754,33.5037544 L38.0086704,33.5037544 Z M37.5530875,38.2703373 C37.5530875,38.1573296 37.5338173,38.0154993 37.5053434,37.8362852 C37.4578868,37.5905791 37.4294129,37.4487488 37.4294129,37.4016623 C37.372465,36.8166479 37.3344998,36.3726078 37.3152295,36.0801006 C37.3060258,35.9103037 37.2965345,35.8158453 37.2870432,35.7967253 C37.2016214,35.6175112 37.0310655,35.5230528 36.7745125,35.5230528 C36.4426042,35.5230528 36.281252,35.6837177 36.281252,36.0141795 C36.281252,36.0801006 36.2907433,36.174559 36.3192172,36.3064013 C36.3476911,36.4388143 36.3571824,36.54269 36.3571824,36.6180284 C36.3571824,37.0055648 36.3571824,37.2224481 36.3666738,37.2601174 C36.3764527,37.2977866 36.404639,37.4207823 36.4520955,37.618831 C36.4805695,37.7606614 36.4995521,37.8739544 36.4995521,37.9589955 C36.4995521,38.006082 36.4900608,38.0817058 36.4710782,38.1758789 C36.4520955,38.2703373 36.4426042,38.3365438 36.4426042,38.3839157 C36.4426042,38.5440098 36.4995521,38.6761375 36.6229391,38.7897159 C36.7463262,38.9030089 36.8884082,38.9595127 37.0497605,38.9595127 C37.3819563,38.9595127 37.5530875,38.7329267 37.5530875,38.28004 L37.5530875,38.2703373 Z M43.5268606,38.5071967 C43.5268606,38.328268 43.3462381,38.2340949 42.976077,38.2340949 C42.8334197,38.2340949 42.7005414,38.2529295 42.5771543,38.2905987 C42.3016187,37.8571174 42.1209962,37.1316996 42.0355744,36.1143453 C41.9881179,35.5396044 41.8932048,35.1158257 41.7413438,34.8424385 C41.7125823,34.7856493 41.655922,34.7200136 41.5702126,34.6352578 C41.5610089,34.5313821 41.5417387,34.4560437 41.5132648,34.4089571 C41.4563169,34.3618706 41.399369,34.3147841 41.3424212,34.2676976 C41.2567118,34.1641072 41.17129,34.0699342 41.0858682,33.9757611 C41.0004464,33.8813027 40.8580768,33.8342162 40.6584716,33.8342162 C40.3737323,33.8342162 40.1266706,34.013145 39.9273531,34.3618706 C39.8226611,34.5407994 39.6992741,34.8327358 39.5569044,35.247668 C39.5569044,35.01195 39.5569044,34.7765174 39.5474131,34.5407994 C39.5376342,34.1923591 39.5094479,33.9757611 39.4619913,33.8813027 L39.2911477,33.8530508 C39.2341999,33.7968324 39.177252,33.7400432 39.1203042,33.6929566 C39.0633563,33.6458701 38.9779345,33.6176182 38.8735301,33.6176182 C38.6555176,33.6176182 38.5036566,33.7023739 38.4182348,33.8813027 C38.3992522,33.9189719 38.3900485,34.0416823 38.3900485,34.248863 C38.3900485,35.0496192 38.4182348,35.6243601 38.4751827,35.9730858 C38.5416219,36.2650222 38.5985697,36.4819056 38.636535,36.6231651 L38.7504307,37.7064405 C38.8358525,38.2061284 38.9684432,38.5071967 39.1582694,38.6110725 C39.2436912,38.658159 39.3575869,38.6767082 39.4904652,38.6767082 C39.6708001,38.6767082 39.8036785,38.6299071 39.8985916,38.5260314 C39.9937923,38.4227264 40.0507402,38.1967111 40.0792141,37.8477001 C40.0981967,37.6025648 40.1171793,37.3580002 40.1456533,37.1131503 C40.2026011,36.9245189 40.2500577,36.7829739 40.2975142,36.6985036 C40.3354795,36.5475413 40.3927149,36.2932741 40.4686454,35.9257139 C40.5350846,35.5958229 40.5920325,35.341841 40.6492679,35.1629122 C40.7533847,35.5301871 40.8201115,35.8129916 40.8388065,36.0104696 C41.0953595,37.0940304 41.2285255,37.7346924 41.2285255,37.9327412 C41.2285255,38.1019673 41.2854733,38.2811814 41.399369,38.4601102 C41.5894829,38.752332 41.684396,38.9124262 41.6935997,38.9406781 C41.7413438,39.0257192 41.7982917,39.0916404 41.8647309,39.1384415 C41.8932048,39.1669788 41.9691353,39.204648 42.0928099,39.2517345 C42.1023012,39.2517345 42.1687404,39.2797011 42.2921274,39.3461929 C42.3775492,39.3838622 42.4439884,39.4024114 42.5012239,39.4024114 C42.567663,39.4024114 42.6530848,39.3929941 42.7574892,39.3647422 C42.7859632,39.3176557 42.9283328,39.1952307 43.1943771,38.9971819 C43.4316599,38.8182532 43.5458432,38.6675763 43.5458432,38.5354487 L43.5268606,38.5071967 Z M47.4205987,39.3838622 C47.4205987,39.327073 47.3541595,39.1763961 47.2117898,38.9312608 C47.0691326,38.8465051 46.9650158,38.5922379 46.9077803,38.1681738 C46.898289,38.0645834 46.8793064,37.7723616 46.8508324,37.2823764 C46.8223585,37.0846131 46.7938846,36.9339362 46.7654106,36.8303458 C46.7271578,36.5854959 46.7084628,36.2556049 46.7084628,35.8503754 C46.7084628,35.4263114 46.746428,35.1908788 46.8318498,35.1346603 C46.7843933,35.01195 46.7559193,34.9366116 46.746428,34.9177769 C46.7559193,34.8989423 46.7654106,34.8521412 46.7654106,34.7856493 C46.7654106,34.7388482 46.7654106,34.6917616 46.7559193,34.6352578 C46.5847881,34.3242014 46.4044532,34.1735245 46.2143394,34.1735245 C46.1007313,34.1735245 45.9770567,34.2206111 45.853382,34.3056522 C45.6255906,34.0510996 45.3977991,33.9286746 45.1602288,33.9286746 C44.7423235,33.9286746 44.3721624,34.3242014 44.0402542,35.125243 C43.7650062,35.7844543 43.6229242,36.3591952 43.6229242,36.8585977 C43.6229242,37.0940304 43.6419068,37.3862522 43.679872,37.7346924 C43.7270409,38.1870084 43.7934801,38.4506929 43.8789019,38.5354487 C44.0212716,38.6675763 44.2867406,38.7334974 44.6853757,38.7334974 C44.7043583,38.7334974 44.7138496,38.7146628 44.7138496,38.6675763 C44.7138496,38.639039 44.7138496,38.6013698 44.7043583,38.5542833 L44.7138496,38.544866 L44.7236285,38.7240801 C44.95142,38.6861255 45.1510251,38.6013698 45.3218687,38.4792302 C45.3977991,38.4227264 45.5496601,38.2717641 45.7869429,38.0174969 C45.9390914,38.5828206 46.0529872,38.9500954 46.1386966,39.1198923 C46.3475054,39.5816256 46.6135497,39.8076409 46.9365418,39.8076409 C47.021676,39.8076409 47.1168767,39.7888062 47.2212811,39.7605543 L47.2592464,39.6475467 C47.3636508,39.5530883 47.4205987,39.4589152 47.4205987,39.3647422 L47.4205987,39.3838622 Z M45.5876253,36.1614319 C45.5876253,36.3874472 45.4164941,36.773842 45.0842983,37.3200457 C45.0368417,37.4145041 44.9798939,37.5086771 44.922946,37.6028502 C44.8372366,37.7346924 44.7613061,37.8008989 44.694867,37.8008989 C44.5619886,37.8008989 44.4955495,37.6499367 44.4955495,37.3391656 C44.4955495,37.1131503 44.5240234,36.8774324 44.5809712,36.6325824 L44.6474104,36.5569586 L44.8467279,35.794157 C44.9324373,35.4831006 45.0368417,35.247668 45.1602288,35.0967057 C45.2741245,35.3700929 45.350055,35.5304725 45.3883078,35.5772736 C45.454747,35.7470705 45.4927122,35.8786274 45.5022036,35.9730858 L45.5686427,36.0201723 C45.578134,36.0675442 45.5876253,36.1143453 45.5876253,36.1614319 L45.5876253,36.1614319 Z M49.3579764,37.1411169 C49.3579764,36.4722029 49.3010285,35.4733979 49.1776415,34.1447019 C49.0542545,32.8162912 48.9973066,31.8172008 48.9973066,31.1482869 C48.9973066,30.9884781 49.0160016,30.7527601 49.0542545,30.4322864 C49.0922197,30.1118127 49.1112023,29.87638 49.1112023,29.7162859 C49.1112023,29.6406621 49.1112023,29.5750263 49.101711,29.5279398 C49.0922197,29.3766922 49.0067979,29.2545526 48.8549369,29.1506769 C48.703076,29.0470865 48.551215,29 48.3898628,29 C48.2667633,29 48.1243937,29.0565038 47.9630414,29.1697969 C47.8016891,29.2828045 47.7162674,29.4052295 47.7162674,29.5370717 C47.7162674,29.6029928 47.7257587,29.7068686 47.7447413,29.8387108 C47.7637239,29.9705531 47.7732152,30.0647261 47.7732152,30.1215153 C47.8396544,30.7245082 47.8966022,31.1765388 47.9440588,31.4784633 C47.9728203,32.2603849 47.982024,32.8445431 47.9728203,33.2400699 C47.982024,33.3624949 48.0199893,33.7206378 48.0864284,34.3144987 C48.1436639,34.7665293 48.1721379,35.1155403 48.1721379,35.3603902 L48.1721379,35.5016498 C48.1626465,35.5675709 48.1626465,35.6149428 48.1626465,35.6429094 C48.1626465,35.8597927 48.1816292,36.1893984 48.2290857,36.6322971 C48.2765423,37.0751957 48.2955249,37.4050868 48.2955249,37.6216848 L48.2955249,37.8477001 C48.2860336,37.9515758 48.2860336,38.0269142 48.2860336,38.0740007 C48.2860336,38.1399219 48.2955249,38.2340949 48.3145075,38.3473879 C48.3332025,38.4603956 48.3429814,38.5542833 48.3429814,38.6204898 C48.3429814,38.6864109 48.3239988,38.7711666 48.2860336,38.8844597 C48.2480683,38.9971819 48.2290857,39.0916404 48.2290857,39.1575615 C48.2290857,39.2988211 48.2765423,39.4118287 48.3806591,39.5060017 C48.4850635,39.6004602 48.6084505,39.6475467 48.7508202,39.6475467 C48.8552246,39.6475467 48.959629,39.6192948 49.0637458,39.5722083 C49.1399639,39.4118287 49.1874204,39.2988211 49.206403,39.2234826 L49.3105198,39.1955161 C49.3105198,38.9692154 49.3202988,38.6299071 49.3392814,38.1775911 C49.3579764,37.7252751 49.3677553,37.3956695 49.3677553,37.1787861 L49.3579764,37.1411169 Z M58.3048304,37.7167139 C58.3048304,37.613409 58.2855602,37.5286532 58.2478826,37.4621613 C58.2096297,37.3965256 58.0482775,37.3023525 57.7543345,37.1796422 C57.4319175,37.0383826 57.2326,36.9347923 57.1566695,36.8685858 C57.0807391,36.8026647 56.9570644,36.7273262 56.7764419,36.6422851 C56.596107,36.557244 56.4724324,36.482191 56.4154845,36.4159844 L55.6075727,35.558439 C55.4082552,35.3038864 55.2466153,34.9363262 55.1229406,34.4648902 C55.0565015,34.2197549 55.0185362,34.0125742 55.0185362,33.8427774 C55.0185362,33.7580217 55.0280275,33.6732659 55.0470101,33.5885102 C55.1137369,33.2962884 55.1991587,33.0888223 55.3038508,32.966112 C55.4367291,32.8060178 55.6363342,32.7306794 55.9118698,32.7306794 C56.1399489,32.7306794 56.3490453,32.8342697 56.5296678,33.0323185 L56.9665557,33.6073448 C57.1661608,33.8427774 57.2610739,34.1067473 57.2610739,34.3989691 C57.2610739,34.4366383 57.2610739,34.4934275 57.2515826,34.5781832 C57.2423789,34.662939 57.2423789,34.7194428 57.2423789,34.7573974 C57.2423789,34.8609877 57.2515826,34.9834127 57.2708529,35.1340896 C57.7828084,34.9457435 58.0387861,34.5876005 58.0387861,34.0690781 C58.0387861,33.5885102 57.7258605,33.079405 57.0994341,32.532916 C56.4724324,31.9872831 55.9020909,31.7141812 55.3892725,31.7141812 C54.9141318,31.7141812 54.5635286,31.9587458 54.3259582,32.4481602 C54.1554022,32.8154351 54.0699804,33.2677511 54.0699804,33.8053935 C54.0699804,34.1349992 54.1269283,34.4460556 54.2500277,34.7382774 C54.5252757,35.4168941 54.7625585,35.88833 54.9615884,36.1617172 C55.20865,36.4727736 55.6173516,36.812082 56.1968967,37.1796422 C56.5581418,37.4153602 56.7384767,37.5286532 56.7384767,37.5192359 C56.7289853,37.5286532 56.7197817,37.5286532 56.7100027,37.5286532 C56.2063881,37.6037063 55.7692126,37.6413755 55.3892725,37.6413755 C55.0185362,37.6413755 54.7812535,37.594289 54.6771367,37.5095332 C54.6106975,37.3871083 54.5727323,37.2929352 54.5635286,37.2173114 C54.5062931,36.9910108 54.4496328,36.8591685 54.4021763,36.8214993 C54.3544321,36.7835447 54.2123501,36.7649955 53.9845586,36.7555781 C53.8801542,36.9721761 53.8232064,37.1796422 53.8232064,37.3679883 C53.8232064,37.5663224 53.8801542,37.7355485 54.0035413,37.8862254 C54.3357371,38.3003014 54.8669629,38.5071967 55.6075727,38.5071967 C55.8166691,38.5071967 56.2253707,38.4698129 56.8336774,38.4036064 C57.4885778,38.319136 57.8777215,38.2532149 58.0008209,38.1967111 C58.1624608,38.1122407 58.2478826,37.9427292 58.2478826,37.688462 L58.3048304,37.7167139 Z M63.4534348,38.4038918 C63.3366629,38.3148554 63.2555553,38.2343803 63.1298674,38.0651542 C62.7349713,37.5332192 62.5724686,37.0928889 62.1321293,36.7541513 C61.7605302,36.4682077 61.4130907,36.0852373 61.1568253,35.9802201 C60.8933696,35.8726345 60.6506221,35.7379385 60.4513046,35.6720174 C60.6031656,35.5307578 60.7170613,35.4268821 60.7929918,35.360961 C61.08751,35.0690246 61.4105022,34.6167086 61.7619682,33.9945958 C62.151112,33.3068472 62.3412258,32.7980274 62.3412258,32.467851 C62.3412258,31.9307792 62.2273301,31.657392 61.999251,31.657392 C61.7332067,31.657392 61.5433805,31.7421478 61.4197059,31.9213619 C61.3532667,32.0252377 61.3058101,32.2135837 61.2773362,32.4775536 C61.2488623,32.7412382 61.2014057,32.9201669 61.1349665,33.0049227 C61.0400534,33.127633 60.8881925,33.3724829 60.6885874,33.7497458 C60.5177438,34.0605169 60.3561039,34.2962349 60.1947516,34.456329 L60.1852603,34.2962349 C60.1852603,33.9004227 60.1852603,33.5987836 60.1947516,33.4010202 L60.0808559,32.2230011 C60.0333993,31.7421478 60.0049254,31.346621 60.0049254,31.0449819 C60.0049254,30.9508089 60.0144167,30.8095493 60.0333993,30.6209178 C60.052382,30.4325717 60.0615857,30.2910268 60.0615857,30.1874365 C60.0615857,29.6691994 59.8910297,29.4146468 59.5398512,29.4146468 C59.3977692,29.4146468 59.2646032,29.4617333 59.1415038,29.5467744 C59.0178292,29.6315301 58.932695,29.7445378 58.8852384,29.8857973 C58.8947297,29.9802558 58.9137124,30.0744288 58.9421863,30.1780192 C58.932695,30.2251057 58.9232037,30.2721922 58.9232037,30.3195641 C58.9232037,30.3569479 58.932695,30.3949025 58.9421863,30.4231544 C58.8947297,30.7530455 58.8757471,31.0920684 58.8757471,31.440794 C58.8757471,31.6950613 58.8947297,32.015535 58.9421863,32.4022152 C59.0086255,32.9295842 59.0465907,33.2406407 59.0563696,33.3445164 C59.1035386,33.9660585 59.1320125,34.2585656 59.1320125,34.2206111 C59.1320125,34.2585656 59.1320125,34.3150695 59.1228088,34.3998252 C59.1130299,34.4845809 59.1130299,34.5413701 59.1130299,34.578754 C59.1130299,34.6637951 59.1228088,34.7959227 59.1509951,34.9651488 C59.179469,35.1349457 59.189248,35.266788 59.189248,35.3515437 C59.189248,35.4739686 59.1228088,35.5778444 58.9896428,35.6626001 C58.8567645,35.7473558 58.7903253,35.8603635 58.7903253,36.0016231 C58.7903253,36.1331799 58.8282906,36.227353 58.9137124,36.2835714 L59.1699777,36.4625002 C59.179469,36.4910375 59.189248,36.5287067 59.189248,36.5757932 C59.189248,36.6225944 59.179469,36.6885155 59.1699777,36.7732713 C59.160774,36.8583124 59.1512827,36.9242335 59.1512827,36.97132 C59.1512827,37.1031623 59.160774,37.3009257 59.1699777,37.5648956 C59.179469,37.8285801 59.189248,38.0360462 59.189248,38.1773057 C59.189248,38.9971819 59.4199156,38.3245581 59.3152235,39.0123067 C59.2582757,39.3704496 59.2298018,39.568213 59.2298018,39.5964649 C59.2298018,39.926356 59.3721714,40.0958674 59.6474194,40.0958674 C59.8087717,40.0958674 59.94165,40.020529 60.0365631,39.8698521 C60.4541808,39.238322 60.3753741,39.6949186 60.3753741,38.3941891 C60.3753741,38.0360462 60.3561039,37.4613052 60.308935,36.6696809 C60.7170613,36.6982182 60.9439899,36.9385021 60.9367995,36.9325093 C61.1988172,37.1482512 61.3831787,37.3902474 61.7907298,37.7943353 C62.1979933,38.1987087 62.7050593,39.1549931 62.9046645,39.1264558 C63.3890089,39.0231509 63.6116233,38.994899 63.6780624,38.6090749 L63.4534348,38.4038918 Z M65.9786985,33.5037544 C65.9786985,33.4001641 65.9312419,33.305991 65.8363288,33.2212353 C65.7414157,33.1364796 65.6939592,33.089393 65.6939592,33.0799757 C65.6939592,33.0611411 65.6939592,33.0328892 65.7034505,32.99522 L65.7034505,32.9104643 C65.6939592,32.7692047 65.6177411,32.656197 65.4753714,32.5717267 C65.3330018,32.4866856 65.1811408,32.4490164 65.0197885,32.4490164 C64.7258455,32.4490164 64.5739846,32.581144 64.5739846,32.8445431 C64.5739846,33.0611411 64.678389,33.2965737 64.8964015,33.5414237 C65.1147016,33.7859882 65.3330018,33.9084131 65.5513019,33.9084131 C65.6746889,33.9084131 65.769602,33.8710293 65.8458201,33.7956909 C65.9217506,33.7203524 65.9600035,33.6261794 65.9600035,33.5037544 L65.9786985,33.5037544 Z M65.522828,38.2703373 C65.522828,38.1573296 65.5038454,38.0154993 65.4753714,37.8362852 C65.4279149,37.5905791 65.3991533,37.4487488 65.3991533,37.4016623 C65.3424931,36.8166479 65.3042402,36.3726078 65.2855452,36.0801006 C65.2760539,35.9103037 65.266275,35.8158453 65.2567837,35.7967253 C65.1716495,35.6175112 65.0010935,35.5230528 64.7445405,35.5230528 C64.4126323,35.5230528 64.25128,35.6837177 64.25128,36.0141795 C64.25128,36.0801006 64.2607713,36.174559 64.2892453,36.3064013 C64.3177192,36.4388143 64.3272105,36.54269 64.3272105,36.6180284 C64.3272105,37.0055648 64.3272105,37.2224481 64.3367018,37.2601174 C64.3461931,37.2977866 64.3746671,37.4207823 64.4221236,37.618831 C64.4508852,37.7606614 64.4695802,37.8739544 64.4695802,37.9589955 C64.4695802,38.006082 64.4600889,38.0817058 64.4411062,38.1758789 C64.4221236,38.2703373 64.4126323,38.3365438 64.4126323,38.3839157 C64.4126323,38.5440098 64.4695802,38.6761375 64.5929672,38.7897159 C64.7160666,38.9030089 64.8587239,38.9595127 65.0197885,38.9595127 C65.3516968,38.9595127 65.522828,38.7329267 65.522828,38.28004 L65.522828,38.2703373 Z M66.1374622,38.5497173 C66.1469535,38.6179214 66.1521306,38.6567321 66.1521306,38.6664348 C66.2202955,38.7925696 66.293925,38.8970161 66.3721564,38.9794888 C66.4503878,39.0619616 66.5263183,39.127312 66.5996603,39.1761107 C66.6730022,39.2246241 66.758424,39.2731375 66.8565009,39.3216509 C67.0520794,39.3119482 67.1961747,39.2731375 67.2896497,39.2055041 C67.3825495,39.1370146 67.4630819,39.0180142 67.5315343,38.8485027 C67.6002744,38.6787058 67.2985658,38.2489343 67.3767972,37.9527173 C67.4064216,37.5731714 67.4754493,37.0854692 67.6319121,36.6094672 C67.6808068,36.4930351 67.8039062,36.2538927 67.8775357,36.0838104 C67.9505901,35.9140136 68.1616998,35.7724687 68.4314831,35.6945619 C68.6523718,35.587547 68.6914875,35.5727077 68.9368235,35.5290456 C69.1427561,35.4659782 69.2491739,35.4913764 69.4251945,35.4913764 C69.5132048,35.4913764 69.5963257,35.5084988 69.6748447,35.5424581 C69.7527885,35.5767029 69.8313075,35.5932545 69.9095389,35.5932545 C69.9682125,35.5932545 70.0219966,35.5741345 70.0711788,35.5350384 C70.1197858,35.4965131 70.1589015,35.4479997 70.1885259,35.3894983 C70.2178627,35.3312822 70.2397215,35.2707832 70.2543899,35.2074304 C70.2690583,35.144363 70.2765363,35.0935666 70.2765363,35.0547559 L70.2765363,34.9817005 C70.227354,34.7776589 70.0956261,34.6104304 69.8799146,34.4791589 C69.6647782,34.3481727 69.4398629,34.2828223 69.2048811,34.2828223 C69.0679761,34.2828223 68.9503414,34.3119304 68.8525521,34.3698611 C68.7547629,34.4280771 68.6618631,34.4939983 68.5738528,34.5667683 C68.4858424,34.6395384 68.3978321,34.7048888 68.3098218,34.7633902 C68.2218114,34.8216063 68.1237346,34.8507143 68.0161664,34.8507143 L67.9574928,34.8507143 L68.4271689,33.9184012 C68.4271689,33.8992812 68.400133,33.8601851 68.3463489,33.8019691 C68.2922772,33.743753 68.2338913,33.6806856 68.1703283,33.6127669 C68.10619,33.5451335 68.0429146,33.4869174 67.9793516,33.4381187 C67.915501,33.3896053 67.8691949,33.3653486 67.8401457,33.3653486 C67.8300792,33.3556459 67.793552,33.3482262 67.729989,33.3433749 C67.6658508,33.3385236 67.6146552,33.3359552 67.5758271,33.3359552 C67.45848,33.3359552 67.3483233,33.3505092 67.245357,33.3799026 C67.1429659,33.4087253 67.0865932,33.4672267 67.0765267,33.5545508 C66.9396217,33.9429433 66.8076062,34.3336187 66.6801926,34.7265771 C66.5530666,35.1201063 66.4429098,35.5182014 66.35001,35.9211479 C66.2571102,36.3240944 66.1889454,36.7296092 66.1446526,37.137407 C66.1006474,37.5449195 66.0931694,37.957854 66.1225062,38.3750691 C66.1225062,38.4235825 66.1276833,38.4820839 66.1374622,38.5497173 L66.1374622,38.5497173 Z M78.5940877,37.6599247 C78.6841113,37.823158 78.7925424,37.9752617 78.919956,38.1162359 C79.0470821,38.2572101 79.1871508,38.3799205 79.3407374,38.4837962 C79.4940365,38.5879573 79.6530878,38.6584444 79.8176039,38.6955428 C79.8699499,38.7029625 79.9188445,38.7066724 79.9637125,38.7066724 L80.1992696,38.7066724 C80.7158269,38.7066724 81.1607681,38.5619883 81.5352434,38.2723349 L82.3883108,37.5928621 C82.4257008,37.5634687 82.4797725,37.5189505 82.5508136,37.4593076 C82.6218546,37.3999501 82.6949089,37.3408779 82.7699765,37.281235 C82.8447566,37.2218774 82.9100453,37.1639467 82.9664179,37.1085844 L83.0731232,37.002711 C83.2152053,36.8688712 83.9822757,36.4134161 84.0533167,36.2690174 C84.1243577,36.124048 84.5900072,35.5264773 84.7401424,35.3929228 C84.6800308,35.3110207 84.3806231,35.3210088 84.2983651,35.2468119 C84.2158194,35.1726149 84.8920034,33.6007812 84.0041345,34.7605365 L82.9252889,35.9282822 L82.5677829,36.3343678 L81.7034984,36.9248043 L81.5464604,37.002711 C81.4265247,37.091462 81.312629,37.1807837 81.204198,37.26982 C81.0954793,37.3591417 80.9833093,37.4407584 80.8674003,37.5149553 C80.7512036,37.5894376 80.6278166,37.6505074 80.4969516,37.6987354 C80.3657989,37.7469635 80.2142256,37.7709348 80.0422315,37.7709348 C79.9375395,37.7709348 79.8532682,37.7638005 79.7899928,37.7489611 C79.7261421,37.7341217 79.6775351,37.709865 79.6438841,37.6764764 C79.6102331,37.6430877 79.5837725,37.5948597 79.5653651,37.5315069 C79.5463825,37.4687249 79.5262494,37.3888205 79.5035278,37.2923645 L79.4923108,37.2253019 C79.4399648,36.9730323 79.4250088,36.7281824 79.4474428,36.4901814 C79.4695892,36.2527512 79.5150324,36.0190308 79.5820468,35.7887349 C79.6493488,35.5587244 79.7298811,35.3358482 79.8236438,35.1203917 C79.9168312,34.9052205 80.0085805,34.6937593 80.0986042,34.4860078 C80.2628326,34.0924786 80.4483446,33.7249184 80.6539896,33.3830417 C80.8596347,33.0417358 81.1311437,32.7335331 81.4679414,32.458719 C81.5501994,32.3919418 81.6324574,32.3348672 81.7147154,32.2863538 C81.7969734,32.2381258 81.9016655,32.2138691 82.0290791,32.2138691 C82.0362695,32.2284231 82.0437475,32.2398381 82.0515131,32.2472577 C82.0587035,32.2546774 82.0627301,32.2623825 82.0627301,32.2695168 L82.0627301,32.2917759 C81.9655161,32.7520823 81.8194075,33.2012592 81.6246918,33.6393065 L81.5015924,33.8844418 C81.4791584,33.9215403 81.4340027,33.9828955 81.3667007,34.0682219 C81.2993987,34.1538338 81.226632,34.2405872 81.1478254,34.3299089 C81.0693063,34.4189452 80.9945263,34.5005618 80.9234853,34.5747588 C80.8521567,34.6492411 80.801824,34.7011789 80.771912,34.7308577 L80.760695,34.7308577 L80.7382609,34.7197282 C80.7008709,34.7197282 80.6634809,34.740275 80.6260909,34.7810833 C80.5884133,34.8216063 80.5530366,34.8664098 80.5193856,34.9146378 C80.4857346,34.9628659 80.4575483,35.0110939 80.4351143,35.0593219 C80.4126802,35.1075499 80.4017509,35.1355164 80.4017509,35.1426508 C80.4164192,35.2171331 80.4538093,35.2896178 80.5136333,35.3598195 C80.5734573,35.430592 80.6444983,35.495657 80.7270439,35.5550145 C80.809302,35.6143721 80.8932857,35.6628855 80.9792827,35.6999839 C81.0655673,35.736797 81.145812,35.7553463 81.2208797,35.7553463 C81.3252841,35.7553463 81.4377417,35.7071183 81.5576774,35.6106622 C81.6770378,35.5142062 81.7989868,35.387786 81.9223738,35.2319725 C82.0457608,35.0761589 82.1654088,34.8997985 82.2816055,34.7028912 C82.3975145,34.5062693 82.5062332,34.3039399 82.6068986,34.0959031 C82.7081392,33.8881517 82.7961495,33.6878199 82.870642,33.4946225 C82.945422,33.3014251 83.0017946,33.1270623 83.0391846,32.9709633 C83.0619062,32.8747927 83.0653576,32.7800489 83.0504016,32.6870173 C83.0354456,32.5945565 83.0204896,32.5032372 83.0055336,32.4142009 L82.8933636,31.868568 L82.1075981,31.2781315 C82.0923545,31.2781315 82.0644558,31.2767047 82.0233268,31.2727094 C81.9821978,31.2689996 81.9393431,31.267002 81.8941875,31.267002 L81.7653357,31.267002 L81.6698474,31.267002 C81.5576774,31.267002 81.4659281,31.2727094 81.394887,31.283839 C81.323846,31.2949685 81.2694867,31.3229351 81.2320967,31.3674532 L80.895299,31.4450746 C80.880343,31.4530651 80.839214,31.4861683 80.771912,31.5455259 C80.7046099,31.6051688 80.6332813,31.6736583 80.5585013,31.7518505 C80.4837213,31.8294719 80.4126802,31.9039542 80.3453782,31.9744413 C80.2780762,32.0449284 80.2332082,32.095154 80.2104866,32.1245474 C79.9709029,32.4515847 79.7669835,32.7537946 79.5990161,33.0323185 C79.4307611,33.310557 79.2809134,33.5930761 79.1500484,33.8787344 C79.0188957,34.1649633 78.897522,34.4711684 78.7850644,34.7973496 C78.673182,35.1243869 78.5495073,35.495657 78.4146157,35.9114452 C78.3547916,36.0969376 78.3286186,36.3049744 78.3360966,36.5349849 C78.3435746,36.7652808 78.3697476,36.980452 78.4146157,37.1807837 C78.4448153,37.3368827 78.5046393,37.4964061 78.5940877,37.6599247 L78.5940877,37.6599247 Z M87.9108152,35.9633831 C87.9108152,35.6337774 87.87285,35.3041718 87.7969195,34.9648635 C87.7020064,34.5313821 87.5691281,34.2394457 87.3887932,34.0793515 C87.2751851,33.9943104 87.1897633,33.9380919 87.1236117,33.9095546 C87.0663763,33.7968324 86.9907334,33.7397578 86.8860414,33.7397578 C86.8290935,33.7397578 86.6677412,33.6929566 86.4109006,33.6079155 C86.15406,33.5234452 85.9357599,33.4763586 85.7548498,33.4763586 C85.3467234,33.4763586 84.948376,33.6270355 84.5595199,33.9189719 C84.1605973,34.2300284 83.9609922,34.578754 83.9609922,34.9648635 C83.9609922,35.3133037 84.1605973,35.4831006 84.5690112,35.4831006 C84.6256715,35.4831006 84.6826193,35.4831006 84.7398548,35.4736833 C84.7870237,35.3133037 84.824989,35.1814615 84.8439716,35.0872884 L84.948376,35.0402019 C84.97685,34.9177769 85.0050363,34.795352 85.0432891,34.6726417 C85.0812544,34.5502167 85.1853712,34.465461 85.3562147,34.4183744 C85.1192196,34.682059 84.9293934,35.0872884 84.7775324,35.6243601 C84.6446541,36.1046427 84.5782149,36.5475413 84.5782149,36.9527708 C84.5782149,37.6311021 84.7680411,38.0928354 85.1379146,38.328268 C85.3944676,38.4886475 85.640954,38.5734032 85.8785244,38.5734032 C86.15406,38.5734032 86.4488659,38.4318583 86.7626543,38.1396365 L87.4934852,37.3956695 C87.7779369,37.1505342 87.9203066,36.6699663 87.9203066,35.9633831 L87.9108152,35.9633831 Z M86.8958203,35.8597927 C86.8958203,36.6417144 86.648471,37.1882034 86.1445687,37.5083917 C86.0588593,37.5651809 85.9927077,37.5934329 85.9357599,37.5934329 C85.7548498,37.5934329 85.669428,37.4050868 85.669428,37.0283946 C85.669428,36.9339362 85.6789193,36.8300605 85.6979019,36.7079209 C86.3343949,36.6231651 86.6573871,36.321526 86.6573871,35.8035743 C86.6573871,35.6902813 86.6001516,35.4545633 86.4862559,35.0967057 C86.4387993,34.8327358 86.4198167,34.6352578 86.4198167,34.5125475 C86.581169,34.578754 86.7051312,34.7765174 86.790553,35.1158257 C86.857855,35.3792249 86.8958203,35.6337774 86.8958203,35.8692101 L86.8958203,35.8597927 Z M95.9905087,38.5071967 L95.8958832,38.2811814 L95.9433398,38.3094334 L95.9240695,38.0648688 C95.6867868,38.11167 95.468199,38.1870084 95.2688815,38.2811814 C95.1357155,38.3473879 95.069564,38.3847718 95.0597851,38.3847718 C95.0315988,38.3847718 94.9743633,38.3188507 94.8791626,38.1775911 L94.6893364,37.9044893 C94.4805275,37.6596394 94.309684,37.1979061 94.176518,36.5098721 C94.1290614,36.1614319 94.1002999,35.897462 94.0816049,35.7185332 C94.024657,35.1908788 93.9677092,34.7671001 93.9107613,34.4557583 C93.7111562,33.3348137 93.3884516,32.7694901 92.9512761,32.7694901 C92.6855195,32.7694901 92.3720186,33.1747195 92.0205525,33.9943104 C91.8114561,34.4748783 91.6216299,35.0116646 91.4507863,35.6052402 C91.336603,34.776232 91.1088115,34.2017764 90.7766157,33.8810174 L90.7288715,33.7023739 C90.5672316,33.7023739 90.4343533,33.7117912 90.3299489,33.7212086 C89.9882617,33.777427 89.7604703,33.9848931 89.6370832,34.3524533 C89.5801354,33.9848931 89.5042049,33.7212086 89.4187831,33.5514117 C89.2672097,33.2688926 89.048622,33.1273476 88.754679,33.1273476 C88.5743441,33.1273476 88.4032129,33.2688926 88.241573,33.560829 C88.2703346,33.5705317 88.2988085,33.579949 88.3272824,33.579949 C88.346265,33.579949 88.2133867,33.7494605 88.2133867,33.7494605 C88.346265,34.0037277 88.4696521,34.5502167 88.5930391,35.3889275 C88.631292,35.6902813 88.6974435,36.2741541 88.7926442,37.1505342 C88.8024232,37.1979061 88.8024232,37.2732445 88.8024232,37.3765495 C88.8024232,38.2152603 88.8495921,38.6864109 88.9347263,38.7900012 C89.048622,38.9124262 89.2289569,38.9692154 89.4757309,38.9692154 C89.7130137,38.9692154 89.874366,38.874757 89.9597878,38.6864109 C90.0072443,38.5639859 90.0357182,38.3659372 90.0357182,38.0928354 C90.0357182,37.7252751 90.0357182,37.5275117 90.0452096,37.4898425 C90.0926661,37.0283946 90.1780879,36.5475413 90.3014749,36.0387215 C90.3299489,36.1893984 90.3489315,36.3309433 90.3587104,36.4724883 C90.3682017,36.9621881 90.3868967,37.4521733 90.406167,37.9515758 C90.4628272,38.6864109 90.5959932,39.110475 90.804802,39.2328999 C90.9189853,39.2988211 91.0518637,39.327073 91.2037246,39.327073 C91.3555856,39.327073 91.4697689,39.2894037 91.5551907,39.2140653 C91.6409001,39.1384415 91.7070517,39.0065992 91.7639995,38.8182532 C91.8307263,38.5734032 91.8781829,38.4321437 91.9066568,38.3847718 C92.0395351,38.1305046 92.1344482,37.8008989 92.2008874,37.3956695 C92.2486316,37.0563611 92.2960881,36.7173382 92.3435447,36.3686126 C92.4669317,35.7562024 92.609589,35.228548 92.7807202,34.776232 C92.8373804,35.2567999 92.884837,35.5678563 92.9133109,35.7091159 C92.9230898,35.7373678 92.9417848,35.8127062 92.9797501,35.9448339 C93.0085116,36.0481388 93.0274942,36.1328946 93.0274942,36.1991011 C93.0274942,36.6417144 93.1318987,37.1034477 93.3312162,37.5840156 C93.52133,38.0457488 93.768104,38.4509783 94.0816049,38.8088359 C94.2334659,38.9692154 94.3568529,39.0822231 94.4425623,39.1481442 C94.5849319,39.1952307 94.7273016,39.2234826 94.8696712,39.2234826 C95.3732859,39.2234826 95.7532259,38.98805 96,38.5263167 L95.9905087,38.5071967 Z" id="Fill-14" fill="#4D4E4C"></path>
                <path d="M22.9904325,34.4400817 C22.9904325,34.1164483 22.9521624,33.7930639 22.8756222,33.4602123 C22.7796884,33.0351786 22.6454845,32.7486671 22.463443,32.5914595 C22.3483742,32.5082465 22.2620079,32.4526882 22.1950352,32.4250336 C22.1376301,32.3144153 22.0608313,32.2588569 21.95533,32.2588569 C21.8976663,32.2588569 21.7345013,32.212766 21.4751438,32.129553 C21.2157864,32.0463401 20.9949577,32 20.812399,32 C20.4002198,32 19.9976081,32.1479894 19.604564,32.434501 C19.2016937,32.7394489 19,33.0812696 19,33.4602123 C19,33.8022821 19.2016937,33.9684588 19.6141315,33.9684588 C19.6717952,33.9684588 19.7292003,33.9684588 19.7868641,33.9592406 C19.8347017,33.8022821 19.8729717,33.6729782 19.8923654,33.5805471 L19.9976081,33.534207 C20.0263107,33.4141213 20.0550133,33.2940356 20.0932833,33.1739499 C20.131812,33.053615 20.2373133,32.9706513 20.4097873,32.9243111 C20.1700821,33.1831681 19.9784731,33.5805471 19.8251341,34.1072301 C19.6909302,34.578853 19.6239576,35.0131048 19.6239576,35.410733 C19.6239576,36.075938 19.8155666,36.5288754 20.1892171,36.7600777 C20.4480574,36.9170362 20.6973301,37 20.9372939,37 C21.2157864,37 21.5136725,36.861727 21.8306936,36.5749664 L22.5686858,35.8449848 C22.8562286,35.6045643 23,35.1331905 23,34.4400817 L22.9904325,34.4400817 Z M21.9648975,34.3384324 C21.9648975,35.1055359 21.7153662,35.641437 21.2062189,35.9558523 C21.1198526,36.0114106 21.0526214,36.0390652 20.9949577,36.0390652 C20.812399,36.0390652 20.7260327,35.854203 20.7260327,35.4842294 C20.7260327,35.3917983 20.7356002,35.2903981 20.7547353,35.1703124 C21.3978279,35.0870995 21.7238994,34.7911206 21.7238994,34.2828741 C21.7238994,34.1720066 21.6664943,33.9408042 21.5514254,33.5897653 C21.5035878,33.3309084 21.4841942,33.1368279 21.4841942,33.0167422 C21.6471007,33.0812696 21.7719956,33.27535 21.858879,33.6082017 C21.9263689,33.8670586 21.9648975,34.1164483 21.9648975,34.3476506 L21.9648975,34.3384324 Z" id="Fill-16" fill="#4D4E4C"></path>
                <path d="M102.14086,36.9404415 C102.187776,37.0822675 102.251113,37.2338441 102.330871,37.3945802 C102.41063,37.5553164 102.507102,37.7068929 102.619701,37.8487189 C102.732594,37.9908404 102.863667,38.1063695 103.014093,38.1964881 C103.164226,38.2863113 103.333126,38.3312228 103.521085,38.3312228 C103.736901,38.3312228 103.892019,38.2650374 103.985852,38.1326664 C104.079392,38.0002955 104.159443,37.8487189 104.225126,37.6785277 C104.225126,37.5934321 104.255622,37.4914947 104.316906,37.3733063 C104.377898,37.255118 104.403702,37.1723861 104.394319,37.1251108 C104.384935,37.0872905 104.370567,37.051834 104.352094,37.0187413 C104.333327,36.9853531 104.300192,36.9593517 104.253569,36.9404415 L104.014295,37.1251108 L103.929845,37.1251108 C103.788509,37.1251108 103.678255,37.1558398 103.598497,37.2172977 C103.518739,37.2790511 103.455109,37.3094846 103.408485,37.3094846 C103.333126,37.3094846 103.276826,37.2054789 103.239586,36.9971719 C103.154843,36.6095142 103.148099,36.2215609 103.218473,35.8336077 C103.288848,35.4456545 103.356584,35.0766114 103.422267,34.7267739 C103.422267,34.6794985 103.43165,34.5944029 103.45071,34.4711916 C103.469184,34.3485712 103.488243,34.2773627 103.50701,34.2581571 L103.760359,33.3498797 L103.802877,33.0662277 L104.098745,32.3281415 L104.098745,32.2430459 C104.089068,32.2055211 104.056227,32.1626778 103.999927,32.115107 C103.943334,32.0681271 103.884688,32.0229201 103.82399,31.9803723 C103.762705,31.9378245 103.704059,31.8979359 103.648053,31.8598202 C103.59146,31.8222954 103.553633,31.7939302 103.53516,31.7747246 C103.5161,31.7652695 103.47886,31.760542 103.422267,31.760542 L103.281811,31.760542 L103.154843,31.760542 C103.098543,31.760542 103.070393,31.7652695 103.070393,31.7747246 L102.915569,31.9590984 L102.690076,32.612089 L102.619701,32.6971846 C102.582168,32.6782745 102.502117,32.6596598 102.380134,32.6401587 C102.258151,32.621544 102.178393,32.612089 102.14086,32.612089 C101.915367,32.612089 101.713333,32.7042759 101.535343,32.8886497 C101.356767,33.073319 101.197251,33.2955131 101.056501,33.5558229 C100.915459,33.8161327 100.788784,34.0879659 100.676184,34.3719134 C100.563291,34.6558609 100.464767,34.8969651 100.380317,35.095817 C100.333107,35.1900722 100.286484,35.2920096 100.239567,35.4007429 C100.192358,35.5094762 100.14808,35.6205732 100.105855,35.7343295 C100.063337,35.8477903 100.032842,35.9636149 100.014075,36.0820987 C99.9953083,36.200287 99.9953083,36.3208391 100.014075,36.443755 L100.042518,36.5713984 L100.309942,36.9404415 C100.412865,37.0447427 100.499954,37.1203833 100.570622,37.1676586 C100.640997,37.2152294 100.737176,37.2385716 100.859159,37.2385716 C100.981142,37.2385716 101.098433,37.2128656 101.211326,37.1605673 C101.323926,37.1085644 101.429488,37.0447427 101.528012,36.9691022 C101.62683,36.8934617 101.718611,36.8107298 101.803061,36.7206112 C101.88751,36.6307881 101.966975,36.5480562 102.042335,36.4721202 L102.14086,36.9404415 Z M102.323834,33.889114 L102.352277,33.9886877 C102.361367,34.0167574 102.335563,34.0808746 102.274572,34.1801528 C102.21358,34.279431 102.14086,34.3884598 102.05641,34.5066481 C101.97196,34.6251319 101.877834,34.745684 101.774617,34.8683044 C101.671108,34.9915158 101.58226,35.095817 101.507193,35.1809126 C101.516283,35.0766114 101.553817,34.9516272 101.619793,34.8044827 C101.685183,34.6579292 101.758197,34.5161032 101.837955,34.3790047 C101.917713,34.2419062 101.995125,34.1257862 102.070485,34.0312355 C102.145551,33.9366848 102.196866,33.889114 102.225309,33.889114 L102.323834,33.889114 Z M110.32574,36.9894897 C110.32574,36.8045249 110.141593,36.7067241 109.764208,36.7067241 C109.61906,36.7067241 109.483295,36.7262251 109.3575,36.7652273 C109.076588,36.3167025 108.89244,35.5656156 108.805645,34.5116711 C108.756969,33.9171837 108.660203,33.4778186 108.505379,33.195053 C108.476056,33.1365497 108.41829,33.068296 108.330908,32.9805411 C108.321525,32.8729897 108.302172,32.7952809 108.272849,32.7465282 C108.21479,32.6977755 108.157024,32.6490228 108.098378,32.5999747 C108.011583,32.4927188 107.924494,32.3952134 107.837112,32.2974125 C107.750023,32.1999071 107.604875,32.1511544 107.401375,32.1511544 C107.111079,32.1511544 106.859195,32.3367101 106.655695,32.6977755 C106.549253,32.8830358 106.423458,33.1853024 106.27831,33.6146216 C106.27831,33.3705627 106.27831,33.1267992 106.268634,32.8830358 C106.258957,32.5219704 106.229928,32.2974125 106.181545,32.1999071 L106.007661,32.1706555 C105.949308,32.1124478 105.891542,32.0536491 105.833483,32.0048964 C105.775424,31.9561437 105.688335,31.9268921 105.5816,31.9268921 C105.359626,31.9268921 105.204508,32.0146469 105.11742,32.1999071 C105.098067,32.2392048 105.08839,32.3659618 105.08839,32.5804736 C105.08839,33.4095648 105.11742,34.0046431 105.175772,34.365413 C105.243215,34.6679752 105.301274,34.8922376 105.33998,35.0384956 L105.456098,36.1603985 C105.54348,36.6774725 105.678365,36.9894897 105.872189,37.0970411 C105.958985,37.1454983 106.075103,37.1652948 106.210575,37.1652948 C106.394722,37.1652948 106.530193,37.1165421 106.626959,37.0089908 C106.723724,36.9017348 106.781783,36.6677219 106.810813,36.3066565 C106.830166,36.0531425 106.849812,35.7996286 106.878549,35.5458191 C106.936608,35.3508083 106.985284,35.2045503 107.033666,35.1167954 C107.072079,34.9607868 107.130432,34.6972268 107.207551,34.3169558 C107.275873,33.9753915 107.333639,33.7118315 107.391698,33.5265713 C107.498433,33.9071377 107.566169,34.1999493 107.585229,34.4047106 C107.846788,35.5266135 107.982553,36.1896501 107.982553,36.3947069 C107.982553,36.5702165 108.040612,36.7554768 108.157024,36.9410325 C108.350554,37.2432991 108.44732,37.4090583 108.456996,37.4386054 C108.505379,37.5260648 108.563438,37.594614 108.631174,37.6433667 C108.660203,37.6726183 108.737616,37.7116204 108.863704,37.7603731 C108.87338,37.7603731 108.941116,37.7896248 109.066911,37.8578785 C109.154,37.8968807 109.221736,37.9166772 109.280088,37.9166772 C109.347824,37.9166772 109.434912,37.9069267 109.541354,37.8776751 C109.570677,37.8289224 109.715825,37.7018699 109.987061,37.4971086 C110.228975,37.3115529 110.345093,37.1555443 110.345093,37.0190368 L110.32574,36.9894897 Z M116,35.5662066 C115.815853,35.4976573 115.680381,35.4583597 115.583616,35.4583597 C115.476881,35.4583597 115.360762,35.4879068 115.225291,35.5561606 C115.089526,35.6244143 114.905672,35.6926681 114.673142,35.7709679 C114.440612,35.8489722 114.247375,35.9464776 114.092257,36.0732346 L113.62749,36.453801 C113.666196,36.1414883 113.685549,35.9659786 113.685549,35.9269765 C113.685549,35.8587227 113.685549,35.7612173 113.675873,35.6244143 L113.675873,35.3218522 C113.675873,35.2145963 113.675873,35.0585876 113.685549,34.8437803 C113.695226,34.629564 113.695226,34.4732599 113.695226,34.366004 C113.695226,34.2002448 113.685549,33.9561859 113.675873,33.6344181 C113.666196,33.3123549 113.65652,33.0685914 113.65652,32.9025368 C113.65652,32.7757798 113.666196,32.5804736 113.685549,32.3071631 C113.705196,32.0344435 113.714872,31.8391372 113.714872,31.7123802 C113.714872,31.2343084 113.540695,31 113.182663,31 C112.88269,31 112.689453,31.126757 112.602364,31.3805665 L111.885128,33.6243721 C111.856098,33.7511291 111.826775,33.8781816 111.798039,34.0046431 C111.749656,34.1901988 111.701274,34.3075007 111.662274,34.3562534 L111.536186,34.5025115 C111.49748,34.5512642 111.478127,34.6198134 111.478127,34.7072728 C111.478127,34.8343253 111.429744,34.9805833 111.322716,35.146638 C111.274627,34.8437803 111.245597,34.6198134 111.23592,34.4732599 C111.26495,34.4242117 111.284596,34.3562534 111.284596,34.2779537 C111.284596,34.2294964 111.274627,34.1514921 111.245597,34.0536913 C111.216274,33.9561859 111.206598,33.8781816 111.206598,33.8294289 C111.206598,33.604871 111.225951,33.4391119 111.274627,33.331856 C111.352039,33.2636022 111.391038,33.1660968 111.391038,33.0487949 C111.391038,32.9902917 111.381362,32.9122874 111.361715,32.8144865 C111.342362,32.7172766 111.332686,32.6389768 111.332686,32.5902241 C111.332686,32.5024693 111.352039,32.3854628 111.391038,32.2294542 C111.429744,32.0731501 111.448804,31.9561437 111.448804,31.8781394 C111.448804,31.5173695 111.26495,31.3318138 110.887859,31.3318138 C110.723357,31.3318138 110.597563,31.3610654 110.510474,31.4195686 C110.365326,31.52712 110.259177,31.907391 110.191148,32.5609725 C110.142766,33.0097927 110.113736,33.458613 110.113736,33.9171837 C110.113736,35.7027141 110.52015,36.5903086 111.323009,36.5903086 C111.448804,36.5903086 111.574892,36.5610569 111.691011,36.5025537 C111.807716,36.4440505 111.972217,36.2295386 112.17601,35.8681778 C112.331128,35.5854122 112.456923,35.3318982 112.553981,35.0975898 C112.553981,35.2145963 112.553981,35.4294036 112.563658,35.7514668 C112.573041,36.0342324 112.573041,36.2487442 112.573041,36.4050483 C112.573041,36.4342999 112.573041,36.4928032 112.563658,36.5708075 C112.553981,36.6488118 112.553981,36.707315 112.553981,36.7466126 C112.553981,36.844118 112.563658,36.9903761 112.573041,37.1756363 C112.582718,37.361192 112.592688,37.5074501 112.592688,37.6049555 C112.592688,37.8097168 112.563658,37.9660209 112.505599,38.0635262 C112.350188,38.3170402 112.20504,38.7271538 112.078952,39.2832299 C112.049922,39.5074923 112.030569,39.683002 112.030569,39.8003039 C111.905067,40.4925921 111.847301,41.2540205 111.847301,42.0828163 C111.847301,42.7854459 111.895684,43.3415221 112.001833,43.7418851 L112.098598,44.2489131 C112.146981,44.4731755 112.195363,44.6291841 112.243746,44.7172344 C112.350188,44.9024946 112.505012,45 112.70822,45 C112.94984,45 113.12431,44.8829935 113.230459,44.6392301 C113.298488,44.4731755 113.346871,44.0536069 113.375607,43.3808197 C113.414313,42.551433 113.443636,42.0828163 113.453313,41.9658098 C113.462989,41.9173526 113.462989,41.878055 113.462989,41.8390528 C113.462989,41.7903001 113.453313,41.7220463 113.443636,41.624541 C113.433959,41.5267401 113.42399,41.4584863 113.42399,41.4097337 C113.42399,41.2540205 113.433959,41.0197121 113.453313,40.7073994 C113.472959,40.3950867 113.482342,40.1610738 113.482342,40.0050652 C113.482342,39.9657676 113.472959,39.9075598 113.462989,39.8292601 C113.453313,39.7515512 113.443636,39.6927525 113.443636,39.6540458 C113.443636,39.6147482 113.453313,39.5659955 113.482342,39.5074923 C113.530725,39.3807353 113.559461,39.1369718 113.569431,38.7661559 C113.579107,38.3267908 113.588784,38.0540712 113.598461,37.9465198 L113.62749,37.9367692 C113.695226,37.8685155 113.743609,37.7807606 113.782315,37.6732092 C113.821314,37.5659533 113.888757,37.4681525 113.976139,37.3901482 C114.159993,37.1951374 114.295464,37.0488793 114.37317,36.9416234 C114.479611,36.8048204 114.634436,36.6585623 114.837936,36.5025537 C115.070173,36.3367946 115.254321,36.2389937 115.390085,36.2097421 C115.612352,36.1609894 115.748117,36.1024862 115.7965,36.0439829 C115.815853,36.0147313 115.854559,35.8779283 115.912911,35.6341649 L116,35.5662066 Z" id="Fill-18" fill="#4D4E4C"></path>
                <path d="M97.6096117,41.9054091 C97.7265473,41.9553235 97.8536759,41.9867511 97.9909974,42 C98.0849989,41.980897 98.1552169,41.9420746 98.2016514,41.8841493 C98.2478028,41.8256077 98.2775322,41.7584389 98.2908396,41.6823348 C98.304147,41.6065389 98.3078278,41.5279699 98.3013157,41.4481684 C98.2953698,41.3677508 98.2877251,41.2999658 98.2780984,41.2448134 L98.2141094,40.0105101 C98.2126938,40.0024991 98.2098624,39.9763095 98.2061816,39.9325573 C98.2025008,39.888189 98.207031,39.8607669 98.2203385,39.8499829 L98.1866451,39.7834303 L98.1569157,39.4106128 L98.1586146,39.422013 C98.145024,39.2540911 98.143042,39.0889421 98.153235,38.9281068 C98.1631448,38.7669634 98.1705063,38.6125984 98.1756028,38.465012 L98.1744702,38.1963369 C98.1727714,38.098973 98.1713557,37.9908251 98.1699401,37.8731256 C98.1688075,37.7551181 98.2078804,37.6879493 98.2880082,37.6722355 L98.6759061,37.6426566 C98.6886473,37.6728518 98.7891609,37.6688463 98.9774471,37.6306402 C99.0785271,37.6106128 99.1903662,37.5838069 99.3121152,37.5508388 C99.4338641,37.5181787 99.5496672,37.4827456 99.6592413,37.4442314 C99.7688153,37.4057172 99.8599855,37.3687436 99.9327517,37.3342349 C100.005518,37.2991099 100.043175,37.2689148 100.046573,37.2439575 C100.054218,37.2014379 100.088477,37.1703184 100.148502,37.1496748 C100.20881,37.1296474 100.238257,37.1154742 100.236841,37.1077713 L100.225799,37.1099281 C100.343867,36.9229031 100.461086,36.7423485 100.577455,36.5682643 C100.694107,36.393872 100.784428,36.2311879 100.848134,36.079596 L100.833694,36.05772 C100.872484,35.9360151 100.907593,35.8007532 100.938455,35.651318 C100.969317,35.5028073 100.98857,35.3518316 100.996498,35.1993153 C101.004143,35.0474153 100.999329,34.897672 100.981492,34.7497775 C100.963937,34.6028073 100.933358,34.4684697 100.890605,34.3464567 L100.495628,33.5456693 C100.454573,33.4806573 100.407006,33.4208833 100.352644,33.3666553 L100.167472,33.2695995 L99.5035159,33 L99.0255804,33.0961315 L98.6863822,33.3481684 L98.5867179,33.4902088 C98.5326387,33.5669291 98.4694991,33.6485793 98.3984317,33.7360835 C98.3270812,33.8238959 98.2630922,33.9086272 98.2053322,33.989353 C98.1478554,34.0700787 98.1031197,34.1464909 98.0702758,34.2182814 C98.037715,34.29038 98.0323354,34.3483054 98.0549864,34.3926737 C98.0578178,34.4083875 98.0561189,34.4210202 98.0504562,34.4302636 L98.0357331,34.5430332 C98.033468,34.4869565 98.0275221,34.4391989 98.017046,34.4003766 C98.0065699,34.3618624 97.9949613,34.3270455 97.9825033,34.2971585 L97.9340868,34.209038 L97.9210625,34.1994865 L97.7358909,34.1024307 L97.5725207,34.0007532 C97.5323153,33.9844231 97.4861639,33.9671688 97.434633,33.9492982 C97.3825357,33.9311195 97.304673,33.9246491 97.2007617,33.9289627 C97.0617414,34.0386511 96.994921,34.152037 97.0003006,34.2691202 C97.005114,34.3865115 97.0144575,34.5088326 97.0288975,34.6360835 L97.0475845,34.8767203 C97.0744825,35.1244437 97.0869406,35.3727833 97.0846755,35.6217391 C97.0821273,35.8710031 97.0764645,36.1267374 97.0691029,36.3892503 C97.0911876,36.9148922 97.1121398,37.4340637 97.1319594,37.9476891 C97.1523453,38.4613146 97.166219,38.9826429 97.1738637,39.5110579 L97.1987797,40.9120507 C97.2030268,41.0254365 97.2123703,41.1335844 97.226244,41.2368025 C97.2398346,41.3400205 97.263335,41.4453954 97.2967452,41.552619 C97.3219444,41.6130092 97.3440291,41.6536802 97.362433,41.6743239 C97.4102832,41.7784663 97.4926761,41.8558028 97.6096117,41.9054091 L97.6096117,41.9054091 Z M99.545137,33.9699418 C99.5522155,33.9684012 99.5808123,33.9810339 99.6303613,34.0075317 C99.6799103,34.0343376 99.7362546,34.0679219 99.799111,34.1079767 C99.8622506,34.1483396 99.92086,34.1957891 99.9749392,34.249709 C100.029018,34.3042451 100.068091,34.3575488 100.092158,34.40962 C100.149352,34.5692229 100.164075,34.778432 100.137177,35.0366313 C100.109712,35.2951387 100.04091,35.5514892 99.9307698,35.805683 C99.8206294,36.0601849 99.6685848,36.290962 99.4754853,36.4967819 C99.2818195,36.7032181 99.0513459,36.833242 98.7834982,36.8871619 C98.7180935,36.9004108 98.6526888,36.911811 98.5867179,36.9207463 C98.5210301,36.9302978 98.4581736,36.9364601 98.398998,36.9404656 C98.405227,36.800582 98.4049439,36.6231085 98.3984317,36.4083533 C98.3916364,36.1939062 98.4165525,35.9545019 98.4728968,35.6901404 C98.5289579,35.4263951 98.6351343,35.1481684 98.791426,34.8554605 C98.9474346,34.5630606 99.187818,34.2703526 99.5125763,33.9764122 L99.545137,33.9699418 Z" id="Fill-20" fill="#4D4E4C"></path>
                <path d="M77,34.7777551 C77,34.6944706 76.9442123,34.6389477 76.832355,34.6019323 C76.1905142,34.7777551 75.7067387,34.8983353 75.3810284,34.9631121 L74.0598732,35.3795345 C74.0505753,35.2777424 74.0412773,35.1574426 74.0412773,35.0183547 C74.0412773,34.9538583 74.0412773,34.8520662 74.0505753,34.7132587 C74.0598732,34.5741709 74.0598732,34.4723787 74.0598732,34.4076019 C74.0598732,34.0834374 74.0505753,33.6019578 74.0226814,32.9539093 C73.9947875,32.3058608 73.9854896,31.8243812 73.9854896,31.5002167 C73.9854896,31.4536671 73.9761916,31.3799169 73.9575957,31.2781248 C73.9392815,31.1760522 73.9299836,31.1020216 73.9299836,31.0560328 C73.9299836,30.9629337 73.9392815,30.8241262 73.9482977,30.6390496 C73.9575957,30.453973 73.9668936,30.3151656 73.9668936,30.2223469 C73.9668936,29.4077294 73.7626203,29 73.3625264,29 C73.2326368,29 73.1024654,29.0372957 72.972294,29.1113264 C72.8235266,29.1946109 72.7305471,29.2874296 72.6933552,29.3981951 C72.6747593,29.4444643 72.6654614,29.5187753 72.6654614,29.6298213 C72.6654614,29.972213 72.7026532,30.4259311 72.7863348,30.9906952 C72.8795961,31.6667856 72.9351021,32.1202233 72.9444001,32.3521299 C72.9815919,33.213297 73.0097676,33.8518113 73.0187838,34.2777679 C73.0655553,34.8795473 73.0841512,35.2592347 73.0841512,35.4165498 C73.0841512,35.5741454 73.0745715,35.6851913 73.0562573,35.7409947 C73.0469594,35.7684758 72.8610002,35.8147449 72.4978164,35.8798022 C72.0608124,35.9630866 71.7348204,36.0460907 71.5212491,36.1296556 C71.1769429,36.2592092 71,36.4257782 71,36.6296428 C71,36.8797767 71.167645,37.0000765 71.4930735,37.0000765 C71.7072083,37.0000765 71.9675511,36.9630612 72.2653675,36.8797767 L73.0283635,36.6574043 C73.0469594,36.9812884 73.0562573,37.3520024 73.0562573,37.7684248 C73.0562573,38.0460397 73.0562573,38.3334693 73.0469594,38.6295919 C73.0469594,38.6943687 73.0376614,38.8146685 73.0283635,38.9812374 C73.0190655,39.1480868 73.0097676,39.2779208 73.0097676,39.3612053 C73.0097676,39.5740434 73.0283635,39.7221047 73.0655553,39.8056696 C73.130641,39.9352232 73.2512327,40 73.4278939,40 C73.5673632,40 73.6696408,39.9627043 73.7440244,39.888954 C73.8553181,39.7686542 73.9392815,39.2036098 73.9947875,38.1943814 C74.0131017,37.5645601 74.0319793,36.9350192 74.0598732,36.3054784 L75.3438366,35.7222066 L76.0975346,35.462819 C76.3299836,35.3795345 76.5720122,35.2407271 76.8230571,35.0463966 C76.9349143,34.9631121 76.990702,34.8888011 76.990702,34.8240243 L77,34.7777551 Z" id="Fill-22" fill="#4D4E4C"></path>
            </g>
        </g>
    </g>
</svg>