<svg width="41" height="40" viewBox="0 0 41 40" fill="none" xmlns="http://www.w3.org/2000/svg">
<path fill-rule="evenodd" clip-rule="evenodd" d="M0.819458 20C0.819458 8.97217 9.79076 0 20.8195 0C31.8482 0 40.8195 8.97217 40.8195 20C40.8195 31.0278 31.8482 40 20.8195 40C9.79076 40 0.819458 31.0278 0.819458 20ZM2.55865 20.0001C2.55865 30.0697 10.7508 38.261 20.8195 38.261C30.8882 38.261 39.0804 30.0697 39.0804 20.0001C39.0804 9.93056 30.8882 1.73926 20.8195 1.73926C10.7508 1.73926 2.55865 9.93056 2.55865 20.0001Z" fill="black"/>
<path d="M31.0416 12.2222C30.5501 12.2222 30.1527 12.637 30.1527 13.1481C30.1527 14.6796 28.9563 15.9259 27.4861 15.9259C26.0158 15.9259 24.8194 14.6796 24.8194 13.1481C24.8194 12.637 24.4221 12.2222 23.9305 12.2222C23.439 12.2222 23.0416 12.637 23.0416 13.1481C23.0416 15.7009 25.0354 17.7777 27.4861 17.7777C29.9367 17.7777 31.9305 15.7009 31.9305 13.1481C31.9305 12.637 31.5332 12.2222 31.0416 12.2222Z" fill="black"/>
<path d="M14.1528 17.7777C16.6035 17.7777 18.5973 15.7009 18.5973 13.1481C18.5973 12.637 18.1999 12.2222 17.7084 12.2222C17.2168 12.2222 16.8195 12.637 16.8195 13.1481C16.8195 14.6796 15.6231 15.9259 14.1528 15.9259C12.6826 15.9259 11.4862 14.6796 11.4862 13.1481C11.4862 12.637 11.0888 12.2222 10.5973 12.2222C10.1057 12.2222 9.70837 12.637 9.70837 13.1481C9.70837 15.7009 11.7022 17.7777 14.1528 17.7777Z" fill="black"/>
<path fill-rule="evenodd" clip-rule="evenodd" d="M13.9819 21.1113H27.6571C30.0135 21.1113 31.9306 23.1051 31.9306 25.5558C31.9306 28.0064 30.0135 30.0002 27.6571 30.0002H13.9819C11.6255 30.0002 9.70837 28.0064 9.70837 25.5558C9.70837 23.1051 11.6255 21.1113 13.9819 21.1113ZM13.9818 28.2225H27.657C29.0707 28.2225 30.2211 27.026 30.2211 25.5558C30.2211 24.0856 29.0707 22.8892 27.657 22.8892H13.9818C12.5682 22.8892 11.4177 24.0856 11.4177 25.5558C11.4177 27.026 12.5682 28.2225 13.9818 28.2225Z" fill="black"/>
</svg>
