<svg width="41" height="40" viewBox="0 0 41 40" fill="none" xmlns="http://www.w3.org/2000/svg"><path fill-rule="evenodd" clip-rule="evenodd" d="M.82 20c0-11.028 8.97-20 20-20 11.028 0 20 8.972 20 20s-8.972 20-20 20c-11.03 0-20-8.972-20-20zm1.739 0c0 10.07 8.192 18.261 18.26 18.261 10.07 0 18.261-8.191 18.261-18.26 0-10.07-8.192-18.262-18.26-18.262C10.75 1.74 2.559 9.931 2.559 20z" fill="#000"/><path d="M31.042 12.222c-.492 0-.89.415-.89.926 0 1.532-1.196 2.778-2.666 2.778s-2.667-1.246-2.667-2.778c0-.511-.397-.926-.889-.926-.491 0-.888.415-.888.926 0 2.553 1.993 4.63 4.444 4.63 2.45 0 4.444-2.077 4.444-4.63 0-.511-.397-.926-.888-.926zm-16.889 5.556c2.45 0 4.444-2.077 4.444-4.63 0-.511-.397-.926-.889-.926-.491 0-.888.415-.888.926 0 1.532-1.197 2.778-2.667 2.778-1.47 0-2.667-1.246-2.667-2.778 0-.511-.397-.926-.889-.926-.491 0-.889.415-.889.926 0 2.553 1.994 4.63 4.445 4.63z" fill="#000"/><path fill-rule="evenodd" clip-rule="evenodd" d="M13.982 21.111h13.675c2.357 0 4.274 1.994 4.274 4.445 0 2.45-1.918 4.444-4.274 4.444H13.982c-2.356 0-4.274-1.994-4.274-4.444s1.918-4.445 4.274-4.445zm0 7.111h13.675c1.414 0 2.564-1.196 2.564-2.666s-1.15-2.667-2.564-2.667H13.982c-1.414 0-2.564 1.197-2.564 2.667 0 1.47 1.15 2.666 2.564 2.666z" fill="#000"/></svg>