<?xml version="1.0" encoding="UTF-8"?>
<svg width="60px" height="60px" viewBox="0 0 60 60" version="1.1" xmlns="http://www.w3.org/2000/svg" xmlns:xlink="http://www.w3.org/1999/xlink">
    <!-- Generator: Sketch 55 (78076) - https://sketchapp.com -->
    <title>Icon/Facebook</title>
    <desc>Created with Sketch.</desc>
    <g id="Icon/Facebook" stroke="none" stroke-width="1" fill="none" fill-rule="evenodd">
        <g id="facebook" transform="translate(23.000000, 19.000000)" fill="#292929" fill-rule="nonzero">
            <path d="M11.2420061,0.230769231 L8.53321342,0.230769231 C6.31617818,0.230769231 4.51243255,2.00816497 4.51243255,4.19281279 L4.51243255,7.19559314 L1.98889006,7.19559314 C1.35771876,7.19559314 0.846153846,7.69968489 0.846153846,8.32163577 C0.846153846,8.94358665 1.35771876,9.44767841 1.98889006,9.44767841 L4.51243255,9.44767841 L4.51243255,19.8739574 C4.51243255,20.4959082 5.02399746,21 5.65516877,21 C6.28634007,21 6.79790498,20.4959082 6.79790498,19.8739574 L6.79790498,9.44767841 L10.7022537,9.44767841 C11.333425,9.44767841 11.8449899,8.94358665 11.8449899,8.32163577 C11.8449899,7.69968489 11.333425,7.19559314 10.7022537,7.19559314 L6.79790498,7.19559314 L6.79790498,4.19281279 C6.79790498,3.24993976 7.57636229,2.48285449 8.53321342,2.48285449 L11.2418792,2.48285449 C11.8730505,2.48285449 12.3846154,1.97876274 12.3846154,1.35681186 C12.3846154,0.734860982 11.8730505,0.230769231 11.2420061,0.230769231 Z" id="Path"></path>
        </g>
        <path d="M30,10 C18.9721739,10 10,18.9721739 10,30 C10,41.0278261 18.9721739,50 30,50 C41.0286957,50 50,41.0278261 50,30 C50,18.9721739 41.0286957,10 30,10 Z M30,48.2608696 C19.9304348,48.2608696 11.7391304,40.0695652 11.7391304,30 C11.7391304,19.9304348 19.9304348,11.7391304 30,11.7391304 C40.0686957,11.7391304 48.2608696,19.9304348 48.2608696,30 C48.2608696,40.0695652 40.0686957,48.2608696 30,48.2608696 Z" id="Shape" fill="#292929" fill-rule="nonzero"></path>
    </g>
</svg>