<svg width="40" height="40" viewBox="0 0 40 40" version="1.1" xmlns="http://www.w3.org/2000/svg"><g id="Symbols" stroke="none" stroke-width="1" fill="none" fill-rule="evenodd"><g id="Icon/Coffee" transform="translate(-10 -10)" fill="#292929" fill-rule="nonzero"><g id="Group" transform="translate(10 10)"><g id="coffee-cup" transform="translate(10 10)"><path d="M17.968 17.374h-4.27c1.088-.408 1.92-.987 2.554-1.689C18.84 15.317 20 13.311 20 11.465c0-1.311-.779-2.405-1.787-2.597v-.03a.629.629 0 0 0-.21-.46.715.715 0 0 0-.49-.196H1.401a.715.715 0 0 0-.49.197.629.629 0 0 0-.21.46c.027 3.53.683 7.1 4.515 8.535H.911c-.49 0-.911.36-.911.853 0 .394.28.69.77.788l4.449.296c.105 0 .21.065.245.164.175.328.525.525.91.525h5.815c.385 0 .736-.197.876-.525a.263.263 0 0 1 .245-.164l4.764-.296h.035c.49-.098.77-.394.77-.788 0-.46-.385-.853-.91-.853zm.246-7.813c.595.197 1.05.984 1.05 1.904 0 1.279-.63 2.82-2.377 3.38l.086-.141c.973-1.582 1.173-3.486 1.24-5.143zM1.4 8.838h16.112c-.035 4.432-1.05 8.536-8.056 8.536-7.005 0-8.02-4.104-8.056-8.536zm16.638 9.52l-4.694.296c-.35.033-.665.23-.84.525-.07.099-.176.164-.28.164h-5.85a.36.36 0 0 1-.28-.164 1.097 1.097 0 0 0-.841-.525l-4.378-.295C.7 18.326.7 18.26.7 18.227c0-.098.105-.197.21-.197h17.092c.106 0 .21.099.21.197 0 .033 0 .099-.174.132z" id="Shape"/><path d="M9.227 2.934c-.682.53-1.045 1.061-1.045 1.627 0 .565.363 1.13 1.045 1.697.091.07.182.106.318.106a.475.475 0 0 0 .319-.106c.181-.142.181-.354 0-.495-.5-.425-.773-.814-.773-1.202 0-.39.273-.778.773-1.132.681-.495 1.045-1.06 1.045-1.626 0-.566-.318-1.167-1.045-1.697a.53.53 0 0 0-.637 0c-.182.141-.182.354 0 .495.5.424.773.813.773 1.202s-.273.778-.773 1.131zm2.591 1.626c0 .566.364 1.132 1.046 1.698.09.07.181.106.318.106.09 0 .227-.036.273-.106.181-.142.181-.354 0-.495-.5-.425-.773-.813-.773-1.202 0-.39.273-.778.773-1.132.727-.495 1.09-1.06 1.09-1.626 0-.601-.318-1.167-1.045-1.697a.53.53 0 0 0-.636 0c-.182.141-.182.354 0 .495.5.424.772.813.772 1.202s-.272.742-.772 1.131c-.682.53-1.046 1.061-1.046 1.627zm-7.273 0c0 .566.364 1.132 1.046 1.698.09.07.182.106.318.106.091 0 .227-.036.273-.106.182-.142.182-.354 0-.495-.5-.425-.773-.813-.773-1.202 0-.39.273-.778.773-1.132.727-.495 1.09-1.06 1.09-1.626 0-.601-.317-1.167-1.045-1.697a.53.53 0 0 0-.636 0c-.182.141-.182.354 0 .495.5.424.773.813.773 1.202s-.273.742-.773 1.131c-.682.53-1.046 1.061-1.046 1.627zm3.341 11.122c-2.577-.408-3.883-1.77-4.427-4.495-.037-.17-.254-.307-.436-.273-.181.034-.326.239-.29.409.58 3.031 2.14 4.564 5.008 5.04h.072c.182 0 .327-.102.363-.272a.355.355 0 0 0-.29-.409z" id="Path"/></g><path d="M20 0C8.972 0 0 8.972 0 20s8.972 20 20 20c11.029 0 20-8.972 20-20S31.029 0 20 0zm0 38.26C9.93 38.26 1.74 30.07 1.74 20 1.74 9.93 9.93 1.74 20 1.74c10.069 0 18.26 8.19 18.26 18.26 0 10.07-8.191 18.26-18.26 18.26z" id="Shape"/></g></g></g></svg>