<svg width="37" height="40" viewBox="0 0 37 40" version="1.1" xmlns="http://www.w3.org/2000/svg"><g id="Symbols" stroke="none" stroke-width="1" fill="none" fill-rule="evenodd"><g id="Icon/Cart" transform="translate(-12 -10)" fill="#000" fill-rule="nonzero"><g id="shopping-cart" transform="translate(12 10)"><path d="M10.545 26.337h21.938c2.488 0 4.517-2.039 4.517-4.538v-9.372c0-.016 0-.033-.008-.049 0-.016-.008-.041-.008-.058 0-.016-.009-.032-.009-.049-.008-.016-.008-.033-.016-.057-.008-.017-.008-.033-.016-.05-.008-.016-.008-.033-.017-.05a.402.402 0 0 1-.024-.057.18.18 0 0 0-.025-.04l-.024-.05c-.008-.016-.017-.025-.025-.041-.008-.017-.024-.033-.033-.05a.14.14 0 0 0-.032-.04c-.008-.017-.025-.025-.033-.042-.008-.016-.025-.024-.033-.04-.008-.017-.024-.025-.032-.034l-.041-.04c-.017-.009-.025-.025-.041-.034-.017-.008-.033-.024-.05-.033-.016-.008-.024-.016-.04-.024a.18.18 0 0 1-.05-.033l-.049-.025-.049-.024-.049-.025c-.016-.008-.032-.008-.049-.017a.151.151 0 0 0-.057-.016c-.016 0-.033-.008-.041-.008-.025-.008-.04-.008-.065-.008-.009 0-.017-.009-.033-.009L8.246 7.57V3.672c0-.041 0-.082-.008-.115 0-.008 0-.016-.009-.033 0-.024-.008-.05-.008-.074-.008-.024-.008-.04-.016-.066 0-.016-.008-.024-.008-.04l-.025-.075c0-.008-.008-.024-.008-.033a.247.247 0 0 0-.033-.065c-.008-.009-.008-.025-.016-.033a.172.172 0 0 0-.033-.05c-.008-.016-.016-.024-.025-.04-.008-.017-.016-.025-.024-.042-.008-.016-.025-.033-.033-.05l-.024-.024-.05-.05-.024-.024c-.016-.016-.033-.033-.057-.049-.008-.008-.025-.016-.033-.025-.016-.016-.033-.024-.05-.04a.526.526 0 0 0-.065-.042c-.008-.008-.016-.008-.024-.016-.033-.017-.074-.033-.106-.05L1.536.088A1.101 1.101 0 0 0 .087.68a1.11 1.11 0 0 0 .59 1.455l5.351 2.269V28.72a4.536 4.536 0 0 0 3.936 4.497 4.5 4.5 0 0 0-.638 2.302c0 2.474 2.005 4.48 4.46 4.48 2.454 0 4.46-2.014 4.46-4.48 0-.822-.222-1.603-.615-2.261h9.934a4.433 4.433 0 0 0-.613 2.26c0 2.475 2.004 4.481 4.46 4.481 2.454 0 4.459-2.014 4.459-4.48 0-2.467-2.005-4.48-4.46-4.48H10.545a2.316 2.316 0 0 1-2.307-2.319v-3.009a4.552 4.552 0 0 0 2.307.625zm5.499 9.174a2.26 2.26 0 0 1-2.25 2.261 2.265 2.265 0 0 1-2.25-2.26 2.265 2.265 0 0 1 2.25-2.261 2.26 2.26 0 0 1 2.25 2.26zm17.626 0a2.26 2.26 0 0 1-2.25 2.261 2.265 2.265 0 0 1-2.25-2.26 2.265 2.265 0 0 1 2.25-2.261 2.26 2.26 0 0 1 2.25 2.26zm-1.187-11.394H10.545A2.316 2.316 0 0 1 8.238 21.8V9.805L34.79 13.48v8.31a2.317 2.317 0 0 1-2.308 2.327z" id="Shape"/></g></g></g></svg>