<svg width="40" height="40" viewBox="0 0 40 40" version="1.1" xmlns="http://www.w3.org/2000/svg"><g id="Symbols" stroke="none" stroke-width="1" fill="none" fill-rule="evenodd"><g id="Icon/Twitter" transform="translate(-10 -10)" fill="#292929" fill-rule="nonzero"><g id="Group" transform="translate(10 10)"><g id="twitter" transform="translate(14 12)"><path d="M9.914 4.864a1.143 1.143 0 1 0 0-2.285h-6.73V1.417a1.143 1.143 0 1 0-2.285 0v7.55a6.723 6.723 0 0 0 6.715 6.715h2.3a1.143 1.143 0 1 0 0-2.286h-2.3a4.435 4.435 0 0 1-4.43-4.43V4.864h6.73z" id="Path"/></g><path d="M20 0C8.972 0 0 8.972 0 20s8.972 20 20 20c11.029 0 20-8.972 20-20S31.029 0 20 0zm0 38.26C9.93 38.26 1.74 30.07 1.74 20 1.74 9.93 9.93 1.74 20 1.74c10.069 0 18.26 8.19 18.26 18.26 0 10.07-8.191 18.26-18.26 18.26z" id="Shape"/></g></g></g></svg>