<svg width="40" height="40" viewBox="0 0 40 40" version="1.1" xmlns="http://www.w3.org/2000/svg"><g id="Symbols" stroke="none" stroke-width="1" fill="none" fill-rule="evenodd"><g id="Icon/Insta" transform="translate(-10 -10)" fill="#292929" fill-rule="nonzero"><g id="Group" transform="translate(10 10)"><g id="instagram" transform="translate(10 9)"><path d="M17.847.73H3.234C1.898.73.81 1.807.81 3.13v14.658c0 1.324 1.087 2.401 2.423 2.401h14.613c1.336 0 2.423-1.077 2.423-2.4V3.13c0-1.324-1.087-2.401-2.423-2.401zm.128 17.058c0 .07-.057.127-.128.127H3.234a.127.127 0 0 1-.128-.127V3.131c0-.07.058-.127.128-.127h14.613c.07 0 .128.057.128.127v14.657z" id="Shape"/><path id="Rectangle" d="M13.784 5.054h2.162v2.162h-2.162z"/><circle id="Oval" cx="10" cy="12.081" r="2.703"/><path d="M14.112 12.202c0 2.16-1.84 3.912-4.112 3.912-2.271 0-4.112-1.752-4.112-3.912l.005-1.743H4.054v6.487h11.892v-6.487h-1.824l-.01 1.743z" id="Path"/></g><path d="M20 0C8.972 0 0 8.972 0 20s8.972 20 20 20c11.029 0 20-8.972 20-20S31.029 0 20 0zm0 38.26C9.93 38.26 1.74 30.07 1.74 20 1.74 9.93 9.93 1.74 20 1.74c10.069 0 18.26 8.19 18.26 18.26 0 10.07-8.191 18.26-18.26 18.26z" id="Shape"/></g></g></g></svg>