<svg width="40" height="40" viewBox="0 0 40 40" version="1.1" xmlns="http://www.w3.org/2000/svg"><g id="Symbols" stroke="none" stroke-width="1" fill="none" fill-rule="evenodd"><g id="Icon/Facebook" transform="translate(-10 -10)" fill="#292929" fill-rule="nonzero"><g id="Group" transform="translate(10 10)"><g id="facebook" transform="translate(13 9)"><path d="M11.242.23H8.533c-2.217 0-4.02 1.778-4.02 3.963v3.003H1.988c-.631 0-1.143.504-1.143 1.126 0 .622.512 1.126 1.143 1.126h2.523v10.426c0 .622.512 1.126 1.143 1.126s1.143-.504 1.143-1.126V9.448h3.904c.631 0 1.143-.504 1.143-1.126 0-.622-.512-1.126-1.143-1.126H6.798V4.193c0-.943.778-1.71 1.735-1.71h2.709c.631 0 1.143-.504 1.143-1.126 0-.622-.512-1.126-1.143-1.126z" id="Path"/></g><path d="M20 0C8.972 0 0 8.972 0 20s8.972 20 20 20c11.029 0 20-8.972 20-20S31.029 0 20 0zm0 38.26C9.93 38.26 1.74 30.07 1.74 20 1.74 9.93 9.93 1.74 20 1.74c10.069 0 18.26 8.19 18.26 18.26 0 10.07-8.191 18.26-18.26 18.26z" id="Shape"/></g></g></g></svg>