<?xml version="1.0" encoding="UTF-8"?>
<svg width="40px" height="40px" viewBox="0 0 40 40" version="1.1" xmlns="http://www.w3.org/2000/svg" xmlns:xlink="http://www.w3.org/1999/xlink">
    <!-- Generator: Sketch 55.1 (78136) - https://sketchapp.com -->
    <title>Group</title>
    <desc>Created with Sketch.</desc>
    <g id="Symbols" stroke="none" stroke-width="1" fill="none" fill-rule="evenodd">
        <g id="Icon/Facebook" transform="translate(-10.000000, -10.000000)" fill="#292929" fill-rule="nonzero">
            <g id="Group" transform="translate(10.000000, 10.000000)">
                <g id="facebook" transform="translate(13.000000, 9.000000)">
                    <path d="M11.2420061,0.230769231 L8.53321342,0.230769231 C6.31617818,0.230769231 4.51243255,2.00816497 4.51243255,4.19281279 L4.51243255,7.19559314 L1.98889006,7.19559314 C1.35771876,7.19559314 0.846153846,7.69968489 0.846153846,8.32163577 C0.846153846,8.94358665 1.35771876,9.44767841 1.98889006,9.44767841 L4.51243255,9.44767841 L4.51243255,19.8739574 C4.51243255,20.4959082 5.02399746,21 5.65516877,21 C6.28634007,21 6.79790498,20.4959082 6.79790498,19.8739574 L6.79790498,9.44767841 L10.7022537,9.44767841 C11.333425,9.44767841 11.8449899,8.94358665 11.8449899,8.32163577 C11.8449899,7.69968489 11.333425,7.19559314 10.7022537,7.19559314 L6.79790498,7.19559314 L6.79790498,4.19281279 C6.79790498,3.24993976 7.57636229,2.48285449 8.53321342,2.48285449 L11.2418792,2.48285449 C11.8730505,2.48285449 12.3846154,1.97876274 12.3846154,1.35681186 C12.3846154,0.734860982 11.8730505,0.230769231 11.2420061,0.230769231 Z" id="Path"></path>
                </g>
                <path d="M20,0 C8.97217391,0 0,8.97217391 0,20 C0,31.0278261 8.97217391,40 20,40 C31.0286957,40 40,31.0278261 40,20 C40,8.97217391 31.0286957,0 20,0 Z M20,38.2608696 C9.93043478,38.2608696 1.73913043,30.0695652 1.73913043,20 C1.73913043,9.93043478 9.93043478,1.73913043 20,1.73913043 C30.0686957,1.73913043 38.2608696,9.93043478 38.2608696,20 C38.2608696,30.0695652 30.0686957,38.2608696 20,38.2608696 Z" id="Shape"></path>
            </g>
        </g>
    </g>
</svg>