<?xml version="1.0" encoding="UTF-8"?>
<svg width="40px" height="40px" viewBox="0 0 40 40" version="1.1" xmlns="http://www.w3.org/2000/svg" xmlns:xlink="http://www.w3.org/1999/xlink">
    <!-- Generator: Sketch 55.1 (78136) - https://sketchapp.com -->
    <title>Group</title>
    <desc>Created with Sketch.</desc>
    <g id="Symbols" stroke="none" stroke-width="1" fill="none" fill-rule="evenodd">
        <g id="Icon/Twitter" transform="translate(-10.000000, -10.000000)" fill="#292929" fill-rule="nonzero">
            <g id="Group" transform="translate(10.000000, 10.000000)">
                <g id="twitter" transform="translate(14.000000, 12.000000)">
                    <path d="M9.9144127,4.86425397 C10.5456508,4.86425397 11.0572698,4.35263492 11.0572698,3.72139683 C11.0572698,3.09015873 10.5456508,2.57853968 9.9144127,2.57853968 L3.18425397,2.57853968 L3.18425397,1.41714286 C3.18425397,0.785904762 2.67263492,0.274285714 2.04139683,0.274285714 C1.41015873,0.274285714 0.898539683,0.785904762 0.898539683,1.41714286 L0.898539683,8.96609524 C0.898539683,12.6690794 3.91111111,15.6817778 7.61409524,15.6817778 L9.9144127,15.6817778 C10.5456508,15.6817778 11.0572698,15.1701587 11.0572698,14.5389206 C11.0572698,13.9076825 10.5456508,13.3960635 9.9144127,13.3960635 L7.61409524,13.3960635 C5.17155556,13.3960635 3.18425397,11.4088889 3.18425397,8.96609524 L3.18425397,4.86425397 L9.9144127,4.86425397 Z" id="Path"></path>
                </g>
                <path d="M20,0 C8.97217391,0 0,8.97217391 0,20 C0,31.0278261 8.97217391,40 20,40 C31.0286957,40 40,31.0278261 40,20 C40,8.97217391 31.0286957,0 20,0 Z M20,38.2608696 C9.93043478,38.2608696 1.73913043,30.0695652 1.73913043,20 C1.73913043,9.93043478 9.93043478,1.73913043 20,1.73913043 C30.0686957,1.73913043 38.2608696,9.93043478 38.2608696,20 C38.2608696,30.0695652 30.0686957,38.2608696 20,38.2608696 Z" id="Shape"></path>
            </g>
        </g>
    </g>
</svg>