<?xml version="1.0" encoding="UTF-8"?>
<svg width="40px" height="40px" viewBox="0 0 40 40" version="1.1" xmlns="http://www.w3.org/2000/svg" xmlns:xlink="http://www.w3.org/1999/xlink">
    <!-- Generator: Sketch 55.1 (78136) - https://sketchapp.com -->
    <title>Group</title>
    <desc>Created with Sketch.</desc>
    <g id="Symbols" stroke="none" stroke-width="1" fill="none" fill-rule="evenodd">
        <g id="Icon/Insta" transform="translate(-10.000000, -10.000000)" fill="#292929" fill-rule="nonzero">
            <g id="Group" transform="translate(10.000000, 10.000000)">
                <g id="instagram" transform="translate(10.000000, 9.000000)">
                    <path d="M17.8471477,0.72972973 L3.23393335,0.72972973 C1.89777257,0.72972973 0.810810811,1.80669709 0.810810811,3.13057213 L0.810810811,17.7883468 C0.810810811,19.1122218 1.89777257,20.1891892 3.23393335,20.1891892 L17.8471477,20.1891892 C19.1833085,20.1891892 20.2702703,19.1122218 20.2702703,17.7883468 L20.2702703,3.13057213 C20.2702703,1.80682345 19.1833085,0.72972973 17.8471477,0.72972973 Z M17.9746805,17.7883468 C17.9746805,17.8580976 17.9175458,17.9147069 17.8471477,17.9147069 L3.23393335,17.9147069 C3.16353526,17.9147069 3.10640059,17.8580976 3.10640059,17.7883468 L3.10640059,3.13057213 C3.10640059,3.06082134 3.16353526,3.004212 3.23393335,3.004212 L17.8471477,3.004212 C17.9175458,3.004212 17.9746805,3.06082134 17.9746805,3.13057213 L17.9746805,17.7883468 Z" id="Shape"></path>
                    <rect id="Rectangle" x="13.7837838" y="5.05405405" width="2.16216216" height="2.16216216"></rect>
                    <circle id="Oval" cx="10" cy="12.0810811" r="2.7027027"></circle>
                    <path d="M14.1123647,12.2023083 C14.1123647,14.3624998 12.2711721,16.1136738 9.99993657,16.1136738 C7.72870104,16.1136738 5.88750843,14.3624998 5.88750843,12.2023083 L5.89309011,10.4594595 L4.05405405,10.4594595 L4.05405405,16.9459459 L15.9459459,16.9459459 L15.9459459,10.4594595 L14.1218789,10.4594595 L14.1123647,12.2023083 Z" id="Path"></path>
                </g>
                <path d="M20,0 C8.97217391,0 0,8.97217391 0,20 C0,31.0278261 8.97217391,40 20,40 C31.0286957,40 40,31.0278261 40,20 C40,8.97217391 31.0286957,0 20,0 Z M20,38.2608696 C9.93043478,38.2608696 1.73913043,30.0695652 1.73913043,20 C1.73913043,9.93043478 9.93043478,1.73913043 20,1.73913043 C30.0686957,1.73913043 38.2608696,9.93043478 38.2608696,20 C38.2608696,30.0695652 30.0686957,38.2608696 20,38.2608696 Z" id="Shape"></path>
            </g>
        </g>
    </g>
</svg>