<svg width="40" height="40" viewBox="0 0 40 40" version="1.1" xmlns="http://www.w3.org/2000/svg"><g id="Symbols" stroke="none" stroke-width="1" fill="none" fill-rule="evenodd"><g id="Icon/Shipping" transform="translate(-10 -10)" fill="#292929" fill-rule="nonzero"><g id="Group" transform="translate(10 10)"><g id="shipped" transform="translate(7 12)"><path d="M23.25 6.713l-.647-2.588a.391.391 0 0 0 .31-.383v-.417c0-.907-.738-1.644-1.645-1.644H18.32v-.86a.81.81 0 0 0-.809-.81H2.48a.81.81 0 0 0-.81.81v7.095a.391.391 0 0 0 .783 0V.82c0-.014.012-.026.026-.026H17.51c.015 0 .027.012.027.026v7.096a.391.391 0 0 0 .782 0v-.444h4.621c.568 0 1.05.374 1.217.887h-1.218a.391.391 0 0 0-.391.392v.835c0 .676.55 1.226 1.226 1.226h.444v1.721h-1.023a2.483 2.483 0 0 0-2.343-1.67c-1.084 0-2.007.7-2.343 1.67h-.189V9.586a.391.391 0 0 0-.783 0v2.947H9.415a2.483 2.483 0 0 0-2.343-1.67c-1.084 0-2.007.7-2.343 1.67H2.48a.026.026 0 0 1-.026-.026v-.86H4.15a.391.391 0 1 0 0-.783H.391a.391.391 0 1 0 0 .782h1.28v.861a.81.81 0 0 0 .808.809h2.115l-.001.026a2.482 2.482 0 0 0 2.479 2.478 2.482 2.482 0 0 0 2.48-2.478l-.002-.026h8.822v.026a2.482 2.482 0 0 0 2.479 2.478 2.482 2.482 0 0 0 2.479-2.478v-.026h1.279a.391.391 0 0 0 .391-.391V8.75c0-1.03-.76-1.887-1.75-2.038zm-4.93-4.25h2.948c.475 0 .861.387.861.862v.026h-3.81v-.887zm0 4.227V4.133h3.478l.64 2.557h-4.119zM7.071 15.038c-.935 0-1.696-.76-1.696-1.696 0-.935.76-1.696 1.696-1.696.935 0 1.696.761 1.696 1.696 0 .935-.76 1.696-1.696 1.696zm13.779 0a1.697 1.697 0 0 1 0-3.392c.935 0 1.696.761 1.696 1.696 0 .935-.76 1.696-1.696 1.696zm3.366-5.009h-.443a.444.444 0 0 1-.444-.443v-.444h.887v.887z" id="Shape"/><path d="M6.985 12.511a.736.736 0 1 0 .002 1.473.736.736 0 0 0-.002-1.473zm13.971 0a.736.736 0 1 0 .002 1.473.736.736 0 0 0-.002-1.473zm-4.803-1.471h-5.836a.38.38 0 0 0-.39.369c0 .203.174.367.39.367h5.836c.216 0 .391-.164.391-.367 0-.204-.175-.368-.39-.368zM6.22 9.203H1.133c-.22 0-.398.164-.398.367 0 .203.178.368.398.368H6.22c.22 0 .398-.165.398-.368 0-.203-.178-.367-.398-.367zM13.489 3.8a.398.398 0 0 0-.553 0L9.46 7.181l-1.808-1.76a.398.398 0 0 0-.552 0 .373.373 0 0 0 0 .538l2.084 2.028a.395.395 0 0 0 .553 0l3.751-3.65a.373.373 0 0 0 0-.539z" id="Path"/></g><path d="M20 0C8.972 0 0 8.972 0 20s8.972 20 20 20c11.029 0 20-8.972 20-20S31.029 0 20 0zm0 38.26C9.93 38.26 1.74 30.07 1.74 20 1.74 9.93 9.93 1.74 20 1.74c10.069 0 18.26 8.19 18.26 18.26 0 10.07-8.191 18.26-18.26 18.26z" id="Shape"/></g></g></g></svg>