<?xml version="1.0" encoding="UTF-8"?>
<svg width="37px" height="40px" viewBox="0 0 37 40" version="1.1" xmlns="http://www.w3.org/2000/svg" xmlns:xlink="http://www.w3.org/1999/xlink">
    <!-- Generator: Sketch 55 (78076) - https://sketchapp.com -->
    <title>shopping-cart</title>
    <desc>Created with Sketch.</desc>
    <g id="Symbols" stroke="none" stroke-width="1" fill="none" fill-rule="evenodd">
        <g id="Icon/Cart" transform="translate(-12.000000, -10.000000)" fill="#000000" fill-rule="nonzero">
            <g id="shopping-cart" transform="translate(12.000000, 10.000000)">
                <path d="M10.5450537,26.336977 L32.4831023,26.336977 C34.9706691,26.336977 37,24.2982107 37,21.7990777 L37,12.5259791 C37,12.5177583 37,12.5013166 37,12.4930958 C37,12.4684333 37,12.4519916 37,12.4273291 C37,12.4108875 37,12.3944458 36.9918172,12.3780041 C36.9918172,12.3615625 36.9836344,12.3369 36.9836344,12.3204583 C36.9836344,12.3040166 36.9754516,12.287575 36.9754516,12.2711333 C36.9672689,12.2546917 36.9672689,12.23825 36.9590861,12.2135875 C36.9509033,12.1971458 36.9509033,12.1807042 36.9427205,12.1642625 C36.9345377,12.1478208 36.9345377,12.1313792 36.9263549,12.1149375 C36.9181721,12.0984958 36.9099894,12.0820542 36.9018066,12.0573917 C36.8936238,12.04095 36.885441,12.0245084 36.8772582,12.0162875 C36.8690754,11.9998459 36.8608926,11.9834042 36.8527099,11.9669625 C36.8445271,11.9505209 36.8363443,11.9423 36.8281615,11.9258584 C36.8199787,11.9094167 36.8036131,11.892975 36.7954304,11.8765334 C36.7872476,11.8600917 36.7790648,11.8518709 36.7626992,11.8354292 C36.7545164,11.8189876 36.7381509,11.8107667 36.7299681,11.7943251 C36.7217853,11.7778834 36.7054197,11.7696626 36.6972369,11.7532209 C36.6890541,11.7367792 36.6726886,11.7285584 36.6645058,11.7203376 C36.6481402,11.7038959 36.6399574,11.6956751 36.6235919,11.6792334 C36.6072263,11.6710126 36.5990435,11.6545709 36.5826779,11.6463501 C36.5663124,11.6381292 36.5499468,11.6216876 36.5335812,11.6134668 C36.5172156,11.6052459 36.5090329,11.5970251 36.4926673,11.5888043 C36.4763017,11.5805834 36.4599361,11.5723626 36.4435706,11.5559209 C36.427205,11.5477001 36.4108394,11.5394793 36.3944739,11.5312584 C36.3781083,11.5230376 36.3617427,11.5148168 36.3453771,11.5065959 C36.3290116,11.4983751 36.312646,11.4901543 36.2962804,11.4819334 C36.2799149,11.4737126 36.2635493,11.4737126 36.2471837,11.4654918 C36.2308181,11.4572709 36.2062698,11.4490501 36.1899042,11.4490501 C36.1735386,11.4490501 36.1571731,11.4408293 36.1489903,11.4408293 C36.1244419,11.4326084 36.1080764,11.4326084 36.083528,11.4326084 C36.0753452,11.4326084 36.0671624,11.4243876 36.0507969,11.4243876 L8.24569091,7.56881736 L8.24569091,3.67214294 C8.24569091,3.63103878 8.24569091,3.58993462 8.23750812,3.55705129 C8.23750812,3.54883046 8.23750812,3.54060963 8.22932533,3.52416796 C8.22932533,3.49950547 8.22114255,3.47484297 8.22114255,3.45018047 C8.21295976,3.42551798 8.21295976,3.40907631 8.20477698,3.38441382 C8.20477698,3.36797215 8.19659419,3.35975132 8.19659419,3.34330966 C8.18841141,3.31864716 8.18022862,3.29398466 8.17204583,3.26932217 C8.17204583,3.26110133 8.16386305,3.24465967 8.16386305,3.23643884 C8.15568026,3.21177634 8.14749748,3.19533468 8.13113191,3.17067218 C8.12294912,3.16245135 8.12294912,3.14600969 8.11476633,3.13778885 C8.10658355,3.12134719 8.09840076,3.10490552 8.08203519,3.08846386 C8.07385241,3.0720222 8.06566962,3.06380136 8.05748683,3.0473597 C8.04930405,3.03091804 8.04112126,3.0226972 8.03293848,3.00625554 C8.02475569,2.98981388 8.00839012,2.97337221 8.00020733,2.95693055 C7.99202455,2.94870971 7.98384176,2.94048888 7.97565898,2.93226805 C7.95929341,2.91582639 7.94292783,2.89938472 7.92656226,2.88294306 C7.91837948,2.87472223 7.91019669,2.86650139 7.90201391,2.85828056 C7.88564833,2.8418389 7.86928276,2.82539723 7.84473441,2.80895557 C7.83655162,2.80073474 7.82018605,2.7925139 7.81200326,2.78429307 C7.79563769,2.76785141 7.77927212,2.75963058 7.76290655,2.74318891 C7.73835819,2.72674725 7.71380983,2.71030558 7.69744426,2.70208475 C7.68926148,2.69386392 7.68107869,2.69386392 7.6728959,2.68564309 C7.64016476,2.66920142 7.59925083,2.65275976 7.56651969,2.63631809 L1.5358066,0.0878601431 C0.971194383,-0.150543988 0.324754309,0.112522639 0.0874535226,0.679760054 C-0.149847264,1.24699747 0.11200188,1.89644321 0.676614096,2.13484734 L6.02815597,4.403797 L6.02815597,9.43494624 L6.02815597,10.232367 L6.02815597,16.348666 L6.02815597,21.8155194 L6.02815597,28.7210184 C6.02815597,31.0228513 7.74654098,32.9300844 9.96407591,33.2178135 C9.56311941,33.8919217 9.32581862,34.6811216 9.32581862,35.5196465 C9.32581862,37.994117 11.3306011,40 13.7854369,40 C16.2402726,40 18.2450551,37.9858961 18.2450551,35.5196465 C18.2450551,34.6975633 18.0241199,33.9165842 17.6313462,33.2589177 L27.565248,33.2589177 C27.1724743,33.9248051 26.9515391,34.6975633 26.9515391,35.5196465 C26.9515391,37.994117 28.9563216,40 31.4111573,40 C33.8659931,40 35.8707756,37.9858961 35.8707756,35.5196465 C35.8707756,33.0533969 33.8659931,31.039293 31.4111573,31.039293 L10.5450537,31.039293 C9.26853912,31.039293 8.23750812,29.9952473 8.23750812,28.7210184 L8.23750812,25.7121938 C8.90849655,26.1067937 9.70222677,26.336977 10.5450537,26.336977 Z M16.0438857,35.5114257 C16.0438857,36.7609922 15.0292203,37.7721545 13.7936196,37.7721545 C12.558019,37.7721545 11.5433536,36.7527713 11.5433536,35.5114257 C11.5433536,34.27008 12.558019,33.2506968 13.7936196,33.2506968 C15.0292203,33.2506968 16.0438857,34.2618592 16.0438857,35.5114257 Z M33.6696062,35.5114257 C33.6696062,36.7609922 32.6549408,37.7721545 31.4193401,37.7721545 C30.1837395,37.7721545 29.169074,36.7527713 29.169074,35.5114257 C29.169074,34.27008 30.1837395,33.2506968 31.4193401,33.2506968 C32.6549408,33.2506968 33.6696062,34.2618592 33.6696062,35.5114257 Z M32.4831023,24.1173524 L10.5450537,24.1173524 C9.26853912,24.1173524 8.23750812,23.0733067 8.23750812,21.7990777 L8.23750812,16.3322244 L8.23750812,10.2159253 L8.23750812,9.80488369 L34.7906478,13.4795956 L34.7906478,21.7908569 C34.7906478,23.0815275 33.7514341,24.1173524 32.4831023,24.1173524 Z" id="Shape"></path>
            </g>
        </g>
    </g>
</svg>