<svg width="30" height="30" viewBox="0 0 30 30" fill="none" xmlns="http://www.w3.org/2000/svg"><path fill-rule="evenodd" clip-rule="evenodd" d="M0 15C0 6.73 6.73 0 15 0c8.271 0 15 6.73 15 15s-6.729 15-15 15C6.73 30 0 23.27 0 15zm1.304 0c0 7.552 6.144 13.696 13.696 13.696S28.696 22.552 28.696 15 22.55 1.304 15 1.304C7.448 1.304 1.304 7.448 1.304 15z" fill="#d45656"/><path fill-rule="evenodd" clip-rule="evenodd" d="M9.808 10.385c.954 0 1.73.776 1.73 1.73 0 .955-.776 1.731-1.73 1.731a1.732 1.732 0 0 1-1.731-1.73c0-.955.776-1.731 1.73-1.731zm0 1.154a.578.578 0 0 0 0 1.154.578.578 0 0 0 0-1.154zm8.654.577c0-.955.776-1.731 1.73-1.731s1.731.776 1.731 1.73a1.732 1.732 0 0 1-3.462.001zm1.153 0a.578.578 0 1 0 1.156-.002.578.578 0 0 0-1.156.002z" fill="#d45656"/><path d="M14.423 18.461c-2.366 0-4.62.911-6.184 2.5a.541.541 0 0 0 .049.815.68.68 0 0 0 .896-.045c1.324-1.345 3.234-2.116 5.24-2.116 2.005 0 3.914.771 5.238 2.116a.661.661 0 0 0 .473.192.67.67 0 0 0 .423-.147.541.541 0 0 0 .05-.815c-1.565-1.588-3.818-2.5-6.185-2.5z" fill="#d45656"/></svg>