<svg width="30" height="30" viewBox="0 0 30 30" fill="none" xmlns="http://www.w3.org/2000/svg">
  <path fill-rule="evenodd" clip-rule="evenodd" d="M0 15C0 6.72913 6.72913 0 15 0C23.2715 0 30 6.72913 30 15C30 23.2709 23.2715 30 15 30C6.72913 30 0 23.2709 0 15ZM1.30435 15C1.30435 22.5522 7.44783 28.6957 15 28.6957C22.5515 28.6957 28.6957 22.5522 28.6957 15C28.6957 7.44783 22.5515 1.30435 15 1.30435C7.44783 1.30435 1.30435 7.44783 1.30435 15Z" fill="#d45656"/>
  <path fill-rule="evenodd" clip-rule="evenodd" d="M9.80767 10.3848C10.7619 10.3848 11.5384 11.1613 11.5384 12.1155C11.5384 13.0698 10.7619 13.8463 9.80767 13.8463C8.85344 13.8463 8.0769 13.0698 8.0769 12.1155C8.0769 11.1613 8.85344 10.3848 9.80767 10.3848ZM9.80767 11.5386C9.48979 11.5386 9.23075 11.7977 9.23075 12.1155C9.23075 12.4334 9.48979 12.6925 9.80767 12.6925C10.1256 12.6925 10.3846 12.4334 10.3846 12.1155C10.3846 11.7977 10.1256 11.5386 9.80767 11.5386Z" fill="#d45656"/>
  <path fill-rule="evenodd" clip-rule="evenodd" d="M18.4615 12.1155C18.4615 11.1613 19.2381 10.3848 20.1923 10.3848C21.1465 10.3848 21.9231 11.1613 21.9231 12.1155C21.9231 13.0698 21.1465 13.8463 20.1923 13.8463C19.2381 13.8463 18.4615 13.0698 18.4615 12.1155ZM19.6154 12.1155C19.6154 12.4334 19.8739 12.6925 20.1923 12.6925C20.5108 12.6925 20.7692 12.4334 20.7692 12.1155C20.7692 11.7977 20.5108 11.5386 20.1923 11.5386C19.8739 11.5386 19.6154 11.7977 19.6154 12.1155Z" fill="#d45656"/>
  <path d="M14.4231 18.4614C12.0571 18.4614 9.8029 19.3724 8.23852 20.9612C8.00497 21.1989 8.02719 21.5635 8.28802 21.7758C8.54949 21.9887 8.95058 21.9679 9.18413 21.7308C10.508 20.386 12.4176 19.6153 14.4231 19.6153C16.4285 19.6153 18.3381 20.386 19.662 21.7308C19.787 21.8583 19.9609 21.9229 20.1348 21.9229C20.2852 21.9229 20.4375 21.8745 20.5581 21.7758C20.8189 21.5635 20.8411 21.1989 20.6076 20.9612C19.0432 19.373 16.7896 18.4614 14.4231 18.4614Z" fill="#d45656"/>
</svg>
