<svg width="60" height="60" viewBox="0 0 60 60" version="1.1" xmlns="http://www.w3.org/2000/svg"><g id="Icon/Package" stroke="none" stroke-width="1" fill="#292929" fill-rule="nonzero"><path d="M30 10c-11.028 0-20 8.972-20 20s8.972 20 20 20c11.029 0 20-8.972 20-20s-8.971-20-20-20zm0 38.26c-10.07 0-18.26-8.19-18.26-18.26 0-10.07 8.19-18.26 18.26-18.26 10.069 0 18.26 8.19 18.26 18.26 0 10.07-8.191 18.26-18.26 18.26z" id="Shape"/><g id="scooter-(1)" transform="translate(18 22)"><path d="M22.003 10.867c-.338 0-.662.055-.965.156l-.413-.8a4.006 4.006 0 0 1 1.378-.244 4 4 0 0 1 1.565.315.41.41 0 0 0 .533-.203.387.387 0 0 0-.209-.516 4.828 4.828 0 0 0-1.889-.38c-.61 0-1.199.116-1.741.325l-1.5-2.903c.07.012.143.018.217.018h.864a.399.399 0 0 0 .405-.392V4.572a.399.399 0 0 0-.405-.392h-.864c-.492 0-.92.273-1.13.671l-.428-.829a1.267 1.267 0 0 0-1.135-.678h-.762a.399.399 0 0 0-.405.392c0 .216.181.391.405.391h.762c.175 0 .332.095.41.246l1.049 2.03-.197.095c-.433.21-.701.63-.701 1.098v4.107h-3.483c-.73 0-1.323-.574-1.323-1.28V8.725h.027c.7 0 1.269-.55 1.269-1.228 0-.677-.57-1.227-1.269-1.227H8.612c-.347 0-.661.135-.89.354V.81c0-.447-.376-.81-.838-.81H.837A.824.824 0 0 0 0 .81v5.85c0 .447.375.81.837.81h.909a.996.996 0 0 0-.028.248c.009.555.483 1.006 1.056 1.006h2.177c-.273.17-.508.348-.703.518-.897.78-1.377 1.71-1.526 2.32a1.06 1.06 0 0 0 .212.932c.213.26.531.408.874.408h.216a2.82 2.82 0 0 0-.136.864c0 1.599 1.344 2.9 2.996 2.9 1.515 0 2.77-1.094 2.97-2.508h7.83a.399.399 0 0 0 .405-.392c0-.255.026-.51.078-.758a3.786 3.786 0 0 1 1.734-2.434l.413.799a2.872 2.872 0 0 0-1.308 2.393c0 1.599 1.345 2.9 2.997 2.9 1.653 0 2.997-1.301 2.997-2.9s-1.344-2.9-2.997-2.9zM8.613 7.053h3.455c.253 0 .459.2.459.444a.452.452 0 0 1-.459.444H8.612a.452.452 0 0 1-.459-.444c0-.244.206-.444.46-.444zM.81.81C.81.795.822.784.837.784h6.047c.015 0 .027.011.027.026v.862H.81V.81zm.027 5.878A.027.027 0 0 1 .81 6.66V2.456h6.1V6.66a.027.027 0 0 1-.027.027H.837zM2.774 7.94a.244.244 0 0 1-.246-.234.233.233 0 0 1 .07-.172.247.247 0 0 1 .119-.064l4.627.002v.024c0 .157.03.307.086.444H2.774zm1.036 4.18a.303.303 0 0 1-.3-.376c.3-1.218 1.853-3.019 4.24-3.019 1.852 0 2.543 1.714 2.543 2.793 0 .293-.168.59-.487.59l-5.996.012zm3.534 1.647a.452.452 0 0 1-.459.444.452.452 0 0 1-.459-.444c0-.245.206-.444.46-.444.253 0 .458.2.458.444zm-.459 2.116c-1.205 0-2.186-.95-2.186-2.116 0-.3.066-.595.192-.866l1.097-.002c-.23.223-.371.53-.371.868 0 .677.569 1.228 1.268 1.228.7 0 1.27-.551 1.27-1.228 0-.34-.144-.648-.376-.87l1.098-.003c.127.273.195.57.195.873 0 1.167-.98 2.116-2.187 2.116zm10.49-3.03a4.437 4.437 0 0 0-.078.522H9.854a2.825 2.825 0 0 0-.112-.482h.064c.739-.002 1.295-.592 1.295-1.375a3.89 3.89 0 0 0-.8-2.357 3.316 3.316 0 0 0-.409-.436h1.34v1.698c0 1.138.956 2.064 2.132 2.064h3.888a.42.42 0 0 0 .24-.076 4.4 4.4 0 0 0-.119.442zm1.605-7.89h.46v.889h-.46a.452.452 0 0 1-.458-.444c0-.245.205-.445.458-.445zm-1.322 7.013v-4.38a.44.44 0 0 1 .253-.397l.197-.095 1.43 2.767a4.638 4.638 0 0 0-1.88 2.105zm4.346 3.907c-1.206 0-2.187-.95-2.187-2.116 0-1.167.981-2.116 2.187-2.116s2.187.95 2.187 2.116c0 1.167-.98 2.116-2.187 2.116z" id="Shape"/><path d="M21.429 11.905a1.19 1.19 0 0 0 0 2.38 1.19 1.19 0 0 0 0-2.38zm0 1.62a.431.431 0 1 1 0-.861.431.431 0 0 1 0 .862z" id="Shape"/></g></g></svg>