<svg width="40" height="40" viewBox="0 0 40 40" fill="none" xmlns="http://www.w3.org/2000/svg"><path fill-rule="evenodd" clip-rule="evenodd" d="M0 20C0 8.972 8.972 0 20 0s20 8.972 20 20-8.972 20-20 20S0 31.028 0 20zm1.74 0c0 10.07 8.19 18.26 18.26 18.26 10.07 0 18.26-8.19 18.26-18.26C38.26 9.93 30.07 1.74 20 1.74 9.93 1.74 1.74 9.93 1.74 20z" fill="#000"/><path fill-rule="evenodd" clip-rule="evenodd" d="M13.043 13.913a2.612 2.612 0 0 1 2.61 2.609 2.612 2.612 0 0 1-2.61 2.609 2.612 2.612 0 0 1-2.608-2.61 2.612 2.612 0 0 1 2.608-2.608zm0 1.74c-.479 0-.87.39-.87.869s.391.87.87.87a.87.87 0 0 0 0-1.74zm11.305.869a2.612 2.612 0 0 1 2.608-2.609 2.612 2.612 0 0 1 2.61 2.609 2.612 2.612 0 0 1-2.61 2.609 2.612 2.612 0 0 1-2.608-2.61zm1.739 0a.87.87 0 0 0 1.74 0 .871.871 0 0 0-1.74 0z" fill="#000"/><path d="M28.406 24.57a.87.87 0 0 0-1.228.067A9.633 9.633 0 0 1 20 27.826a9.634 9.634 0 0 1-7.178-3.189.87.87 0 1 0-1.296 1.16A11.376 11.376 0 0 0 20 29.565c3.243 0 6.331-1.374 8.474-3.768a.87.87 0 0 0-.068-1.228z" fill="#000"/></svg>