<svg width="60" height="60" viewBox="0 0 60 60" version="1.1" xmlns="http://www.w3.org/2000/svg"><g id="Icon/Twitter" stroke="none" stroke-width="1" fill="#292929" fill-rule="nonzero"><g id="twitter" transform="translate(24 22)"><path d="M9.914 4.864a1.143 1.143 0 1 0 0-2.285h-6.73V1.417a1.143 1.143 0 1 0-2.285 0v7.55a6.723 6.723 0 0 0 6.715 6.715h2.3a1.143 1.143 0 1 0 0-2.286h-2.3a4.435 4.435 0 0 1-4.43-4.43V4.864h6.73z" id="Path"/></g><path d="M30 10c-11.028 0-20 8.972-20 20s8.972 20 20 20c11.029 0 20-8.972 20-20s-8.971-20-20-20zm0 38.26c-10.07 0-18.26-8.19-18.26-18.26 0-10.07 8.19-18.26 18.26-18.26 10.069 0 18.26 8.19 18.26 18.26 0 10.07-8.191 18.26-18.26 18.26z" id="Shape"/></g></svg>