<svg width="41" height="40" viewBox="0 0 41 40" fill="none" xmlns="http://www.w3.org/2000/svg">
<path d="M29.9046 10.5263L26.4264 8.78719C25.9959 8.57241 25.4742 8.74719 25.2594 9.17589C25.0438 9.60632 25.2185 10.1281 25.6481 10.3437L29.1264 12.0828C29.2507 12.1446 29.3838 12.1742 29.5142 12.1742C29.8333 12.1742 30.1403 11.9985 30.2933 11.6933C30.5081 11.2637 30.3342 10.7411 29.9046 10.5263Z" fill="black"/>
<path d="M12.1247 12.1739C12.2551 12.1739 12.3882 12.1444 12.5125 12.0826L15.9908 10.3435C16.4204 10.1287 16.5943 9.6061 16.3795 9.17653C16.1647 8.74697 15.643 8.57306 15.2125 8.78784L11.7343 10.527C11.3047 10.7418 11.1308 11.2644 11.3456 11.6939C11.4986 11.9983 11.8056 12.1739 12.1247 12.1739Z" fill="black"/>
<path fill-rule="evenodd" clip-rule="evenodd" d="M0.819458 20C0.819458 8.97217 9.79163 0 20.8195 0C31.8473 0 40.8195 8.97217 40.8195 20C40.8195 31.0278 31.8473 40 20.8195 40C9.79163 40 0.819458 31.0278 0.819458 20ZM2.55865 20.0001C2.55865 30.0697 10.75 38.261 20.8195 38.261C30.8891 38.261 39.0804 30.0697 39.0804 20.0001C39.0804 9.93056 30.8891 1.73926 20.8195 1.73926C10.75 1.73926 2.55865 9.93056 2.55865 20.0001Z" fill="black"/>
<path fill-rule="evenodd" clip-rule="evenodd" d="M20.8194 13.9131C15.5455 13.9131 11.2542 18.2044 11.2542 23.4783C11.2542 25.9009 12.1611 28.2087 13.8055 29.9713C15.6002 31.9235 18.1568 33.0435 20.8194 33.0435C21.1524 33.0435 21.4837 33.0261 21.8115 32.9913C24.1089 32.7505 26.262 31.68 27.8289 29.9757L27.8316 29.9731L27.8324 29.9722C27.8333 29.9713 27.8333 29.9705 27.8342 29.9696C29.4794 28.2035 30.3846 25.8983 30.3846 23.4783C30.3846 18.2044 26.0933 13.9131 20.8194 13.9131ZM26.0499 29.2869C25.9872 29.3435 25.9219 29.3975 25.8568 29.4513L25.8003 29.4982C25.6864 29.593 25.5707 29.686 25.4516 29.7739C25.362 29.84 25.2707 29.9026 25.1785 29.9643C25.0577 30.046 24.9342 30.1252 24.809 30.1991C24.7133 30.2556 24.6168 30.3104 24.5194 30.3634C24.3907 30.433 24.2603 30.4973 24.1272 30.5591C24.0272 30.606 23.9281 30.6521 23.8264 30.6947C23.689 30.7521 23.549 30.8034 23.409 30.853L23.3679 30.8676L23.3679 30.8676C23.2807 30.8985 23.1934 30.9294 23.1055 30.9565C22.9568 31.0017 22.8064 31.0391 22.6551 31.0756C22.6207 31.0838 22.5864 31.0926 22.5521 31.1013L22.552 31.1013C22.4883 31.1176 22.4244 31.1339 22.3594 31.1469C22.1916 31.1808 22.022 31.2043 21.8516 31.2269C21.8178 31.2314 21.7841 31.2367 21.7503 31.242C21.6987 31.2501 21.6471 31.2582 21.5951 31.2634C21.3385 31.2895 21.0794 31.3043 20.8194 31.3043C20.5585 31.3043 20.2994 31.2895 20.0429 31.2634C19.9914 31.2581 19.9406 31.2502 19.8897 31.2423L19.8896 31.2423C19.8571 31.2373 19.8244 31.2322 19.7916 31.2278C19.6194 31.2052 19.4481 31.1808 19.2785 31.1469C19.2122 31.1333 19.1466 31.1168 19.0807 31.1003L19.0806 31.1003C19.0499 31.0926 19.0191 31.0848 18.9881 31.0773L18.988 31.0773C18.835 31.0399 18.682 31.0026 18.5316 30.9565C18.4522 30.9323 18.3739 30.9043 18.2958 30.8764L18.2351 30.8547C18.0916 30.8043 17.9481 30.7521 17.8072 30.693C17.7098 30.6521 17.6142 30.6078 17.5185 30.5634C17.3803 30.4991 17.2437 30.4313 17.1098 30.3591C17.0177 30.3095 16.9272 30.2582 16.8377 30.2052C16.7046 30.1269 16.5751 30.0434 16.4472 29.9565C16.362 29.8991 16.2768 29.8408 16.1933 29.78C16.0672 29.6869 15.9455 29.5878 15.8246 29.4878L15.7698 29.4424C15.7097 29.3927 15.6496 29.3431 15.5916 29.2904C15.5742 29.275 15.5576 29.2582 15.5411 29.2414C15.5288 29.2288 15.5164 29.2162 15.5037 29.2043C16.5681 27.293 18.5951 26.0869 20.8194 26.0869C23.0438 26.0869 25.0707 27.293 26.1351 29.2034C26.122 29.2157 26.1093 29.2285 26.0966 29.2413C26.0813 29.2567 26.066 29.2722 26.0499 29.2869ZM20.8194 24.348C23.4638 24.348 25.8812 25.6828 27.3142 27.8254C28.1751 26.548 28.6455 25.0445 28.6455 23.4784C28.6455 19.1636 25.1342 15.6523 20.8194 15.6523C16.5047 15.6523 12.9934 19.1636 12.9934 23.4784C12.9934 25.0454 13.4638 26.5497 14.3247 27.8263C15.7577 25.6828 18.1751 24.348 20.8194 24.348Z" fill="black"/>
</svg>
