<?xml version="1.0" encoding="UTF-8"?>
<svg width="93px" height="35px" viewBox="0 0 93 35" version="1.1" xmlns="http://www.w3.org/2000/svg" xmlns:xlink="http://www.w3.org/1999/xlink">
    <!-- Generator: Sketch 55 (78076) - https://sketchapp.com -->
    <title>Group 24</title>
    <desc>Created with Sketch.</desc>
    <defs>
        <polygon id="path-1" points="0.145685246 0.0514734177 12.9339344 0.0514734177 12.9339344 16.9768025 0.145685246 16.9768025"></polygon>
    </defs>
    <g id="Design" stroke="none" stroke-width="1" fill="none" fill-rule="evenodd">
        <g id="MobileNavigation" transform="translate(-141.000000, -662.000000)">
            <g id="Group-24" transform="translate(141.000000, 662.000000)">
                <path d="M13.545551,5.51405467 C11.8927039,4.50564312 10.189549,4.38559412 9.26295294,4.38559412 C7.35945291,4.38559412 6.95876272,5.27395668 6.95876272,5.94623105 C6.95876272,7.0026622 7.73532159,7.29099226 10.6152823,7.72295617 C13.4954647,8.15534502 16,9.33182517 16,12.7174193 C16,16.1990526 12.5187824,18 9.11269412,18 C6.75841763,18 4.30419021,17.6396405 2,15.6948468 L4.22883918,12.8614781 C5.8568647,14.2540464 7.53475487,14.6144059 9.31303921,14.6144059 C10.991151,14.6144059 11.9427902,13.8458798 11.9427902,12.9575173 C11.9427902,12.1411841 11.6670941,11.324851 9.56347058,11.1327726 C6.25755489,10.8206452 3.12694116,9.88405054 3.12694116,6.13830944 C3.12694116,2.58464673 6.30764116,1 9.16278039,1 C11.2916686,1 13.4704216,1.38415678 15.3236137,2.56063693 L13.545551,5.51405467 Z" id="Fill-1" fill="#000000"></path>
                <polygon id="Fill-3" fill="#000000" points="28.5025148 18 24.05445 10.7699261 21.8055981 13.2613632 21.8055981 18 18 18 18 1 21.8055981 1 21.8055981 8.2787052 21.8550186 8.32755267 24.4745244 5.17667476 28.0577302 1 32.6540564 1 26.6243166 7.88792544 33 18"></polygon>
                <polygon id="Fill-5" fill="#000000" points="44.2625183 18 44.2625183 11.0632271 37.7864358 11.0632271 37.7864358 18 34 18 34 1 37.7864358 1 37.7864358 7.81465424 44.2625183 7.81465424 44.2625183 1 48 1 48 18"></polygon>
                <g id="Group-9" transform="translate(80.000000, 1.000000)">
                    <mask id="mask-2" fill="white">
                        <use xlink:href="#path-1"></use>
                    </mask>
                    <g id="Clip-8"></g>
                    <path d="M6.86498033,3.40735949 L3.85452131,3.40735949 L3.85452131,7.44410633 L6.9613082,7.44410633 C8.18948852,7.44410633 9.1770623,6.66597975 9.1770623,5.42562532 C9.1770623,4.0639038 8.33419344,3.40735949 6.86498033,3.40735949 M7.12988197,10.7999924 L3.85452131,10.7999924 L3.85452131,16.9768025 L0.145685246,16.9768025 L0.145685246,0.0514734177 L7.05763607,0.0514734177 C10.5978984,0.0514734177 12.9340623,2.1429038 12.9340623,5.49878987 C12.9340623,8.56287848 10.3327836,10.7999924 7.12988197,10.7999924" id="Fill-7" fill="#000000" mask="url(#mask-2)"></path>
                </g>
                <path d="M59,18 C54.0374421,18 50,13.9626084 50,8.99988737 C50,4.0373916 54.0374421,0 59,0 C60.4522087,0 61.5579777,0.245297894 62.7349268,0.838382701 C61.4539106,1.71303075 60.470229,2.80549611 59.8068577,4.09145174 C59.6239519,4.05518639 59.4838443,4.04752787 59.3140033,4.04752787 L59,4.04932988 C56.2701539,4.04932988 54.0491553,6.27030071 54.0491553,8.99988737 C54.0491553,11.7296993 56.2701539,13.9506701 59,13.9506701 C61.5239645,13.9506701 64.3168815,12.4320306 64.4851458,9.09764613 C64.4876236,9.08390585 64.9394819,6.10046176 67.272882,5.32965424 C67.7947941,6.40635207 68,7.45241581 68,8.99988737 C68,13.9626084 63.9625579,18 59,18" id="Fill-10" fill="#000000"></path>
                <path d="M69,18 C67.546665,18 66.5406833,17.7740708 65.3103491,17.1509573 C66.9571768,16.3880741 67.776874,15.2722563 68.3938431,14.1564385 C68.4965586,14.1802653 68.5612064,14.1896258 68.6301339,14.1896258 C68.6609936,14.1896258 68.6923038,14.1877112 68.7319484,14.1849456 C68.7887123,14.1809035 68.8661995,14.175585 69,14.175585 C71.7298461,14.175585 73.9508447,12.078188 73.9508447,9.5 C73.9508447,6.92181204 71.7298461,4.82441497 69,4.82441497 C64.0507321,4.82441497 63.7711926,9.57701164 63.7576774,9.9327118 C63.4551621,11.1834063 62.4856714,12.0760606 60.7145038,12.7315104 C60.2016018,11.678238 60,10.7570767 60,9.5 C60,4.81313978 64.0374421,1 69,1 C73.9625579,1 78,4.81313978 78,9.5 C78,14.1868602 73.9625579,18 69,18" id="Fill-12" fill="#000000"></path>
                <path d="M2.79080469,30.0537749 L2.80011624,30.0809567 C2.81873935,30.1828348 2.8841419,30.2802183 2.99588051,30.3731072 C3.10761911,30.4662101 3.21625387,30.5126545 3.32200648,30.5126545 C3.40891428,30.5126545 3.48030284,30.4687784 3.53617214,30.3820964 C3.59226314,30.2952004 3.63549534,30.184119 3.66675555,30.0492803 C3.69757235,29.9144417 3.72107293,29.7601263 3.73659218,29.5859061 C3.75188972,29.4121141 3.76452683,29.238322 3.77383838,29.0643159 C3.78314993,28.8903098 3.79090955,28.7240088 3.79711725,28.5649848 C3.80332495,28.4063888 3.81596206,28.2698379 3.83436346,28.1559741 L4.14186632,26.3118947 L4.23498183,25.9521109 L4.42143454,25.2595109 C4.44005764,25.2293328 4.45712882,25.187597 4.47264807,25.1334475 C4.48816732,25.079512 4.5114462,25.0465514 4.5424847,25.0345658 C4.6107694,25.0046016 4.67617196,24.9836267 4.73824896,24.971427 C4.80032596,24.9594414 4.86550682,24.9534486 4.93401322,24.9534486 C5.17611354,24.9534486 5.37032587,24.9579432 5.51620683,24.9669324 C5.66230949,24.9759217 5.78956735,24.9866231 5.8982021,24.9986088 C6.00705856,25.0108085 6.10638177,25.0240783 6.19639342,25.0388464 C6.28640508,25.0540425 6.39348791,25.0705228 6.51808532,25.0885013 L6.77880873,25.0974905 C6.80363953,25.0974905 6.82691841,25.0989887 6.84864536,25.1017711 C6.87037231,25.1049815 6.89054734,25.1064797 6.90939214,25.1064797 C6.96526145,25.1064797 7.00716342,25.0959923 7.03509807,25.0748034 C7.06303273,25.0540425 7.07079235,25.0018193 7.05837695,24.9174916 C7.00849364,24.7075285 6.87680172,24.5549254 6.66241435,24.458612 C6.44802699,24.3629408 6.2010492,24.3149981 5.92170268,24.3149981 C5.72904227,24.3149981 5.53815549,24.3239874 5.34859892,24.3419659 C5.15904236,24.3597303 4.99586852,24.3687196 4.85952082,24.3687196 C4.78480671,24.3687196 4.72428164,24.364439 4.67772388,24.3554497 C4.63094443,24.3464605 4.6045617,24.3269838 4.5985757,24.2970196 C4.5985757,24.2668415 4.60145785,24.248863 4.60788725,24.2428701 L4.67306811,24.1170207 C4.6852618,24.0870566 4.68836566,24.0630852 4.68237966,24.0451067 C4.66996426,23.9969501 4.60788725,23.9657017 4.49592695,23.9505056 C4.38418834,23.9355236 4.26313818,23.9280325 4.13255477,23.9280325 L3.6388209,23.9280325 C3.6139901,23.9340254 3.58583374,23.9609931 3.55501694,24.0091498 C3.52375674,24.0568784 3.50202979,24.0810637 3.48961439,24.0810637 C3.47719898,24.1711702 3.39494696,24.2400878 3.2428583,24.2880304 C3.09054794,24.335973 2.91185485,24.3702178 2.70700074,24.3914067 C2.50192493,24.4125956 2.29219334,24.4288619 2.07802768,24.4406335 C1.86364031,24.4528332 1.02316203,24.4676013 0.886592626,24.4857938 L0.280898439,24.5846755 C0.237444537,24.6206325 0.196872781,24.6523088 0.159626579,24.6792766 C0.122380377,24.7062443 0.0897899508,24.733212 0.0618552995,24.7601798 C0.0336989445,24.7871475 0.0152975472,24.8186099 0.00598599672,24.8545669 C-0.00332555373,24.8905238 -0.00177362866,24.9386805 0.010641772,24.9986088 L0.0199533224,25.043555 C0.0447841236,25.1634116 0.119276527,25.2802718 0.243430533,25.3943496 C0.367806243,25.5084274 0.51058335,25.5651453 0.672205262,25.5651453 L0.709451463,25.5651453 C0.721866864,25.5651453 0.734282265,25.5623629 0.746697665,25.556156 L0.886592626,25.4842421 L2.63250834,25.2053614 C2.65113144,25.2053614 2.67751416,25.2025791 2.71165652,25.1965862 C2.74579887,25.1903794 2.78459699,25.1843865 2.8280509,25.1783937 C2.8715048,25.1724009 2.91030292,25.166408 2.94466698,25.1604152 C2.97858763,25.1544224 3.00519206,25.151426 3.02381516,25.151426 L3.03312671,25.151426 C3.03911271,25.151426 3.06571714,25.1499278 3.11227489,25.1467173 C3.15883264,25.1439349 3.19164477,25.1424367 3.21026787,25.1424367 C3.22246157,25.1424367 3.2488443,25.1439349 3.28941605,25.1467173 C3.3297661,25.1499278 3.35592713,25.1544224 3.36834253,25.1604152 L3.34062958,25.4572743 L3.03312671,26.9053989 C3.02669731,26.9235914 3.01915938,26.9548397 3.00984783,27 C3.00053628,27.0449462 2.99122473,27.0913907 2.98191318,27.1393333 C2.97237993,27.1872759 2.9646203,27.2322222 2.9584126,27.274386 C2.95242661,27.3163358 2.94932276,27.3463 2.94932276,27.3642785 C2.89943945,27.7420408 2.86840095,28.1215153 2.85598555,28.50206 C2.84357015,28.8828188 2.82494705,29.2652897 2.80011624,29.6488309 C2.79390854,29.7331585 2.78614892,29.8018621 2.77683737,29.8557975 C2.76752582,29.909733 2.77218159,29.9758682 2.79080469,30.0537749 L2.79080469,30.0537749 Z M8.28727991,30.2645941 C8.28727991,30.2010273 8.26510955,30.1303976 8.22121224,30.0527048 C8.16246079,29.9467601 8.1261014,29.8761303 8.11878518,29.8408155 L7.94297424,29.1201776 C7.86249584,28.8515704 7.73080392,28.6396811 7.55499297,28.4909305 C7.37918203,28.342822 7.22554145,28.2651292 7.10094404,28.2651292 C6.97656833,28.2651292 6.82292775,28.3567339 6.63980059,28.5476483 C6.63248437,28.3849858 6.61807364,28.0742148 6.58858706,27.6146931 C6.56686011,27.2262293 6.55200597,26.9152443 6.55200597,26.682166 C6.55200597,26.5901332 6.55954389,26.4488737 6.58127084,26.2581733 C6.6032195,26.0674728 6.61053571,25.9259993 6.61053571,25.8341805 C6.61053571,25.4455027 6.44226269,25.2475253 6.10593836,25.2475253 C5.85740864,25.2475253 5.73303293,25.3960619 5.73303293,25.6927069 C5.73303293,25.9544652 5.73303293,26.342929 5.74034915,26.8587404 C5.74744367,27.3745519 5.74744367,27.7632297 5.74744367,28.0247739 C5.74744367,28.1165926 5.75498159,28.2578522 5.76229781,28.4487667 C5.76961403,28.6396811 5.77693024,28.7877896 5.77693024,28.8868853 C5.77693024,28.99283 5.76961403,29.1552785 5.75498159,29.3673819 C5.74034915,29.5792712 5.73303293,29.7417197 5.73303293,29.8476644 C5.73303293,30.0527048 5.76229781,30.2010273 5.81351134,30.2859971 C5.8791356,30.3919418 6.01814374,30.4484456 6.23031407,30.4484456 C6.45711683,30.4484456 6.63248437,30.2645941 6.74976556,29.8902563 C6.83756018,29.6006742 6.95484138,29.3673819 7.10094404,29.1908074 C7.15237927,29.2682862 7.21090901,29.4380117 7.27675498,29.6995559 C7.35013886,29.996201 7.40866861,30.2010273 7.45988214,30.3074001 C7.55499297,30.4978865 7.67959039,30.5969822 7.83323097,30.5969822 C7.94297424,30.5969822 8.045623,30.5687303 8.13341762,30.5049494 C8.22121224,30.4415967 8.26510955,30.3636899 8.26510955,30.2645941 L8.28727991,30.2645941 Z M11.4795898,27.3041361 C11.4795898,26.8026647 11.1940356,26.5550324 10.6231488,26.5550324 C10.2642108,26.5550324 9.94207545,26.7388838 9.64920501,27.1134357 C9.50288065,27.2970731 9.41508603,27.4032318 9.38582116,27.4244208 C9.31975349,27.4809246 9.26853996,27.5727433 9.23195887,27.700091 C9.19537778,27.8274386 9.17342913,27.8910054 9.16611291,27.8980684 C9.15879669,27.9051314 9.09295072,27.9190433 8.97566953,27.9402322 C8.85861004,27.9616352 8.77790993,27.9828241 8.73423433,28.0040131 C8.6023207,28.024988 8.53647473,28.0887688 8.53647473,28.2019905 C8.53647473,28.3218471 8.65353422,28.4776607 8.88055869,28.6683611 L8.88055869,28.7034619 C8.88787491,28.7743057 8.88055869,28.8731874 8.85861004,28.9934721 C8.82934517,29.1278827 8.81471273,29.2267644 8.81471273,29.2903312 C8.81471273,29.5871903 8.93177222,29.8485205 9.16611291,30.0672588 C9.40023189,30.2859971 9.67115367,30.3990048 9.97865654,30.3990048 C10.1032539,30.3990048 10.2203134,30.3780299 10.3375946,30.342715 C10.5058677,30.2859971 10.7036273,30.1588635 10.9377462,29.9544652 C11.1940356,29.7282359 11.3257275,29.5445984 11.3257275,29.3964899 C11.3257275,29.2762053 11.2452491,29.2197014 11.0916085,29.2197014 C10.9231138,29.2197014 10.7328921,29.3044572 10.5131839,29.4671197 C10.2934756,29.6295682 10.139835,29.7143239 10.0445025,29.7143239 C9.81769974,29.7143239 9.70064024,29.4671197 9.70064024,28.9791321 C9.70064024,28.8661245 9.70795646,28.8025577 9.71505098,28.7954947 C9.91281057,28.7319279 10.0886215,28.682487 10.2422621,28.6542351 C10.5570812,28.5268875 10.8353192,28.350313 11.0696599,28.1311467 C11.3478979,27.8627535 11.486906,27.5870833 11.486906,27.3041361 L11.4795898,27.3041361 Z M10.6743624,27.3820429 C10.6743624,27.4950506 10.5936623,27.6082722 10.4253893,27.7214939 C10.3083298,27.7991867 10.1764161,27.8627535 10.0300918,27.9121943 C10.0813053,27.7921237 10.1544675,27.6647761 10.2568945,27.5305795 C10.3888082,27.367917 10.5058677,27.2831612 10.6082947,27.2831612 L10.652192,27.2831612 C10.6668245,27.3184761 10.6743624,27.3469421 10.6743624,27.3747659 L10.6743624,27.3820429 Z M22.3439521,26.6329392 C22.2488413,26.4559366 22.1169277,26.3711809 21.9559709,26.3711809 C21.8901249,26.3711809 21.7730654,26.3925839 21.5972545,26.4420247 L21.2239056,26.5267805 C21.0846758,26.5620954 20.9749325,26.6256622 20.8944541,26.7176949 C20.8432406,26.7810477 20.7332756,26.8730804 20.5723188,26.9931511 C20.4623538,27.0779068 20.3457377,27.2405693 20.2725756,27.3747659 C20.2725756,27.3747659 19.9426806,27.7127187 19.9131941,27.7762855 C19.8912454,27.8259404 19.7010237,27.2549093 19.6717589,27.4032318 C19.6495885,27.3114131 19.6278615,27.2127455 19.6132291,27.1063727 C19.5473831,26.7320349 19.1081884,26.1027877 18.8811639,26.1027877 C18.7492503,26.1027877 18.6321908,26.1592916 18.529542,26.2652362 C18.4271149,26.3711809 18.3759014,26.4912515 18.3759014,26.6185992 C18.3759014,26.7106319 18.4051663,26.7881107 18.4710123,26.8587404 C18.5809772,27.1485366 18.6614556,27.2763123 18.7126692,27.4248488 L19.0933342,29.3894269 C19.1738126,29.7639788 19.2106154,30.1518005 19.2106154,30.3707528 C19.2106154,30.3919418 19.2106154,30.4274707 19.2030775,30.4769116 C19.195983,30.5263524 19.195983,30.5616673 19.195983,30.5828562 C19.195983,30.8373375 19.364256,30.9644711 19.7010237,30.9644711 C19.7817238,30.9644711 19.8475698,30.9576221 19.8987833,30.9362192 C20.0377915,30.7947456 20.1477564,30.4415967 20.2282349,29.8763444 C20.3233457,29.2117823 20.3965079,28.7250789 20.4477214,28.5977313 C20.4991566,28.5061266 20.5430539,28.4423458 20.579635,28.3999679 C20.6601134,28.2514313 20.7332756,28.1662475 20.7991216,27.9612071 C20.8576513,27.7775697 20.9161811,27.6431591 20.9676163,27.5513404 C21.0554109,27.4100808 21.2092732,27.2615442 21.4214435,27.1063727 C21.4436139,27.0425919 21.5972545,26.9790251 21.8828087,26.9154583 C22.1683629,26.8516775 22.3146873,26.7598587 22.3220035,26.6329392 L22.3439521,26.6329392 Z M23.6539986,26.3778158 C23.6539986,26.3001231 23.6171958,26.2294933 23.5440336,26.1659265 C23.4708714,26.1023597 23.4342904,26.0670448 23.4342904,26.0599818 C23.4342904,26.0458559 23.4342904,26.0246669 23.4416066,25.996415 L23.4416066,25.9328482 C23.4342904,25.8269035 23.3757606,25.7421478 23.2657956,25.678795 C23.1560524,25.6150142 23.0389929,25.5867623 22.9146172,25.5867623 C22.6880361,25.5867623 22.5709766,25.685858 22.5709766,25.8834074 C22.5709766,26.0458559 22.6516767,26.2224303 22.819728,26.4060677 C22.988001,26.5894911 23.1560524,26.6813099 23.3243254,26.6813099 C23.4196579,26.6813099 23.4928201,26.653272 23.5513498,26.5967682 C23.6098796,26.5402643 23.6393662,26.4696345 23.6393662,26.3778158 L23.6539986,26.3778158 Z M23.3025984,29.952753 C23.3025984,29.8679972 23.287966,29.7616245 23.2657956,29.6272139 C23.2292145,29.4429343 23.2072659,29.3365616 23.2072659,29.3012467 C23.1633686,28.862486 23.1341037,28.5294558 23.1194713,28.3100754 C23.112155,28.1827278 23.1048388,28.111884 23.0975226,28.097544 C23.0316766,27.9631334 22.9002064,27.8922896 22.7026685,27.8922896 C22.4466009,27.8922896 22.3224469,28.0127883 22.3224469,28.2606346 C22.3224469,28.3100754 22.3295414,28.3809193 22.3517118,28.479801 C22.3736604,28.5791107 22.3809766,28.6570175 22.3809766,28.7135213 C22.3809766,29.0041736 22.3809766,29.1668361 22.3882929,29.195088 C22.3956091,29.2233399 22.417336,29.3155867 22.4539171,29.4641233 C22.4760875,29.570496 22.4904982,29.6554658 22.4904982,29.7192466 C22.4904982,29.7545615 22.4834037,29.8112794 22.4685495,29.8819091 C22.4539171,29.952753 22.4466009,30.0024078 22.4466009,30.0379368 C22.4466009,30.1580074 22.4904982,30.2571031 22.585609,30.3422869 C22.6807199,30.4272567 22.7902414,30.4696345 22.9146172,30.4696345 C23.1706848,30.4696345 23.3025984,30.299695 23.3025984,29.96003 L23.3025984,29.952753 Z M27.6366818,29.1203917 C27.2196573,29.2616512 26.9855383,29.346407 26.9270086,29.3817219 L26.7882221,29.332281 C26.7516411,28.9791321 26.8086189,29.0018193 26.7866702,28.6413933 L26.7882221,28.2015624 L26.5906843,26.9083953 C26.4660868,26.3076141 26.2317462,26.010755 25.8874405,26.010755 L25.557989,26.1522286 C25.5214079,26.1875435 25.4846051,26.3076141 25.448024,26.5055915 C25.3675456,26.349992 25.2283157,26.2722992 25.0305561,26.2722992 C24.8476507,26.2722992 24.7376857,26.3290171 24.7011046,26.4349617 L24.7011046,26.4278988 L24.6937884,26.4349617 C24.6425749,26.4841886 24.5984559,26.5620954 24.5545586,26.66804 C24.5106612,26.7739847 24.4740802,26.8448285 24.4374991,26.8801434 C24.3494827,26.9154583 24.3055854,26.9860881 24.3055854,27.0920327 C24.3055854,27.1134357 24.2763206,27.1697255 24.2104746,27.2617583 C24.1373124,27.3677029 24.1007313,27.4242068 24.0931934,27.4312697 C24.0348854,27.5372144 23.9836718,27.7069399 23.9397745,27.9331692 C23.8958772,28.1379956 23.8741503,28.3145701 23.8741503,28.4560437 C23.8741503,28.6184922 23.9034151,28.7385628 23.9690394,28.8094066 C24.0348854,28.8800364 24.1519448,28.9155653 24.3202179,28.9155653 C24.3933801,28.9155653 24.4740802,28.9082883 24.5545586,28.8870994 C24.781583,28.8305955 24.9939751,28.7032479 25.1919564,28.5125475 C25.2724348,28.4277917 25.3236483,28.3783509 25.3382807,28.3712879 C25.3894942,28.335973 25.4260753,28.3077211 25.448024,28.2933811 C25.4994592,28.2441543 25.5653052,28.1379956 25.6530998,27.9755471 C25.7411161,27.8128846 25.7996459,27.692814 25.8215945,27.6149072 C25.8801243,27.8411365 25.9242433,28.1168067 25.9608244,28.4489807 L26.0339866,29.2901172 C26.0339866,29.3181551 26.0413028,29.3746589 26.0632514,29.4596287 C26.0852001,29.5441704 26.092738,29.6150142 26.092738,29.664455 C26.092738,29.6999839 26.0852001,29.7282359 26.0781056,29.7492108 C26.0705677,29.7706137 25.8581756,29.8906844 25.4409295,30.1027877 C25.0966238,30.2793622 25.0893076,30.349992 25.0893076,30.349992 C25.0378724,30.3853069 24.9720264,30.4418107 24.891548,30.5126545 L24.0348854,31.3182621 C23.8229367,31.5374284 23.6839286,31.7775697 23.6107664,32.0318369 C23.5376042,32.2865322 23.5012448,32.682059 23.5012448,33.2192734 C23.5012448,33.2828402 23.5156556,33.346407 23.5449204,33.4099738 L23.6034502,33.4455027 C23.7131935,33.7421478 23.7863556,33.9116593 23.8156205,33.9542512 C23.9253638,34.0531329 24.0129367,34.1239767 24.0787827,34.1661405 L24.0787827,34.2438333 C24.1444069,34.2934881 24.2175691,34.342715 24.2982692,34.3853069 C24.4960288,34.5124405 24.6425749,34.6115362 24.7376857,34.682166 C24.9208129,34.7739847 25.1919564,34.8516775 25.5431348,34.9152443 C25.8654918,34.9719621 26.1437298,35 26.3782922,35 C26.7370086,35 26.9782221,34.9364332 27.0952816,34.8022366 C27.299914,34.5618813 27.4023411,34.2085184 27.4023411,33.7494248 C27.4023411,33.4947295 27.36576,33.1908074 27.299914,32.8376585 L27.1172303,31.9400182 C27.109914,31.8060356 27.1025978,31.7069399 27.1025978,31.6363101 C27.0952816,31.5866553 27.0660167,31.4948365 27.0148032,31.3604259 C26.9782221,31.2544812 26.9562735,31.1626625 26.9562735,31.0847557 C26.9489572,30.9788111 26.9196924,30.8163626 26.8613843,30.5971962 C26.8028546,30.3784579 26.7735897,30.2157954 26.7735897,30.1027877 C26.7735897,30.0317299 26.7809059,29.9825031 26.7953167,29.9471882 C26.8831113,29.8836214 26.9635897,29.8269035 27.0440681,29.7776767 C27.2706491,29.6432661 27.4608708,29.4313767 27.6218276,29.1415806 L27.6366818,29.1203917 Z M25.1771022,27.1555996 C25.0378724,27.5301514 24.9061804,27.7846327 24.781583,27.9188293 C24.9281291,27.5018995 25.059821,27.2476323 25.1844184,27.1626625 L25.1771022,27.1555996 Z M26.6784789,33.4664776 C26.6784789,33.5867623 26.6638464,33.7350848 26.6272653,33.9045963 C26.5977788,34.0531329 26.5685139,34.2016694 26.5319328,34.3497779 C26.5028896,34.3711809 26.4441382,34.3853069 26.3636598,34.3853069 C26.261011,34.3853069 26.114465,34.3641179 25.9315595,34.328803 C25.4409295,34.2228584 25.0966238,34.1025737 24.8988642,33.9681631 C24.6645235,33.8057146 24.4667639,33.5161325 24.2982692,33.0992027 C24.2470557,32.9650062 24.2175691,32.8305955 24.2175691,32.7032479 C24.2175691,32.5054845 24.2836368,32.2935952 24.4155504,32.0600888 C24.4811747,31.9400182 24.61331,31.7561667 24.8108479,31.5089625 C24.891548,31.4030178 25.0086075,31.2897961 25.1624698,31.1697255 C25.4041267,30.9788111 25.5287241,30.8799294 25.5358186,30.8728664 L25.7116296,30.689229 L26.1437298,30.349992 C26.261011,31.1202847 26.3490274,31.6502221 26.4075571,31.9400182 L26.5760518,32.696399 C26.6345816,32.99283 26.6638464,33.2475253 26.6638464,33.4594146 L26.6784789,33.4664776 Z M29.2983501,26.3778158 C29.2983501,26.3001231 29.261769,26.2294933 29.1886068,26.1659265 C29.1154447,26.1023597 29.0788636,26.0670448 29.0788636,26.0599818 C29.0788636,26.0458559 29.0788636,26.0246669 29.0861798,25.996415 L29.0861798,25.9328482 C29.0788636,25.8269035 29.0203338,25.7421478 28.9103688,25.678795 C28.8006256,25.6150142 28.6835661,25.5867623 28.5591904,25.5867623 C28.3326093,25.5867623 28.2155498,25.685858 28.2155498,25.8834074 C28.2155498,26.0458559 28.2960282,26.2224303 28.4643012,26.4060677 C28.6323525,26.5894911 28.8006256,26.6813099 28.9688986,26.6813099 C29.0642311,26.6813099 29.1373933,26.653272 29.1959231,26.5967682 C29.2544528,26.5402643 29.2839394,26.4696345 29.2839394,26.3778158 L29.2983501,26.3778158 Z M28.9471716,29.952753 C28.9471716,29.8679972 28.9323175,29.7616245 28.9103688,29.6272139 C28.8737877,29.4429343 28.8518391,29.3365616 28.8518391,29.3012467 C28.8079418,28.862486 28.7786769,28.5294558 28.7638228,28.3100754 C28.7567283,28.1827278 28.749412,28.111884 28.7420958,28.097544 C28.6762499,27.9631334 28.5447796,27.8922896 28.34702,27.8922896 C28.0911741,27.8922896 27.9667984,28.0127883 27.9667984,28.2606346 C27.9667984,28.3100754 27.9741146,28.3809193 27.9960633,28.479801 C28.0180119,28.5791107 28.0253281,28.6570175 28.0253281,28.7135213 C28.0253281,29.0041736 28.0253281,29.1668361 28.0326444,29.195088 C28.0401823,29.2233399 28.0619092,29.3155867 28.0984903,29.4641233 C28.120439,29.570496 28.1350714,29.6554658 28.1350714,29.7192466 C28.1350714,29.7545615 28.1277552,29.8112794 28.1131228,29.8819091 C28.0984903,29.952753 28.0911741,30.0024078 28.0911741,30.0379368 C28.0911741,30.1580074 28.1350714,30.2571031 28.2301822,30.3422869 C28.3252931,30.4272567 28.4348147,30.4696345 28.5591904,30.4696345 C28.815258,30.4696345 28.9471716,30.299695 28.9471716,29.96003 L28.9471716,29.952753 Z M33.551955,30.1303976 C33.551955,29.996201 33.4127252,29.9255712 33.1273927,29.9255712 C33.0174277,29.9255712 32.9150006,29.9396971 32.8198898,29.9679491 C32.6074978,29.642838 32.4682679,29.0987747 32.402422,28.335759 C32.3658409,27.9047033 32.2926787,27.5868693 32.1756192,27.3818289 C32.1534488,27.339237 32.1097732,27.2900102 32.0437056,27.2264434 C32.0366111,27.1485366 32.0217569,27.0920327 31.9998083,27.0567179 C31.9559109,27.021403 31.9120136,26.9860881 31.8681163,26.9507732 C31.8020487,26.8730804 31.7362027,26.8024506 31.6703567,26.7318209 C31.6045108,26.660977 31.4947675,26.6256622 31.3409052,26.6256622 C31.1214187,26.6256622 30.9309753,26.7598587 30.7773347,27.021403 C30.6966346,27.1555996 30.6015238,27.3745519 30.4917805,27.685751 C30.4917805,27.5089625 30.4917805,27.332388 30.4844643,27.1555996 C30.4769263,26.8942694 30.4551994,26.7318209 30.4186183,26.660977 L30.2869264,26.6397881 C30.2430291,26.5976243 30.1991318,26.5550324 30.1552345,26.5197175 C30.1113371,26.4844026 30.0454912,26.4632137 29.9650128,26.4632137 C29.7969615,26.4632137 29.679902,26.5267805 29.614056,26.660977 C29.5994236,26.689229 29.5923291,26.7812617 29.5923291,26.9366472 C29.5923291,27.5372144 29.614056,27.9682701 29.6579533,28.2298143 C29.7091668,28.4487667 29.7530642,28.6114292 29.782329,28.7173739 L29.8701236,29.5298304 C29.9359696,29.9045963 30.038175,30.1303976 30.1844993,30.2083044 C30.2503453,30.2436192 30.3381399,30.2575312 30.440567,30.2575312 C30.5795751,30.2575312 30.6820022,30.2224303 30.7551643,30.1445235 C30.8285482,30.0670448 30.8724455,29.8975333 30.8943942,29.6357751 C30.9090266,29.4519236 30.9236591,29.2685002 30.9456077,29.0848628 C30.989505,28.9433892 31.0260861,28.8372305 31.0626672,28.7738777 C31.0919321,28.660656 31.1360511,28.4699556 31.1945808,28.1942854 C31.2457944,27.9468671 31.2896917,27.7563808 31.3338107,27.6221842 C31.4140674,27.8976403 31.4655026,28.1097437 31.4799134,28.2578522 C31.677673,29.0705228 31.7803217,29.5510193 31.7803217,29.6995559 C31.7803217,29.8264755 31.824219,29.9608861 31.9120136,30.0950827 C32.0585597,30.314249 32.1317219,30.4343197 32.1388164,30.4555086 C32.1756192,30.5192894 32.2195165,30.5687303 32.27073,30.6038311 C32.2926787,30.6252341 32.3512084,30.653486 32.446541,30.6888009 C32.4538572,30.6888009 32.5050707,30.7097758 32.6001816,30.7596447 C32.6660275,30.7878966 32.717241,30.8018086 32.7613601,30.8018086 C32.8125736,30.8018086 32.8784196,30.7947456 32.958898,30.7735566 C32.9808466,30.7382417 33.0905899,30.646423 33.2956657,30.4978865 C33.4785712,30.3636899 33.5665875,30.2506822 33.5665875,30.1515865 L33.551955,30.1303976 Z M36.5533781,30.7878966 C36.5533781,30.7453047 36.5021646,30.6322971 36.3924213,30.4484456 C36.2824564,30.3848788 36.2021997,30.1941784 36.1580806,29.8761303 C36.1507644,29.7984376 36.136132,29.5792712 36.1141833,29.2117823 C36.0922347,29.0634598 36.070286,28.9504521 36.0483374,28.8727594 C36.0188508,28.6891219 36.0044401,28.4417037 36.0044401,28.1377816 C36.0044401,27.8197335 36.0337049,27.6431591 36.0995509,27.6009952 C36.0629698,27.5089625 36.0410212,27.4524587 36.0337049,27.4383327 C36.0410212,27.4242068 36.0483374,27.3891059 36.0483374,27.339237 C36.0483374,27.3041361 36.0483374,27.2688212 36.0410212,27.2264434 C35.9091075,26.9931511 35.7700994,26.8801434 35.6235533,26.8801434 C35.5359804,26.8801434 35.4406479,26.9154583 35.3453153,26.9792391 C35.1697261,26.7883247 34.9941368,26.696506 34.8110097,26.696506 C34.4888744,26.696506 34.2035419,26.9931511 33.9476959,27.5939323 C33.7355256,28.0883407 33.626004,28.5193964 33.626004,28.8939483 C33.626004,29.0705228 33.6406365,29.2896891 33.6699013,29.5510193 C33.7062607,29.8902563 33.7574743,30.0880197 33.8233202,30.1515865 C33.9330635,30.2506822 34.1376959,30.3001231 34.4449771,30.3001231 C34.4596095,30.3001231 34.4669257,30.2859971 34.4669257,30.2506822 C34.4669257,30.2292793 34.4669257,30.2010273 34.4596095,30.1657125 L34.4669257,30.1586495 L34.4744636,30.2930601 C34.6500529,30.2645941 34.8039152,30.2010273 34.9356071,30.1094227 C34.9941368,30.0670448 35.1111963,29.9538231 35.2941018,29.7631227 C35.411383,30.1871154 35.4991776,30.4625716 35.5652453,30.5899192 C35.7262021,30.9362192 35.9312779,31.1057306 36.180251,31.1057306 C36.2458753,31.1057306 36.3192592,31.0916047 36.3997376,31.0704158 L36.4290024,30.98566 C36.5094808,30.9148162 36.5533781,30.8441864 36.5533781,30.7735566 L36.5533781,30.7878966 Z M35.1404612,28.3710739 C35.1404612,28.5405854 35.0085476,28.8303815 34.7524799,29.2400342 C34.7158988,29.3108781 34.6720015,29.3815078 34.6281042,29.4521376 C34.5620366,29.5510193 34.5035068,29.6006742 34.4522933,29.6006742 C34.3498662,29.6006742 34.2986527,29.4874525 34.2986527,29.2543742 C34.2986527,29.0848628 34.3206014,28.9080743 34.3644987,28.7244368 L34.4157122,28.667719 L34.5693528,28.0956177 C34.6354204,27.8623254 34.7158988,27.685751 34.8110097,27.5725293 C34.8988043,27.7775697 34.957334,27.8978544 34.9868206,27.9329552 C35.0380341,28.0603029 35.067299,28.1589705 35.0746152,28.2298143 L35.1258288,28.2651292 C35.133145,28.3006581 35.1404612,28.335759 35.1404612,28.3710739 L35.1404612,28.3710739 Z M38.0467735,29.1058377 C38.0467735,28.6041522 38.0028762,27.8550484 37.9077653,26.8585264 C37.8126545,25.8622184 37.7687572,25.1129006 37.7687572,24.6112152 C37.7687572,24.4913586 37.7831679,24.3145701 37.8126545,24.0742148 C37.8419194,23.8338595 37.8565518,23.657285 37.8565518,23.5372144 C37.8565518,23.4804965 37.8565518,23.4312697 37.8492356,23.3959548 C37.8419194,23.2825191 37.7760734,23.1909144 37.6590139,23.1130077 C37.5419544,23.0353149 37.4248949,23 37.3005192,23 C37.2056301,23 37.0958868,23.0423779 36.9715111,23.1273476 C36.8471354,23.2121034 36.7812894,23.3039221 36.7812894,23.4028038 C36.7812894,23.4522446 36.7886056,23.5301514 36.8032381,23.6290331 C36.8178705,23.7279148 36.8251867,23.7985446 36.8251867,23.8411365 C36.8764003,24.2933811 36.9202976,24.6324041 36.9568787,24.8588475 C36.979049,25.4452887 36.9861435,25.8834074 36.979049,26.1800524 C36.9861435,26.2718712 37.0154084,26.5404784 37.0666219,26.985874 C37.1107409,27.324897 37.1326896,27.5866553 37.1326896,27.7702927 L37.1326896,27.8762374 C37.1253734,27.9256782 37.1253734,27.9612071 37.1253734,27.982182 C37.1253734,28.1448446 37.1400058,28.3920488 37.1765869,28.7242228 C37.213168,29.0563968 37.2278004,29.3038151 37.2278004,29.4662636 L37.2278004,29.6357751 C37.2204842,29.7136818 37.2204842,29.7701857 37.2204842,29.8055006 C37.2204842,29.8549414 37.2278004,29.9255712 37.2424329,30.010541 C37.2568436,30.0952967 37.2643815,30.1657125 37.2643815,30.2153673 C37.2643815,30.2648082 37.2497491,30.328375 37.2204842,30.4133447 C37.1912193,30.4978865 37.1765869,30.5687303 37.1765869,30.6181711 C37.1765869,30.7241158 37.213168,30.8088715 37.2934247,30.8795013 C37.3739031,30.9503451 37.4690139,30.98566 37.5787572,30.98566 C37.6592356,30.98566 37.739714,30.9644711 37.8199707,30.9291562 C37.8787221,30.8088715 37.9153032,30.7241158 37.9299357,30.667612 L38.0101924,30.6466371 C38.0101924,30.4769116 38.0177303,30.2224303 38.0323627,29.8831933 C38.0467735,29.5439563 38.0543114,29.2967521 38.0543114,29.1340896 L38.0467735,29.1058377 Z M44.9433068,29.5375354 C44.9433068,29.4600567 44.9284527,29.3964899 44.8994095,29.346621 C44.8699229,29.2973942 44.7455472,29.2267644 44.5189661,29.1347317 C44.2704364,29.028787 44.1167958,28.9510942 44.0582661,28.9014393 C43.9997364,28.8519985 43.9044038,28.7954947 43.765174,28.7317138 C43.6261658,28.667933 43.5308333,28.6116432 43.486936,28.5619883 L42.8641706,27.9188293 C42.71053,27.7279148 42.5859326,27.4522446 42.4906001,27.0986677 C42.4393865,26.9148162 42.4101217,26.7594307 42.4101217,26.632083 C42.4101217,26.5685162 42.4174379,26.5049494 42.4320703,26.4413826 C42.4835056,26.2222163 42.5493515,26.0666167 42.6300516,25.974584 C42.7324787,25.8545134 42.886341,25.7980095 43.098733,25.7980095 C43.2745439,25.7980095 43.4357224,25.8757023 43.5749523,26.0242389 L43.91172,26.4555086 C44.0655823,26.632083 44.1387445,26.8300605 44.1387445,27.0492268 C44.1387445,27.0774787 44.1387445,27.1200706 44.1314283,27.1836374 C44.1243338,27.2472042 44.1243338,27.2895821 44.1243338,27.318048 C44.1243338,27.3957408 44.1314283,27.4875595 44.1462824,27.6005672 C44.5409148,27.4593076 44.738231,27.1907004 44.738231,26.8018086 C44.738231,26.4413826 44.4970175,26.0595537 44.0141471,25.649687 C43.5308333,25.2404623 43.0911951,25.0356359 42.6958976,25.0356359 C42.3296433,25.0356359 42.0593866,25.2190593 41.8762594,25.5861202 C41.7447892,25.8615763 41.6789433,26.2008133 41.6789433,26.6040452 C41.6789433,26.8512494 41.7228406,27.0845417 41.8177297,27.3037081 C42.0299,27.8126706 42.2128055,28.1662475 42.3662244,28.3712879 C42.5566677,28.6045802 42.8717085,28.8590615 43.3184412,29.1347317 C43.5969009,29.3115201 43.7359091,29.3964899 43.7359091,29.3894269 C43.7285929,29.3964899 43.7214984,29.3964899 43.7139604,29.3964899 C43.3257575,29.4527797 42.988768,29.4810316 42.6958976,29.4810316 C42.4101217,29.4810316 42.2272162,29.4457167 42.1469595,29.3821499 C42.095746,29.2903312 42.0664811,29.2197014 42.0593866,29.1629836 C42.0152676,28.9932581 41.971592,28.8943764 41.9350109,28.8661245 C41.8982081,28.8376585 41.7886865,28.8237466 41.6130973,28.8166836 C41.5326189,28.9791321 41.4887216,29.1347317 41.4887216,29.2759912 C41.4887216,29.4247418 41.5326189,29.5516614 41.6277297,29.6646691 C41.8837974,29.9752261 42.2932839,30.1303976 42.8641706,30.1303976 C43.0253491,30.1303976 43.3403899,30.1023597 43.809293,30.0527048 C44.314112,29.989352 44.614077,29.9399112 44.7089661,29.8975333 C44.8335635,29.8341805 44.8994095,29.7070469 44.8994095,29.5163465 L44.9433068,29.5375354 Z M48.9120226,30.0529188 C48.822011,29.9861416 48.7594906,29.9257852 48.6626061,29.7988656 C48.3582071,29.3999144 48.2329446,29.0696666 47.8935164,28.8156135 C47.6070753,28.6011558 47.3392574,28.313928 47.1417195,28.2351651 C46.938639,28.1544759 46.7515212,28.0534539 46.5978806,28.0040131 C46.7149401,27.8980684 46.8027347,27.8201616 46.8612645,27.7707207 C47.088289,27.5517684 47.3372621,27.2125314 47.6081839,26.7459468 C47.9081488,26.2301354 48.0546949,25.8485205 48.0546949,25.6008882 C48.0546949,25.1980844 47.9669003,24.993044 47.7910893,24.993044 C47.5860135,24.993044 47.4396891,25.0566108 47.3443566,25.1910215 C47.2931431,25.2689282 47.256562,25.4101878 47.2346133,25.6081652 C47.2126647,25.8059286 47.1760836,25.9401252 47.12487,26.003692 C47.0517079,26.0957248 46.9346484,26.2793622 46.7807861,26.5623094 C46.6490942,26.7953877 46.5244967,26.9721761 46.400121,27.0922468 L46.3928048,26.9721761 C46.3928048,26.675317 46.3928048,26.4490877 46.400121,26.3007652 L46.3123264,25.4172508 C46.2757453,25.0566108 46.2537967,24.7599658 46.2537967,24.5337364 C46.2537967,24.4631066 46.2611129,24.357162 46.2757453,24.2156884 C46.2903778,24.0744288 46.2974723,23.9682701 46.2974723,23.8905773 C46.2974723,23.5018995 46.1660021,23.3109851 45.895302,23.3109851 C45.7857804,23.3109851 45.6831317,23.3463 45.5882425,23.4100808 C45.49291,23.4736476 45.4272857,23.5584033 45.3907046,23.664348 C45.3980208,23.7351918 45.4126533,23.8058216 45.4346019,23.8835144 C45.4272857,23.9188293 45.4199695,23.9541441 45.4199695,23.9896731 C45.4199695,24.017711 45.4272857,24.0461769 45.4346019,24.0673658 C45.3980208,24.3147841 45.3833884,24.5690513 45.3833884,24.8305955 C45.3833884,25.0212959 45.3980208,25.2616512 45.4346019,25.5516614 C45.4858155,25.9471882 45.5150803,26.1804805 45.5226183,26.2583873 C45.5589776,26.7245438 45.5809263,26.9439242 45.5809263,26.9154583 C45.5809263,26.9439242 45.5809263,26.9863021 45.5738318,27.0498689 C45.5662939,27.1134357 45.5662939,27.1560276 45.5662939,27.1840655 C45.5662939,27.2478463 45.5738318,27.3469421 45.5955587,27.4738616 C45.6175074,27.6012093 45.6250453,27.700091 45.6250453,27.7636578 C45.6250453,27.8554765 45.5738318,27.9333833 45.471183,27.9969501 C45.368756,28.0605169 45.3175424,28.1452726 45.3175424,28.2512173 C45.3175424,28.349885 45.3468073,28.4205147 45.4126533,28.4626786 L45.6101912,28.5968752 C45.6175074,28.6182781 45.6250453,28.64653 45.6250453,28.6818449 C45.6250453,28.7169458 45.6175074,28.7663866 45.6101912,28.8299534 C45.6030967,28.8937343 45.5957804,28.9431751 45.5957804,28.97849 C45.5957804,29.0773717 45.6030967,29.2256943 45.6101912,29.4236717 C45.6175074,29.6214351 45.6250453,29.7770346 45.6250453,29.8829793 C45.6250453,30.4978865 45.8028516,29.9934186 45.7221515,30.50923 C45.6782542,30.7778372 45.6563055,30.9261598 45.6563055,30.9473487 C45.6563055,31.194767 45.7660488,31.3219006 45.9782191,31.3219006 C46.1025948,31.3219006 46.2050219,31.2653968 46.2781841,31.1523891 C46.6000977,30.6787415 46.5393509,31.0211889 46.5393509,30.0456418 C46.5393509,29.7770346 46.5244967,29.3459789 46.4881374,28.7522607 C46.8027347,28.7736637 46.9776589,28.9538766 46.9721163,28.949382 C47.1740882,29.1111884 47.3162002,29.2926855 47.6303542,29.5957515 C47.9442865,29.8990315 48.3351499,30.6162448 48.4890122,30.5948419 C48.862361,30.5173632 49.0339596,30.4961742 49.0851731,30.2068061 L48.9120226,30.0529188 Z M50.8585801,26.3778158 C50.8585801,26.3001231 50.821999,26.2294933 50.7488368,26.1659265 C50.6756746,26.1023597 50.6390935,26.0670448 50.6390935,26.0599818 C50.6390935,26.0458559 50.6390935,26.0246669 50.6464098,25.996415 L50.6464098,25.9328482 C50.6390935,25.8269035 50.5803421,25.7421478 50.4705988,25.678795 C50.3608555,25.6150142 50.243796,25.5867623 50.1194203,25.5867623 C49.8928393,25.5867623 49.7757798,25.685858 49.7757798,25.8834074 C49.7757798,26.0458559 49.8562582,26.2224303 50.0243095,26.4060677 C50.1925825,26.5894911 50.3608555,26.6813099 50.5291286,26.6813099 C50.6242394,26.6813099 50.6974016,26.653272 50.756153,26.5967682 C50.8146828,26.5402643 50.8441693,26.4696345 50.8441693,26.3778158 L50.8585801,26.3778158 Z M50.5071799,29.952753 C50.5071799,29.8679972 50.4925475,29.7616245 50.4705988,29.6272139 C50.4340177,29.4429343 50.4118474,29.3365616 50.4118474,29.3012467 C50.3681718,28.862486 50.3386852,28.5294558 50.3242744,28.3100754 C50.3169582,28.1827278 50.3094203,28.111884 50.3021041,28.097544 C50.2364798,27.9631334 50.1050096,27.8922896 49.90725,27.8922896 C49.6514041,27.8922896 49.5270284,28.0127883 49.5270284,28.2606346 C49.5270284,28.3100754 49.5343446,28.3809193 49.5562932,28.479801 C49.5782419,28.5791107 49.5855581,28.6570175 49.5855581,28.7135213 C49.5855581,29.0041736 49.5855581,29.1668361 49.5928743,29.195088 C49.6001905,29.2233399 49.6221392,29.3155867 49.6587203,29.4641233 C49.6808906,29.570496 49.6953014,29.6554658 49.6953014,29.7192466 C49.6953014,29.7545615 49.6879852,29.8112794 49.6733527,29.8819091 C49.6587203,29.952753 49.6514041,30.0024078 49.6514041,30.0379368 C49.6514041,30.1580074 49.6953014,30.2571031 49.7904122,30.3422869 C49.8853014,30.4272567 49.9952663,30.4696345 50.1194203,30.4696345 C50.3752663,30.4696345 50.5071799,30.299695 50.5071799,29.96003 L50.5071799,29.952753 Z M50.9809605,30.162288 C50.9882767,30.2134411 50.9922673,30.2425491 50.9922673,30.2498261 C51.0448111,30.3444272 51.1015672,30.4227621 51.1618706,30.4846166 C51.222174,30.5464712 51.2807037,30.595484 51.3372381,30.632083 C51.3937725,30.6684681 51.4596185,30.7048531 51.5352194,30.7412382 C51.6859778,30.7339612 51.7970513,30.7048531 51.869105,30.6541281 C51.9407153,30.602761 52.0027923,30.5135106 52.0555577,30.386377 C52.1085449,30.2590294 51.8759778,29.9367007 51.9362812,29.714538 C51.9591167,29.4298785 52.0123255,29.0641019 52.1329323,28.7071004 C52.1706219,28.6197763 52.265511,28.4404195 52.3222671,28.3128578 C52.3785798,28.1855102 52.5413103,28.0793515 52.7492682,28.0209214 C52.9195366,27.9406603 52.9496883,27.9295307 53.1388014,27.8967842 C53.2975412,27.8494837 53.3795715,27.8685323 53.5152541,27.8685323 C53.5830954,27.8685323 53.6471677,27.8813741 53.7076928,27.9068436 C53.7677745,27.9325272 53.8282996,27.9449409 53.8886029,27.9449409 C53.9338305,27.9449409 53.975289,27.9306009 54.0132004,27.9012788 C54.0506683,27.8723848 54.0808199,27.8359998 54.1036554,27.7921237 C54.1262692,27.7484617 54.1431187,27.7030874 54.1544255,27.6555728 C54.1657324,27.6082722 54.1714967,27.570175 54.1714967,27.5410669 L54.1714967,27.4862753 C54.1335854,27.3332442 54.0320452,27.2078228 53.8657675,27.1093691 C53.6999332,27.0111295 53.526561,26.9621168 53.3454292,26.9621168 C53.2398983,26.9621168 53.1492215,26.9839478 53.0738423,27.0273958 C52.9984631,27.0710578 52.9268528,27.1204987 52.8590115,27.1750762 C52.7911702,27.2296538 52.7233289,27.2786666 52.6554876,27.3225427 C52.5876463,27.3662047 52.5120454,27.3880357 52.4291283,27.3880357 L52.3839007,27.3880357 L52.7459427,26.6888009 C52.7459427,26.6744609 52.7251025,26.6451389 52.683644,26.6014768 C52.6419637,26.5578148 52.5969579,26.5105142 52.5479614,26.4595752 C52.4985215,26.4088501 52.4497467,26.3651881 52.4007502,26.328589 C52.351532,26.292204 52.3158377,26.2740115 52.2934457,26.2740115 C52.285686,26.2667344 52.2575297,26.2611697 52.2085332,26.2575312 C52.1590933,26.2538927 52.1196301,26.2519664 52.0897001,26.2519664 C51.999245,26.2519664 51.9143325,26.2628819 51.8349627,26.284927 C51.7560362,26.306544 51.7125823,26.35042 51.7048227,26.4159131 C51.5992917,26.7072074 51.4975298,27.000214 51.3993151,27.2949328 C51.3013221,27.5900797 51.2164097,27.8886511 51.1447994,28.1908609 C51.0731891,28.4930708 51.0206454,28.7972069 50.986503,29.1030553 C50.9525824,29.4086896 50.9468181,29.7183905 50.9694319,30.0313018 C50.9694319,30.0676869 50.9734225,30.111563 50.9809605,30.162288 L50.9809605,30.162288 Z M60.5829426,29.4949435 C60.6523358,29.6173685 60.7359181,29.7314463 60.8341328,29.8371769 C60.9321257,29.9429076 61.0400954,30.0349403 61.1584851,30.1128471 C61.2766531,30.1909679 61.3992552,30.2438333 61.5260696,30.2716571 C61.5664197,30.2772219 61.6041093,30.2800043 61.6386951,30.2800043 L61.8202703,30.2800043 C62.2184499,30.2800043 62.5614254,30.1714913 62.8500834,29.9542512 L63.5076563,29.4446466 C63.5364777,29.4226015 63.578158,29.3892129 63.6329188,29.3444807 C63.6876796,29.2999625 63.7439923,29.2556584 63.8018569,29.2109262 C63.8594998,29.166408 63.9098266,29.12296 63.9532805,29.0814383 L64.0355325,29.0020333 C64.1450541,28.9016534 64.7363375,28.5600621 64.7910983,28.4517631 C64.8458591,28.343036 65.2047972,27.8948579 65.3205265,27.7946921 C65.2741904,27.7332656 65.043397,27.7407566 64.9799898,27.6851089 C64.9163608,27.6294612 65.4375859,26.4505859 64.753187,27.3204024 L63.9215769,28.1962117 L63.6459993,28.5007759 L62.97978,28.9436032 L62.8587299,29.0020333 C62.7662795,29.0685965 62.6784849,29.1355878 62.5949026,29.202365 C62.5110987,29.2693563 62.4246343,29.3305688 62.3352877,29.3862165 C62.2457195,29.4420782 62.1506086,29.4878806 62.0497335,29.5240516 C61.9486367,29.5602226 61.8317989,29.5782011 61.6992201,29.5782011 C61.61852,29.5782011 61.5535609,29.5728503 61.5047861,29.5617208 C61.4555679,29.5505913 61.4181,29.5323987 61.3921607,29.5073573 C61.3662214,29.4823158 61.3458246,29.4461448 61.3316356,29.3986302 C61.3170032,29.3515437 61.3014839,29.2916154 61.2839693,29.2192734 L61.2753229,29.1689764 C61.2349728,28.9797742 61.2234443,28.7961368 61.2407371,28.617636 C61.2578083,28.4395634 61.2928375,28.2642731 61.3444944,28.0915512 C61.396373,27.9190433 61.4584501,27.7518861 61.5307254,27.5902938 C61.6025574,27.4289154 61.6732808,27.2703194 61.742674,27.1145059 C61.8692668,26.819359 62.0122656,26.5436888 62.1707837,26.2872813 C62.3293017,26.0313018 62.5385899,25.8001498 62.7982048,25.5940393 C62.861612,25.5439563 62.9250192,25.5011504 62.9884265,25.4647654 C63.0518337,25.4285944 63.1325338,25.4104018 63.2307485,25.4104018 C63.2362911,25.4213174 63.2420554,25.4298785 63.2480414,25.4354433 C63.253584,25.4410081 63.2566878,25.4467869 63.2566878,25.4521376 L63.2566878,25.4688319 C63.181752,25.8140617 63.0691266,26.1509444 62.9190333,26.4794799 L62.8241441,26.6633314 C62.8068512,26.6911552 62.7720438,26.7371716 62.7201651,26.8011665 C62.6682865,26.8653754 62.6121955,26.9304404 62.5514487,26.9974316 C62.4909236,27.0642089 62.4332807,27.1254214 62.3785199,27.1810691 C62.3235374,27.2369308 62.2847393,27.2758842 62.2616821,27.2981433 L62.2530357,27.2981433 L62.2357428,27.2897961 C62.2069213,27.2897961 62.1780999,27.3052063 62.1492784,27.3358125 C62.1202352,27.3662047 62.0929657,27.3998074 62.0670264,27.4359784 C62.0410871,27.4721494 62.0193601,27.5083204 62.0020672,27.5444914 C61.9847744,27.5806624 61.9763496,27.6016373 61.9763496,27.6069881 C61.9876565,27.6628498 62.016478,27.7172133 62.0625923,27.7698646 C62.1087067,27.822944 62.1634674,27.8717427 62.2270964,27.9162609 C62.2905036,27.9607791 62.355241,27.9971641 62.4215304,28.024988 C62.4880415,28.0525978 62.5498968,28.0665097 62.6077614,28.0665097 C62.6882398,28.0665097 62.7749259,28.0303387 62.8673763,27.9579967 C62.9593833,27.8856547 63.0533856,27.7908395 63.1484965,27.6739793 C63.2436073,27.5571192 63.335836,27.4248488 63.4254042,27.2771684 C63.5147508,27.129702 63.5985547,26.9779549 63.676151,26.8219273 C63.7541906,26.6661138 63.8220319,26.5158649 63.8794532,26.3709669 C63.9370961,26.2260688 63.98055,26.0952967 64.0093715,25.9782225 C64.0268861,25.9060945 64.0295465,25.8350367 64.0180179,25.765263 C64.0064893,25.6959174 63.9949607,25.6274279 63.9834322,25.5606507 L63.8969678,25.151426 L63.2912736,24.7085986 C63.2795233,24.7085986 63.258018,24.7075285 63.2263144,24.7045321 C63.1946108,24.7017497 63.161577,24.7002515 63.1267695,24.7002515 L63.0274463,24.7002515 L62.9538407,24.7002515 C62.8673763,24.7002515 62.7966529,24.7045321 62.7418921,24.7128792 C62.6871313,24.7212264 62.6452293,24.7422013 62.6164079,24.7755899 L62.356793,24.833806 C62.3452644,24.8397988 62.3135608,24.8646263 62.2616821,24.9091444 C62.2098035,24.9538766 62.154821,25.0052437 62.0971781,25.0638878 C62.0395351,25.1221039 61.9847744,25.1779656 61.9328957,25.230831 C61.8810171,25.2836963 61.8464313,25.3213655 61.8289167,25.3434106 C61.6442377,25.5886885 61.4870498,25.8153459 61.3575749,26.0242389 C61.2278783,26.2329178 61.1123708,26.4448071 61.0114956,26.6590508 C60.9103988,26.8737225 60.8168399,27.1033763 60.7301538,27.3480122 C60.6439111,27.5932902 60.5485786,27.8717427 60.4445996,28.1835839 C60.3984852,28.3227032 60.3783102,28.4787308 60.3840745,28.6512387 C60.3898388,28.8239606 60.4100138,28.985339 60.4445996,29.1355878 C60.4678784,29.252662 60.5139928,29.3723046 60.5829426,29.4949435 L60.5829426,29.4949435 Z M67.7645867,28.2225373 C67.7645867,27.9753331 67.7353219,27.7281288 67.6767921,27.4736476 C67.6036299,27.1485366 67.5012029,26.9295842 67.3621947,26.8095136 C67.2746218,26.7457328 67.2087759,26.7035689 67.157784,26.682166 C67.113665,26.5976243 67.055357,26.5548183 66.9746569,26.5548183 C66.9307596,26.5548183 66.8063839,26.5197175 66.6084026,26.4559366 C66.4104213,26.3925839 66.2421482,26.357269 66.1026967,26.357269 C65.7880993,26.357269 65.4810398,26.4702766 65.1812966,26.689229 C64.8737937,26.9225213 64.7199315,27.1840655 64.7199315,27.4736476 C64.7199315,27.7349778 64.8737937,27.8623254 65.1886128,27.8623254 C65.2322884,27.8623254 65.2761857,27.8623254 65.3203048,27.8552625 C65.3566641,27.7349778 65.385929,27.6360961 65.4005614,27.5654663 L65.4810398,27.5301514 C65.5029885,27.4383327 65.5247155,27.346514 65.554202,27.2544812 C65.5834669,27.1626625 65.6637236,27.0990957 65.7954155,27.0637808 C65.6127318,27.2615442 65.4664074,27.5654663 65.3493479,27.9682701 C65.2469209,28.328482 65.1957073,28.660656 65.1957073,28.9645781 C65.1957073,29.4733266 65.3420317,29.8196265 65.6271425,29.996201 C65.8249021,30.1164856 66.0149021,30.1800524 66.1980292,30.1800524 C66.4104213,30.1800524 66.6376674,30.0738937 66.879546,29.8547274 L67.4428948,29.2967521 C67.6621597,29.1129006 67.771903,28.7524747 67.771903,28.2225373 L67.7645867,28.2225373 Z M66.9821948,28.1448446 C66.9821948,28.7312858 66.7915297,29.1411525 66.403105,29.3812938 C66.3370374,29.4238857 66.2860456,29.4450746 66.2421482,29.4450746 C66.1026967,29.4450746 66.0368507,29.3038151 66.0368507,29.0212959 C66.0368507,28.9504521 66.0441669,28.8725453 66.0587994,28.7809407 C66.5494294,28.7173739 66.7984025,28.4911445 66.7984025,28.1026807 C66.7984025,28.017711 66.7542835,27.8409225 66.6664889,27.5725293 C66.6299078,27.3745519 66.6152754,27.2264434 66.6152754,27.1344106 C66.7396511,27.1840655 66.8352053,27.332388 66.9010513,27.5868693 C66.9529299,27.7844186 66.9821948,27.9753331 66.9821948,28.1519075 L66.9821948,28.1448446 Z M73.9926838,30.1303976 L73.9197433,29.9608861 L73.9563244,29.982075 L73.9414703,29.7986516 C73.7585648,29.8337525 73.5900701,29.8902563 73.4364295,29.9608861 C73.3337807,30.010541 73.2827889,30.0385788 73.275251,30.0385788 C73.253524,30.0385788 73.209405,29.989138 73.1360211,29.8831933 L72.9896968,29.678367 C72.82874,29.4947295 72.697048,29.1484296 72.5943993,28.6324041 C72.5578182,28.3710739 72.5356478,28.1730965 72.5212371,28.0388999 C72.4773398,27.6431591 72.4334425,27.3253251 72.3895452,27.0918187 C72.2356829,26.2511103 71.9869315,25.8271176 71.649942,25.8271176 C71.4450879,25.8271176 71.203431,26.1310396 70.9325092,26.7457328 C70.7713307,27.1061587 70.6250064,27.5087485 70.4933144,27.9539301 C70.4052981,27.332174 70.2297089,26.9013323 69.9736412,26.660763 L69.9368384,26.5267805 C69.812241,26.5267805 69.709814,26.5338434 69.6293356,26.5409064 C69.3659517,26.5830703 69.1903625,26.7386698 69.0952516,27.01434 C69.0513543,26.7386698 68.9928246,26.5409064 68.9269786,26.4135588 C68.8101408,26.2016694 68.6416461,26.0955107 68.4150651,26.0955107 C68.2760569,26.0955107 68.1441433,26.2016694 68.0195459,26.4206218 C68.0417162,26.4278988 68.0636649,26.4349617 68.0856135,26.4349617 C68.100246,26.4349617 67.9978189,26.5620954 67.9978189,26.5620954 C68.100246,26.7527958 68.1953568,27.1626625 68.2904676,27.7916956 C68.3199542,28.017711 68.370946,28.4556156 68.4443299,29.1129006 C68.4518679,29.1484296 68.4518679,29.2049334 68.4518679,29.2824121 C68.4518679,29.9114452 68.4882272,30.2648082 68.5538515,30.3425009 C68.6416461,30.4343197 68.7806543,30.4769116 68.9708759,30.4769116 C69.1537814,30.4769116 69.2781571,30.4060677 69.3440031,30.2648082 C69.3805842,30.1729895 69.4025328,30.0244529 69.4025328,29.8196265 C69.4025328,29.5439563 69.4025328,29.3956338 69.409849,29.3673819 C69.4464301,29.0212959 69.5122761,28.660656 69.6073869,28.2790411 C69.6293356,28.3920488 69.643968,28.4982075 69.6515059,28.6043662 C69.6588222,28.9716411 69.6732329,29.33913 69.688087,29.7136818 C69.7317626,30.2648082 69.8344114,30.5828562 69.9953682,30.6746749 C70.0833845,30.7241158 70.1858116,30.7453047 70.3028711,30.7453047 C70.4199306,30.7453047 70.5079469,30.7170528 70.5737928,30.660549 C70.6398605,30.6038311 70.6908523,30.5049494 70.7347496,30.3636899 C70.7861849,30.1800524 70.822766,30.0741078 70.8447146,30.0385788 C70.9471417,29.8478784 71.0203039,29.6006742 71.0715174,29.2967521 C71.1083202,29.0422709 71.1449013,28.7880036 71.1814824,28.5264594 C71.2765932,28.0671518 71.3865582,27.671411 71.5184718,27.332174 C71.5621474,27.6925999 71.5987285,27.9258922 71.6206772,28.0318369 C71.6282151,28.0530258 71.6426258,28.1095297 71.6718907,28.2086254 C71.694061,28.2861041 71.7086935,28.3496709 71.7086935,28.3993258 C71.7086935,28.7312858 71.7891719,29.0775857 71.9428125,29.4380117 C72.0893585,29.7843116 72.2795802,30.0882337 72.5212371,30.3566269 C72.6382966,30.4769116 72.7334074,30.5616673 72.7994751,30.6111081 C72.9092184,30.646423 73.0189616,30.667612 73.1287049,30.667612 C73.5169079,30.667612 73.8097783,30.4910375 74,30.1447375 L73.9926838,30.1303976 Z" id="Fill-14" fill="#1D1D1B"></path>
                <path d="M17.9928244,26.9520654 C17.9928244,26.6931586 17.9641218,26.4344511 17.9067167,26.1681698 C17.8347663,25.8281429 17.7341134,25.5989337 17.5975823,25.4731676 C17.5112806,25.4065972 17.4465059,25.3621506 17.3962764,25.3400269 C17.3532226,25.2515322 17.2956235,25.2070856 17.2164975,25.2070856 C17.1732497,25.2070856 17.0508759,25.1702128 16.8563579,25.1036424 C16.6618398,25.0370721 16.4962182,25 16.3592992,25 C16.0501648,25 15.7482061,25.1183915 15.453423,25.3476008 C15.1512703,25.5915591 15,25.8650157 15,26.1681698 C15,26.4418257 15.1512703,26.5747671 15.4605986,26.5747671 C15.5038464,26.5747671 15.5469003,26.5747671 15.590148,26.5673925 C15.6260262,26.4418257 15.6547288,26.3383826 15.669274,26.2644377 L15.7482061,26.2273656 C15.769733,26.131297 15.7912599,26.0352285 15.8199625,25.9391599 C15.848859,25.842892 15.927985,25.776521 16.0573405,25.7394489 C15.8775616,25.9465345 15.7338548,26.2644377 15.6188506,26.685784 C15.5181977,27.0630824 15.4679682,27.4104838 15.4679682,27.7285864 C15.4679682,28.2607504 15.611675,28.6231003 15.8919129,28.8080622 C16.0860431,28.933629 16.2729976,29 16.4529705,29 C16.6618398,29 16.8852544,28.8893816 17.1230202,28.6599731 L17.6765143,28.0759878 C17.8921714,27.8836514 18,27.5065524 18,26.9520654 L17.9928244,26.9520654 Z M17.2236732,26.8707459 C17.2236732,27.4844287 17.0365247,27.9131496 16.6546642,28.1646818 C16.5898895,28.2091285 16.539466,28.2312522 16.4962182,28.2312522 C16.3592992,28.2312522 16.2945245,28.0833624 16.2945245,27.7873835 C16.2945245,27.7134386 16.3017002,27.6323185 16.3160515,27.5362499 C16.7983709,27.4696796 17.0429246,27.2328965 17.0429246,26.8262993 C17.0429246,26.7376053 16.9998707,26.5526434 16.9135691,26.2718122 C16.8776909,26.0647267 16.8631456,25.9094624 16.8631456,25.8133938 C16.9853255,25.8650157 17.0789967,26.02028 17.1441593,26.2865614 C17.1947767,26.4936469 17.2236732,26.6931586 17.2236732,26.8781205 L17.2236732,26.8707459 Z" id="Fill-16" fill="#1D1D1B"></path>
                <path d="M79.6056446,28.6674898 C79.640832,28.7789245 79.688335,28.8980203 79.7481536,29.024313 C79.8079721,29.1506057 79.8803262,29.2697016 79.964776,29.3811363 C80.0494456,29.4928032 80.1477504,29.583576 80.26057,29.6543835 C80.3731696,29.7249588 80.4998442,29.7602465 80.6408137,29.7602465 C80.8026757,29.7602465 80.919014,29.7082436 80.9893888,29.6042379 C81.0595437,29.5002322 81.1195821,29.3811363 81.1688445,29.2474146 C81.1688445,29.1805538 81.1917163,29.1004601 81.2376798,29.0075978 C81.2834234,28.9147356 81.3027765,28.849732 81.295739,28.8125871 C81.2887015,28.7828711 81.2779254,28.7550125 81.2640704,28.729011 C81.2499954,28.7027774 81.2251443,28.6823477 81.1901769,28.6674898 L81.0107212,28.8125871 L80.9473839,28.8125871 C80.8413818,28.8125871 80.7586915,28.8367312 80.6988729,28.8850196 C80.6390543,28.9335402 80.5913314,28.9574522 80.556364,28.9574522 C80.4998442,28.9574522 80.4576194,28.8757334 80.4296894,28.7120637 C80.3661321,28.4074754 80.3610739,28.102655 80.413855,27.7978346 C80.4666361,27.4930142 80.5174379,27.2030518 80.5667003,26.9281795 C80.5667003,26.8910346 80.5737377,26.8241737 80.5880326,26.7273648 C80.6018877,26.6310202 80.6161825,26.5750707 80.6302575,26.5599806 L80.8202694,25.8463341 L80.852158,25.6234646 L81.0740585,25.0435397 L81.0740585,24.9766789 C81.0668011,24.9471951 81.0421699,24.9135326 80.999945,24.8761555 C80.9575002,24.8392428 80.913516,24.8037229 80.8679923,24.7702925 C80.8220288,24.7368621 80.7780445,24.7055211 80.7360396,24.675573 C80.6935948,24.6460892 80.665225,24.6238023 80.6513699,24.6087122 C80.637075,24.6012832 80.6091451,24.5975687 80.5667003,24.5975687 L80.461358,24.5975687 L80.3661321,24.5975687 C80.3239073,24.5975687 80.3027948,24.6012832 80.3027948,24.6087122 L80.1866764,24.7535773 L80.017557,25.2666413 L79.964776,25.3335022 C79.936626,25.3186442 79.8765876,25.3040184 79.7851003,25.2886961 C79.6936131,25.2740703 79.6337946,25.2666413 79.6056446,25.2666413 C79.4365252,25.2666413 79.2849995,25.3390739 79.1515074,25.483939 C79.0175754,25.6290363 78.8979382,25.8036174 78.7923761,26.0081466 C78.686594,26.2126757 78.591588,26.4262589 78.5071383,26.6493605 C78.4224686,26.8724621 78.3485751,27.0619011 78.2852378,27.2181419 C78.2498305,27.2921996 78.214863,27.3722933 78.1796756,27.4577266 C78.1442683,27.5431598 78.1110602,27.6304504 78.0793916,27.7198303 C78.047503,27.8089781 78.0246312,27.8999831 78.0105562,27.9930775 C77.9964813,28.0859398 77.9964813,28.1806593 78.0105562,28.2772361 L78.0318886,28.3775273 L78.2324567,28.6674898 C78.309649,28.7494407 78.3749656,28.8088726 78.4279666,28.8460175 C78.4807477,28.8833945 78.5528819,28.9017348 78.6443691,28.9017348 C78.7358563,28.9017348 78.8238248,28.8815373 78.9084945,28.8404457 C78.9929442,28.7995863 79.0721158,28.7494407 79.1460093,28.6900089 C79.2201228,28.630577 79.2889581,28.5655734 79.3522954,28.4947659 C79.4156327,28.4241906 79.4752314,28.359187 79.5317511,28.299523 L79.6056446,28.6674898 Z M79.7428755,26.2700182 L79.7642078,26.3482546 C79.7710254,26.3703094 79.7516723,26.4206872 79.7059287,26.4986915 C79.6601851,26.5766958 79.6056446,26.6623612 79.5423073,26.7552235 C79.47897,26.8483179 79.4083753,26.9430374 79.3309631,27.039382 C79.2533309,27.136191 79.1866948,27.2181419 79.1303949,27.2850027 C79.1372125,27.2030518 79.1653624,27.1048499 79.2148447,26.9892364 C79.2638871,26.8740872 79.3186475,26.7626525 79.378466,26.6549323 C79.4382846,26.547212 79.4963438,26.4559748 79.5528636,26.381685 C79.6091634,26.3073952 79.6476496,26.2700182 79.6689819,26.2700182 L79.7428755,26.2700182 Z M85.744305,28.7060276 C85.744305,28.5606982 85.6061944,28.4838546 85.3231559,28.4838546 C85.2142949,28.4838546 85.1124714,28.4991769 85.0181252,28.5298215 C84.8074407,28.1774091 84.6693302,27.5872694 84.6042335,26.7591701 C84.5677266,26.2920729 84.4951526,25.9468575 84.3790342,25.7246845 C84.3570421,25.6787177 84.3137176,25.6250897 84.2481811,25.5561395 C84.2411436,25.4716348 84.2266288,25.4105779 84.2046367,25.3722722 C84.1610923,25.3339665 84.1177678,25.2956608 84.0737836,25.257123 C84.0086869,25.1728504 83.9433703,25.0962391 83.8778338,25.0193956 C83.8125172,24.9427842 83.7036562,24.9044785 83.5510309,24.9044785 C83.3333089,24.9044785 83.1443966,25.0502723 82.9917713,25.3339665 C82.9119399,25.4795281 82.8175937,25.7170233 82.7087327,26.0543455 C82.7087327,25.8625849 82.7087327,25.6710565 82.7014753,25.4795281 C82.6942179,25.1958339 82.6724457,25.0193956 82.6361587,24.9427842 L82.5057454,24.9198008 C82.4619811,24.8740661 82.4186566,24.8278671 82.3751123,24.7895614 C82.3315679,24.7512558 82.2662513,24.7282723 82.1861999,24.7282723 C82.0197196,24.7282723 81.9033813,24.7972226 81.8380647,24.9427842 C81.8235499,24.9736609 81.8162925,25.0732557 81.8162925,25.2418007 C81.8162925,25.8932295 81.8380647,26.360791 81.881829,26.6442531 C81.9324109,26.8819805 81.9759553,27.0581867 82.0049849,27.1731037 L82.0920737,28.0545988 C82.1576102,28.4608712 82.2587739,28.7060276 82.4041418,28.7905323 C82.4692385,28.8286058 82.5563273,28.8441602 82.6579309,28.8441602 C82.7960414,28.8441602 82.897645,28.8058545 82.970219,28.7213499 C83.042793,28.6370774 83.0863374,28.4532101 83.1081096,28.1695158 C83.1226244,27.9703263 83.1373591,27.7711367 83.1589114,27.571715 C83.2024558,27.4184923 83.2389627,27.3035752 83.2752497,27.234625 C83.3040594,27.1120468 83.3478237,26.9049639 83.405663,26.6061796 C83.4569046,26.3378076 83.5002291,26.1307247 83.5437735,25.9851631 C83.6238248,26.2841796 83.6746266,26.5142459 83.6889215,26.6751298 C83.8850912,27.5566249 83.9869147,28.0775822 83.9869147,28.2386982 C83.9869147,28.3765987 84.0304591,28.5221603 84.1177678,28.6679541 C84.2629158,28.9054493 84.3354898,29.0356887 84.3427472,29.0589042 C84.3790342,29.1276223 84.4225786,29.1814824 84.4733804,29.2197881 C84.4951526,29.2427715 84.5532118,29.2734161 84.6477779,29.3117218 C84.6550353,29.3117218 84.7058371,29.3347052 84.8001833,29.3883331 C84.8654999,29.4189777 84.9163017,29.4345321 84.960066,29.4345321 C85.0108678,29.4345321 85.0761844,29.426871 85.1560158,29.4038876 C85.1780079,29.3655819 85.2868689,29.2657549 85.490296,29.104871 C85.671731,28.9590773 85.7588198,28.8364991 85.7588198,28.7292432 L85.744305,28.7060276 Z M90,27.5877337 C89.8618895,27.5338736 89.7602859,27.5029969 89.6877119,27.5029969 C89.6076606,27.5029969 89.5205718,27.5262125 89.4189682,27.5798404 C89.3171447,27.6334684 89.1792541,27.6870964 89.0048566,27.7486176 C88.8304591,27.8099067 88.685531,27.8865181 88.5691927,27.9861129 L88.2206176,28.2851294 C88.2496472,28.0397408 88.264162,27.9018404 88.264162,27.8711958 C88.264162,27.8175679 88.264162,27.7409565 88.2569046,27.6334684 L88.2569046,27.395741 C88.2569046,27.3114685 88.2569046,27.1888903 88.264162,27.0201131 C88.2714194,26.8518003 88.2714194,26.7289899 88.2714194,26.6447174 C88.2714194,26.5144781 88.264162,26.3227175 88.2569046,26.0699 C88.2496472,25.8168503 88.2423898,25.6253219 88.2423898,25.4948504 C88.2423898,25.3952556 88.2496472,25.2418007 88.264162,25.0270567 C88.2788967,24.812777 88.2861541,24.6593221 88.2861541,24.5597273 C88.2861541,24.1840994 88.1555209,24 87.8869972,24 C87.6620178,24 87.5170897,24.0995948 87.4517731,24.2990165 L86.9138459,26.0620067 C86.8920737,26.1616015 86.8700816,26.2614284 86.8485293,26.360791 C86.8122423,26.5065848 86.7759553,26.5987506 86.7467058,26.6370563 L86.6521396,26.7519733 C86.6231101,26.790279 86.6085953,26.8441391 86.6085953,26.9128572 C86.6085953,27.0126841 86.5723083,27.1276012 86.492037,27.2580727 C86.4559699,27.0201131 86.4341977,26.8441391 86.4269403,26.7289899 C86.4487125,26.6904521 86.4634473,26.6370563 86.4634473,26.575535 C86.4634473,26.5374615 86.4559699,26.4761724 86.4341977,26.3993289 C86.4122056,26.3227175 86.4049482,26.2614284 86.4049482,26.2231227 C86.4049482,26.0466844 86.419463,25.9164451 86.4559699,25.8321726 C86.5140291,25.7785446 86.5432787,25.7019332 86.5432787,25.6097674 C86.5432787,25.5638006 86.5360213,25.5025115 86.5212865,25.425668 C86.5067717,25.3492888 86.4995143,25.2877675 86.4995143,25.2494618 C86.4995143,25.1805116 86.5140291,25.0885779 86.5432787,24.9659997 C86.5723083,24.8431894 86.5866031,24.7512558 86.5866031,24.6899667 C86.5866031,24.4065046 86.4487125,24.2607108 86.1658939,24.2607108 C86.0425181,24.2607108 85.9481719,24.2836942 85.8828553,24.3296611 C85.7739943,24.4141657 85.6943828,24.7129501 85.6433611,25.2264784 C85.6070741,25.5791229 85.5853019,25.9317673 85.5853019,26.2920729 C85.5853019,27.6949897 85.8901127,28.3923853 86.4922569,28.3923853 C86.5866031,28.3923853 86.6811692,28.3694019 86.768258,28.3234351 C86.8557867,28.2774682 86.9791625,28.1089232 87.1320077,27.8249968 C87.248346,27.6028239 87.3426922,27.4036343 87.4154861,27.2195348 C87.4154861,27.3114685 87.4154861,27.4802457 87.4227435,27.7332953 C87.429781,27.9554683 87.429781,28.1240133 87.429781,28.2468237 C87.429781,28.2698071 87.429781,28.3157739 87.4227435,28.377063 C87.4154861,28.4383521 87.4154861,28.4843189 87.4154861,28.5151956 C87.4154861,28.591807 87.4227435,28.7067241 87.429781,28.8522857 C87.4370384,28.9980794 87.4445157,29.1129965 87.4445157,29.1896079 C87.4445157,29.3504917 87.4227435,29.4733021 87.3791991,29.5499135 C87.2626409,29.749103 87.1537799,30.0713351 87.0592138,30.5082521 C87.0374416,30.6844582 87.0229268,30.8223587 87.0229268,30.9145245 C86.9288005,31.4584652 86.885476,32.0567304 86.885476,32.7079271 C86.885476,33.2599932 86.921763,33.6969102 87.0013745,34.0114812 L87.0739485,34.4098603 C87.1102355,34.5860664 87.1465225,34.7086446 87.1828095,34.777827 C87.2626409,34.9233886 87.3787593,35 87.5311647,35 C87.7123797,35 87.8432328,34.9080664 87.9228443,34.7165379 C87.973866,34.5860664 88.010153,34.2564054 88.0317053,33.7277869 C88.0607349,33.076126 88.082727,32.7079271 88.0899844,32.6159934 C88.0972418,32.5779199 88.0972418,32.5470432 88.0972418,32.5163986 C88.0972418,32.4780929 88.0899844,32.424465 88.082727,32.3478536 C88.0754696,32.2710101 88.0679923,32.2173821 88.0679923,32.1790764 C88.0679923,32.0567304 88.0754696,31.872631 88.0899844,31.6272424 C88.1047191,31.3818539 88.1117566,31.1979866 88.1117566,31.0754084 C88.1117566,31.0445317 88.1047191,30.998797 88.0972418,30.9372758 C88.0899844,30.8762188 88.082727,30.8300198 88.082727,30.7996074 C88.082727,30.7687307 88.0899844,30.7304251 88.1117566,30.6844582 C88.1480436,30.5848635 88.1695959,30.393335 88.1770732,30.1019797 C88.1843306,29.7567642 88.191588,29.5424845 88.1988454,29.4579798 L88.2206176,29.4503187 C88.2714194,29.3966907 88.3077064,29.3277405 88.336736,29.2432358 C88.3659855,29.1589633 88.4165674,29.0821198 88.4821039,29.0208307 C88.6199945,28.867608 88.7215981,28.7526909 88.7798772,28.6684184 C88.8597086,28.5609303 88.975827,28.4460133 89.1284523,28.3234351 C89.3026299,28.1931957 89.4407404,28.1163522 89.5425639,28.0933688 C89.7092642,28.0550631 89.8110877,28.0090963 89.8473747,27.9631295 C89.8618895,27.940146 89.8909191,27.832658 89.9346834,27.6411295 L90,27.5877337 Z" id="Fill-18" fill="#1D1D1B"></path>
                <path d="M75.4572088,32.9264293 C75.5449105,32.9652516 75.6402569,32.9896953 75.743248,33 C75.8137492,32.9851421 75.8664127,32.9549469 75.9012386,32.9098939 C75.9358521,32.8643615 75.9581491,32.8121191 75.9681297,32.7529271 C75.9781103,32.6939747 75.9808709,32.6328655 75.9759868,32.5707977 C75.9715273,32.5082506 75.9657938,32.4555289 75.9585738,32.4126327 L75.9105821,31.452619 C75.9095203,31.4463882 75.9073968,31.4260185 75.9046362,31.391989 C75.9018756,31.3574803 75.9052733,31.336152 75.9152538,31.3277645 L75.8899839,31.2760014 L75.8676868,30.9860322 L75.8689609,30.994899 C75.858768,30.8642931 75.8572815,30.7358439 75.8649262,30.6107497 C75.8723586,30.485416 75.8778797,30.3653543 75.8817021,30.2505649 L75.8808527,30.0415953 C75.8795786,29.9658679 75.8785168,29.8817528 75.877455,29.7902088 C75.8766056,29.6984252 75.9059103,29.6461828 75.9660062,29.633961 L76.2569296,29.6109552 C76.2664854,29.6344403 76.3418707,29.6313249 76.4830853,29.601609 C76.5588953,29.5860322 76.6427747,29.5651832 76.7340864,29.5395413 C76.8253981,29.514139 76.9122504,29.4865799 76.994431,29.4566244 C77.0766115,29.4266689 77.1449891,29.3979117 77.1995638,29.3710716 C77.2541385,29.3437521 77.2823814,29.320267 77.2849296,29.3008559 C77.2906632,29.267785 77.3163579,29.243581 77.3613767,29.2275248 C77.4066078,29.211948 77.4286925,29.2009243 77.4276308,29.1949332 L77.419349,29.1966107 C77.5079001,29.0511469 77.5958142,28.9107155 77.6830912,28.7753167 C77.7705806,28.6396782 77.8383211,28.5131462 77.8861005,28.3952414 L77.8752705,28.3782266 C77.9043629,28.2835673 77.9306946,28.1783636 77.9538411,28.0621363 C77.9769875,27.9466279 77.9914275,27.8292023 77.9973734,27.7105786 C78.0031069,27.5924341 77.9994969,27.4759671 77.9861187,27.360938 C77.9729528,27.2466279 77.9500187,27.1421431 77.9179535,27.0472441 L77.6217212,26.4244094 C77.5909301,26.3738446 77.5552548,26.3273536 77.5144831,26.2851763 L77.3756043,26.2096885 L76.8776369,26 L76.5191853,26.0747689 L76.2647866,26.2707977 L76.1900384,26.3812735 C76.149479,26.4409449 76.1021243,26.5044505 76.0488238,26.5725094 C75.9953109,26.6408079 75.9473191,26.70671 75.9039991,26.7694967 C75.8608915,26.8322835 75.8273398,26.8917152 75.8027068,26.9475522 C75.7782863,27.0036289 75.7742516,27.048682 75.7912398,27.0831907 C75.7933633,27.0954125 75.7920892,27.1052379 75.7878421,27.1124273 L75.7767998,27.2001369 C75.775101,27.1565217 75.7706416,27.1193769 75.7627845,27.0891818 C75.7549275,27.0592263 75.746221,27.0321465 75.7368775,27.0089011 L75.7005651,26.9403629 L75.6907969,26.9329339 L75.5519181,26.8574461 L75.4293906,26.7783636 C75.3992365,26.7656624 75.3646229,26.7522424 75.3259747,26.738343 C75.2869018,26.724204 75.2285048,26.7191715 75.1505713,26.7225265 C75.046306,26.8078398 74.9961908,26.8960288 75.0002255,26.9870935 C75.0038355,27.0783978 75.0108431,27.1735365 75.0216731,27.2725094 L75.0356884,27.4596713 C75.0558619,27.6523451 75.0652054,27.8454981 75.0635066,28.0391304 C75.0615954,28.2330024 75.0573484,28.4319069 75.0518272,28.6360835 C75.0683907,29.0449161 75.0841048,29.4487162 75.0989695,29.8482027 C75.1142589,30.2476891 75.1246642,30.6531667 75.1303978,31.0641561 L75.1490848,32.1538172 C75.1522701,32.2420062 75.1592777,32.3261212 75.169683,32.4064019 C75.179876,32.4866826 75.1975013,32.5686409 75.2225589,32.652037 C75.2414583,32.6990072 75.2580218,32.7306402 75.2718247,32.7466963 C75.3077124,32.827696 75.3695071,32.8878466 75.4572088,32.9264293 L75.4572088,32.9264293 Z M76.9088528,26.7543992 C76.9141616,26.753201 76.9356092,26.7630264 76.972771,26.7836357 C77.0099327,26.8044848 77.0521909,26.830606 77.0993333,26.8617597 C77.1466879,26.893153 77.190645,26.9300582 77.2312044,26.9719959 C77.2717638,27.0144129 77.3010685,27.0558713 77.3191185,27.0963711 C77.3620137,27.2205067 77.3730561,27.3832249 77.3528826,27.5840466 C77.3322843,27.7851078 77.2806826,27.9844916 77.1980773,28.1821979 C77.1154721,28.3801438 77.0014386,28.5596371 76.856614,28.7197193 C76.7113646,28.8802807 76.5385094,28.9814105 76.3376236,29.0233482 C76.2885701,29.0336529 76.2395166,29.0425197 76.1900384,29.0494694 C76.1407726,29.0568983 76.0936302,29.0616912 76.0492485,29.0648066 C76.0539202,28.9560082 76.0537079,28.8179733 76.0488238,28.6509415 C76.0437273,28.4841493 76.0624144,28.2979459 76.1046726,28.0923314 C76.1467184,27.8871962 76.2263508,27.6707977 76.3435695,27.4431359 C76.4605759,27.2157138 76.6408635,26.988052 76.8844322,26.7594317 L76.9088528,26.7543992 Z" id="Fill-20" fill="#1D1D1B"></path>
                <path d="M60,26.7272542 C60,26.6591123 59.9535102,26.6136845 59.8602958,26.5833992 C59.3254285,26.7272542 58.9222822,26.8259107 58.650857,26.8789099 L57.5498943,27.2196191 C57.542146,27.1363347 57.5343977,27.0379076 57.5343977,26.9241084 C57.5343977,26.8713386 57.5343977,26.7880541 57.542146,26.6744844 C57.5498943,26.5606852 57.5498943,26.4774008 57.5498943,26.4244016 C57.5498943,26.1591761 57.542146,25.7652382 57.5189012,25.2350167 C57.4956563,24.7047952 57.487908,24.3108573 57.487908,24.0456318 C57.487908,24.0075458 57.4801597,23.9472047 57.4646631,23.8639203 C57.4494013,23.7804064 57.441653,23.7198358 57.441653,23.6822087 C57.441653,23.6060367 57.4494013,23.4924669 57.4569148,23.3410406 C57.4646631,23.1896143 57.4724114,23.0760446 57.4724114,23.000102 C57.4724114,22.3335968 57.3021836,22 56.968772,22 C56.8605306,22 56.7520545,22.0305147 56.6435783,22.0910852 C56.5196055,22.1592271 56.4421226,22.2351697 56.4111294,22.325796 C56.3956328,22.3636526 56.3878845,22.4244525 56.3878845,22.5153083 C56.3878845,22.795447 56.4188777,23.1666709 56.4886124,23.6287506 C56.5663301,24.1819155 56.6125851,24.55291 56.6203334,24.7426517 C56.6513266,25.447243 56.6748063,25.9696638 56.6823198,26.3181737 C56.7212961,26.8105387 56.7367927,27.121192 56.7367927,27.2499044 C56.7367927,27.3788462 56.7288096,27.469702 56.7135478,27.5153593 C56.7057995,27.5378438 56.5508335,27.5757004 56.2481803,27.6289291 C55.8840103,27.6970709 55.6123503,27.7649833 55.4343743,27.8333546 C55.1474525,27.939353 55,28.0756367 55,28.2424351 C55,28.44709 55.1397042,28.5455171 55.4108946,28.5455171 C55.5893402,28.5455171 55.8062926,28.5152319 56.0544729,28.44709 L56.6903029,28.265149 C56.7057995,28.5301451 56.7135478,28.8334565 56.7135478,29.1741658 C56.7135478,29.4013052 56.7135478,29.6364749 56.7057995,29.878757 C56.7057995,29.9317562 56.6980512,30.0301833 56.6903029,30.166467 C56.6825546,30.3029801 56.6748063,30.4092079 56.6748063,30.4773498 C56.6748063,30.65149 56.6903029,30.7726311 56.7212961,30.8410024 C56.7755342,30.9470008 56.8760272,31 57.0232449,31 C57.1394694,31 57.2247006,30.9694853 57.286687,30.9091442 C57.3794318,30.8107171 57.4494013,30.348408 57.4956563,29.5226757 C57.5109181,29.0073674 57.5266494,28.4922885 57.5498943,27.9772096 L58.6198638,27.4999873 L59.2479455,27.287761 C59.441653,27.2196191 59.6433435,27.1060494 59.8525475,26.9470518 C59.9457619,26.8789099 59.9922517,26.81811 59.9922517,26.7651108 L60,26.7272542 Z" id="Fill-22" fill="#1D1D1B"></path>
            </g>
        </g>
    </g>
</svg>