<svg width="93" height="35" viewBox="0 0 93 35" version="1.1" xmlns="http://www.w3.org/2000/svg" xmlns:xlink="http://www.w3.org/1999/xlink"><defs><path id="path-1" d="M.146.051h12.788v16.926H.146z"/></defs><g id="Design" stroke="none" stroke-width="1" fill="none" fill-rule="evenodd"><g id="MobileNavigation" transform="translate(-141 -662)"><g id="Group-24" transform="translate(141 662)"><path d="M13.546 5.514c-1.653-1.008-3.356-1.128-4.283-1.128-1.904 0-2.304.888-2.304 1.56 0 1.057.776 1.345 3.656 1.777C13.495 8.155 16 9.332 16 12.717 16 16.2 12.519 18 9.113 18 6.758 18 4.304 17.64 2 15.695l2.229-2.834c1.628 1.393 3.306 1.753 5.084 1.753 1.678 0 2.63-.768 2.63-1.656 0-.817-.276-1.633-2.38-1.825-3.305-.312-6.436-1.249-6.436-4.995C3.127 2.585 6.307 1 9.163 1c2.129 0 4.307.384 6.16 1.56l-1.777 2.954z" id="Fill-1" fill="#000"/><path id="Fill-3" fill="#000" d="M28.503 18l-4.449-7.23-2.248 2.491V18H18V1h3.806v7.279l.049.049 2.62-3.151L28.058 1h4.596l-6.03 6.888L33 18z"/><path id="Fill-5" fill="#000" d="M44.263 18v-6.937h-6.477V18H34V1h3.786v6.815h6.477V1H48v17z"/><g id="Group-9" transform="translate(80 1)"><mask id="mask-2" fill="#fff"><use xlink:href="#path-1"/></mask><path d="M6.865 3.407h-3.01v4.037H6.96c1.228 0 2.216-.778 2.216-2.018 0-1.362-.843-2.019-2.312-2.019M7.13 10.8H3.855v6.177H.145V.05h6.913c3.54 0 5.876 2.092 5.876 5.448 0 3.064-2.601 5.301-5.804 5.301" id="Fill-7" fill="#000" mask="url(#mask-2)"/></g><path d="M59 18c-4.963 0-9-4.037-9-9s4.037-9 9-9c1.452 0 2.558.245 3.735.838-1.281.875-2.265 1.967-2.928 3.253a2.34 2.34 0 0 0-.493-.043L59 4.049A4.956 4.956 0 0 0 54.05 9c0 2.73 2.22 4.952 4.95 4.952 2.524 0 5.317-1.519 5.485-4.853.003-.014.454-2.998 2.788-3.768C67.795 6.406 68 7.452 68 9c0 4.963-4.037 9-9 9" id="Fill-10" fill="#000"/><path d="M69 18c-1.453 0-2.46-.226-3.69-.849 1.647-.763 2.467-1.879 3.084-2.995a.995.995 0 0 0 .338.029 3.4 3.4 0 0 1 .268-.01c2.73 0 4.95-2.097 4.95-4.675S71.73 4.824 69 4.824c-4.95 0-5.229 4.753-5.242 5.109-.303 1.25-1.272 2.143-3.043 2.799C60.202 11.678 60 10.757 60 9.5 60 4.813 64.037 1 69 1s9 3.813 9 8.5c0 4.687-4.037 8.5-9 8.5" id="Fill-12" fill="#000"/><path d="M2.79 30.054l.01.027a.51.51 0 0 0 .196.292c.112.093.22.14.326.14.087 0 .158-.044.214-.13.056-.088.1-.199.13-.334.032-.135.055-.289.07-.463.016-.174.029-.348.038-.522.01-.174.017-.34.023-.499.006-.159.019-.295.037-.409l.308-1.844.093-.36.186-.692a.514.514 0 0 0 .052-.127c.015-.053.038-.086.07-.098a.941.941 0 0 1 .391-.082 8.01 8.01 0 0 1 .964.045c.11.013.208.026.298.04.09.016.197.033.322.05l.26.01a.55.55 0 0 1 .07.004.415.415 0 0 0 .061.004c.056 0 .098-.01.126-.031.028-.021.036-.073.023-.158a.653.653 0 0 0-.396-.458 1.802 1.802 0 0 0-.74-.144 6.04 6.04 0 0 0-.573.027c-.19.018-.353.027-.49.027a.995.995 0 0 1-.181-.014c-.047-.009-.073-.028-.08-.058 0-.03.003-.048.01-.054l.065-.126c.012-.03.015-.054.01-.072-.013-.048-.075-.08-.187-.094a2.74 2.74 0 0 0-.363-.023h-.494c-.025.006-.053.033-.084.081-.031.048-.053.072-.065.072-.013.09-.095.16-.247.207a2.736 2.736 0 0 1-.536.103 13.14 13.14 0 0 1-.629.05c-.214.012-1.055.027-1.191.045l-.606.099a2.406 2.406 0 0 1-.121.094.904.904 0 0 0-.098.081.197.197 0 0 0-.056.095.33.33 0 0 0 .005.144l.009.045c.025.12.1.236.223.35a.62.62 0 0 0 .43.171h.036a.082.082 0 0 0 .038-.009l.14-.072 1.746-.279a.487.487 0 0 0 .079-.008c.034-.007.073-.013.116-.019a3.34 3.34 0 0 0 .117-.018.49.49 0 0 1 .079-.009h.01l.078-.004a1.96 1.96 0 0 1 .098-.005l.08.005c.04.003.066.007.078.013l-.027.297-.308 1.448A.832.832 0 0 0 3.01 27a11.425 11.425 0 0 0-.052.274.737.737 0 0 0-.009.09c-.05.378-.08.758-.093 1.138-.012.38-.031.763-.056 1.147a2.206 2.206 0 0 1-.023.207.502.502 0 0 0 .014.198zm5.497.21a.44.44 0 0 0-.066-.211 1.1 1.1 0 0 1-.102-.212l-.176-.72a1.288 1.288 0 0 0-.388-.63c-.176-.148-.33-.226-.454-.226s-.278.092-.461.283a46.781 46.781 0 0 0-.051-.933c-.022-.389-.037-.7-.037-.933 0-.092.008-.233.03-.424.021-.19.029-.332.029-.424 0-.388-.169-.586-.505-.586-.249 0-.373.148-.373.445 0 .261 0 .65.007 1.166.007.516.007.904.007 1.166 0 .092.008.233.015.424.008.19.015.339.015.438 0 .106-.007.268-.022.48a7.662 7.662 0 0 0-.022.48c0 .206.03.354.08.439.066.106.205.162.417.162.227 0 .402-.183.52-.558a2.02 2.02 0 0 1 .35-.7c.052.078.11.248.177.51.073.296.132.501.183.607.095.19.22.29.373.29a.5.5 0 0 0 .3-.092.283.283 0 0 0 .132-.24h.022zm3.193-2.96c0-.501-.286-.749-.857-.749-.359 0-.68.184-.974.558-.146.184-.234.29-.263.311a.556.556 0 0 0-.154.276 1.233 1.233 0 0 1-.066.198 1.045 1.045 0 0 1-.19.042 1.074 1.074 0 0 0-.242.064c-.132.021-.198.085-.198.198 0 .12.118.276.345.466v.035c.007.071 0 .17-.022.29-.03.135-.044.234-.044.297 0 .297.117.559.351.777a1.158 1.158 0 0 0 1.172.276c.168-.057.366-.184.6-.389.256-.226.388-.41.388-.558 0-.12-.08-.176-.234-.176-.169 0-.36.084-.579.247-.22.163-.373.247-.468.247-.227 0-.344-.247-.344-.735 0-.113.007-.176.014-.184.198-.063.374-.113.527-.14a2.67 2.67 0 0 0 .828-.524c.278-.268.417-.544.417-.827h-.007zm-.806.078c0 .113-.08.226-.249.34a1.689 1.689 0 0 1-.395.19c.051-.12.124-.247.227-.381.132-.163.249-.248.351-.248h.044a.238.238 0 0 1 .022.092v.007zm11.67-.75c-.095-.176-.227-.26-.388-.26a1.55 1.55 0 0 0-.359.07l-.373.085a.629.629 0 0 0-.33.19 2.032 2.032 0 0 1-.322.276 1.33 1.33 0 0 0-.3.382s-.33.338-.359.401c-.022.05-.212-.521-.241-.373a2.988 2.988 0 0 1-.059-.297c-.066-.374-.505-1.003-.732-1.003a.481.481 0 0 0-.351.162.501.501 0 0 0-.154.354c0 .092.03.17.095.24.11.29.19.417.242.566l.38 1.964c.08.375.118.763.118.982 0 .02 0 .056-.008.106-.007.05-.007.085-.007.106 0 .254.168.381.505.381.08 0 .147-.006.198-.028.139-.141.249-.494.33-1.06.094-.664.168-1.15.219-1.278.051-.092.095-.156.132-.198.08-.149.153-.234.22-.439.058-.183.116-.318.168-.41.087-.14.241-.29.453-.445.023-.063.176-.127.462-.19.285-.064.432-.156.439-.283h.022zm1.31-.254c0-.078-.037-.149-.11-.212a.61.61 0 0 1-.11-.106c0-.014 0-.035.008-.064v-.063c-.008-.106-.066-.19-.176-.254a.684.684 0 0 0-.351-.092c-.227 0-.344.099-.344.296 0 .163.08.34.249.523.168.183.336.275.504.275a.31.31 0 0 0 .227-.084.287.287 0 0 0 .088-.22h.015zm-.351 3.575c0-.085-.015-.191-.037-.326-.037-.184-.059-.29-.059-.326a32.763 32.763 0 0 1-.088-.99 1.11 1.11 0 0 0-.021-.213c-.066-.135-.198-.206-.395-.206-.256 0-.38.12-.38.369 0 .05.007.12.029.219.022.1.029.177.029.234 0 .29 0 .453.007.481.008.028.03.12.066.27.022.105.036.19.036.254a.875.875 0 0 1-.021.163.84.84 0 0 0-.022.156c0 .12.043.22.139.304a.479.479 0 0 0 .329.128c.256 0 .388-.17.388-.51v-.007zm4.334-.833c-.417.142-.651.226-.71.262l-.139-.05c-.036-.353.02-.33-.001-.69l.001-.44-.197-1.294c-.125-.6-.36-.897-.704-.897l-.329.141c-.037.036-.073.156-.11.354-.08-.156-.22-.234-.417-.234-.183 0-.293.057-.33.163v-.007l-.007.007a.69.69 0 0 0-.14.233.682.682 0 0 1-.117.212c-.088.035-.131.106-.131.212 0 .021-.03.078-.096.17-.073.106-.11.162-.117.17-.058.105-.11.275-.153.501a2.578 2.578 0 0 0-.066.523c0 .162.03.283.095.353.066.071.183.107.351.107a.925.925 0 0 0 .235-.029c.227-.056.439-.184.637-.374a1.17 1.17 0 0 1 .146-.142l.11-.078c.051-.049.117-.155.205-.317a2.15 2.15 0 0 0 .169-.361c.058.226.102.502.139.834l.073.841c0 .028.007.085.03.17a.84.84 0 0 1 .029.204.259.259 0 0 1-.015.085c-.007.022-.22.142-.637.354-.344.176-.352.247-.352.247a2.39 2.39 0 0 0-.197.163l-.857.805c-.212.22-.351.46-.424.714-.073.255-.11.65-.11 1.187 0 .064.015.127.044.191l.058.036c.11.296.183.466.213.508.11.1.197.17.263.212v.078c.065.05.139.099.22.141.197.127.344.227.439.297.183.092.454.17.805.233.322.057.6.085.835.085.359 0 .6-.064.717-.198.205-.24.307-.593.307-1.053 0-.254-.036-.558-.102-.911l-.183-.898c-.007-.134-.014-.233-.014-.304a1.633 1.633 0 0 0-.088-.276.882.882 0 0 1-.059-.275 2.803 2.803 0 0 0-.095-.488 2.092 2.092 0 0 1-.087-.494c0-.071.007-.12.021-.156.088-.063.169-.12.25-.17.226-.134.416-.346.577-.635l.015-.022zm-2.46-1.964c-.14.374-.27.629-.395.763.146-.417.278-.671.402-.756l-.007-.007zm1.501 6.31c0 .12-.014.27-.05.439-.03.148-.06.297-.096.445a.313.313 0 0 1-.168.035c-.103 0-.25-.02-.432-.056-.491-.106-.835-.226-1.033-.36-.234-.163-.432-.453-.6-.87a1.123 1.123 0 0 1-.081-.396c0-.198.066-.41.198-.643a4.32 4.32 0 0 1 .395-.551c.08-.106.198-.22.351-.34.242-.19.367-.29.374-.296l.176-.184.432-.339c.117.77.205 1.3.264 1.59l.168.756c.059.297.088.552.088.763l.014.007zm2.62-7.088c0-.078-.036-.149-.11-.212a.61.61 0 0 1-.11-.106c0-.014 0-.035.008-.064v-.063c-.007-.106-.066-.19-.176-.254a.684.684 0 0 0-.35-.092c-.227 0-.344.099-.344.296 0 .163.08.34.248.523.168.183.337.275.505.275a.31.31 0 0 0 .227-.084.287.287 0 0 0 .088-.22h.014zm-.35 3.575c0-.085-.016-.191-.038-.326-.036-.184-.058-.29-.058-.326a33.692 33.692 0 0 1-.088-.99 1.1 1.1 0 0 0-.022-.213c-.066-.135-.197-.206-.395-.206-.256 0-.38.12-.38.369 0 .05.007.12.03.219.021.1.028.177.028.234 0 .29 0 .453.008.481l.065.27c.022.105.037.19.037.254a.894.894 0 0 1-.022.163.84.84 0 0 0-.022.156c0 .12.044.22.14.304a.479.479 0 0 0 .328.128c.256 0 .388-.17.388-.51v-.007zm4.604.177c0-.134-.14-.204-.425-.204-.11 0-.212.014-.307.042-.213-.325-.352-.87-.418-1.632-.036-.431-.11-.75-.226-.954a.682.682 0 0 0-.132-.156.403.403 0 0 0-.044-.17l-.132-.105a6.35 6.35 0 0 0-.198-.22c-.065-.07-.175-.105-.33-.105-.219 0-.409.134-.563.395a3.91 3.91 0 0 0-.285.665c0-.177 0-.354-.008-.53-.007-.262-.029-.424-.065-.495l-.132-.021c-.044-.042-.088-.085-.132-.12a.302.302 0 0 0-.19-.057c-.168 0-.285.064-.35.198-.016.028-.023.12-.023.276 0 .6.022 1.031.066 1.293.051.219.095.381.124.487l.088.813c.066.375.168.6.314.678a.55.55 0 0 0 .257.05c.139 0 .241-.036.314-.113.074-.078.117-.247.14-.51.014-.183.029-.366.05-.55.045-.142.081-.248.118-.311.029-.113.073-.304.132-.58a5.7 5.7 0 0 1 .139-.572c.08.276.132.488.146.636.198.813.3 1.293.3 1.442 0 .126.044.26.132.395.147.22.22.34.227.36.037.064.08.114.132.149.022.021.08.05.176.085a.9.9 0 0 1 .153.07.421.421 0 0 0 .161.043.78.78 0 0 0 .198-.028c.022-.036.132-.128.337-.276.183-.134.27-.247.27-.346l-.014-.022zm3.001.658c0-.043-.05-.156-.16-.34-.11-.063-.19-.254-.235-.572a29.29 29.29 0 0 1-.044-.664 2.888 2.888 0 0 0-.066-.34 4.872 4.872 0 0 1-.044-.734c0-.318.03-.495.096-.537-.037-.092-.059-.149-.066-.163a.253.253 0 0 0 .014-.099c0-.035 0-.07-.007-.113-.132-.233-.27-.346-.417-.346a.514.514 0 0 0-.279.1c-.175-.192-.35-.283-.534-.283-.322 0-.607.296-.863.897-.212.494-.322.925-.322 1.3 0 .177.015.396.044.657.036.34.087.537.153.6.11.1.315.15.622.15.015 0 .022-.015.022-.05 0-.022 0-.05-.007-.085l.007-.007.007.134a1.11 1.11 0 0 0 .462-.184c.058-.042.175-.155.358-.346.117.424.205.7.271.827.161.346.366.516.615.516a.888.888 0 0 0 .22-.036l.029-.084c.08-.071.124-.142.124-.212v.014zM35.14 28.37c0 .17-.131.46-.388.869-.036.07-.08.142-.124.212-.066.099-.124.149-.176.149-.102 0-.153-.114-.153-.347 0-.17.022-.346.065-.53l.052-.056.153-.572c.066-.234.147-.41.242-.523.088.205.146.325.176.36.051.127.08.226.088.297l.05.035c.008.036.015.07.015.106zm2.907.735c0-.502-.044-1.251-.14-2.247-.094-.997-.138-1.746-.138-2.248 0-.12.014-.296.044-.537.029-.24.044-.417.044-.537 0-.057 0-.106-.008-.141-.007-.113-.073-.205-.19-.283a.63.63 0 0 0-.358-.113c-.095 0-.205.042-.33.127-.124.085-.19.177-.19.276 0 .05.008.127.022.226.015.099.022.17.022.212.051.452.095.791.132 1.018.022.586.03 1.024.022 1.321.007.092.036.36.088.806.044.339.066.6.066.784v.106c-.008.05-.008.085-.008.106 0 .163.015.41.052.742.036.332.05.58.05.742v.17c-.007.078-.007.134-.007.17 0 .049.008.12.022.205.015.084.022.155.022.204 0 .05-.014.113-.044.198a.678.678 0 0 0-.043.205c0 .106.036.19.116.262.08.07.176.106.286.106a.6.6 0 0 0 .241-.057c.059-.12.095-.205.11-.261l.08-.021c0-.17.008-.425.022-.764.015-.339.022-.586.022-.749l-.007-.028zm6.896.432a.375.375 0 0 0-.044-.191c-.03-.05-.153-.12-.38-.212-.249-.106-.402-.184-.46-.234a1.33 1.33 0 0 0-.294-.17.912.912 0 0 1-.278-.169l-.623-.643c-.153-.191-.278-.467-.373-.82a1.817 1.817 0 0 1-.08-.467.82.82 0 0 1 .021-.19c.052-.22.117-.375.198-.467.102-.12.256-.177.469-.177.176 0 .337.078.476.226l.337.432a.877.877 0 0 1 .227.593c0 .028 0 .071-.008.135-.007.063-.007.106-.007.134 0 .078.007.17.022.283.395-.142.592-.41.592-.8 0-.36-.241-.741-.724-1.151-.483-.41-.923-.614-1.318-.614-.366 0-.637.183-.82.55-.131.276-.197.615-.197 1.018 0 .247.044.48.139.7.212.509.395.862.548 1.067.19.234.506.488.952.764.279.177.418.261.418.254-.007.007-.015.007-.022.007a7.187 7.187 0 0 1-1.018.085c-.286 0-.469-.035-.549-.099a.654.654 0 0 1-.088-.219c-.044-.17-.087-.269-.124-.297-.037-.028-.146-.042-.322-.05-.08.163-.124.319-.124.46 0 .149.044.276.139.389.256.31.665.465 1.236.465.161 0 .476-.028.945-.077.505-.064.805-.113.9-.155.125-.064.19-.191.19-.382l.044.022zm3.969.515a1.13 1.13 0 0 1-.25-.254c-.304-.4-.43-.73-.768-.983-.287-.215-.555-.502-.752-.58-.203-.082-.39-.183-.544-.232.117-.106.205-.184.263-.233.227-.22.476-.558.747-1.025.3-.516.447-.897.447-1.145 0-.403-.088-.608-.264-.608-.205 0-.351.064-.447.198-.05.078-.087.22-.11.417-.021.198-.058.332-.11.396-.072.092-.19.275-.343.558-.132.233-.257.41-.38.53l-.008-.12c0-.297 0-.523.007-.671l-.088-.884a9.342 9.342 0 0 1-.058-.883c0-.07.007-.177.022-.318.014-.142.021-.248.021-.325 0-.39-.131-.58-.402-.58a.544.544 0 0 0-.307.1.49.49 0 0 0-.197.253c.007.071.022.142.044.22a.475.475 0 0 0-.015.106c0 .028.007.056.015.077a5.215 5.215 0 0 0-.052.764c0 .19.015.43.052.72.05.396.08.63.088.707.036.467.058.686.058.657 0 .029 0 .071-.007.135-.008.063-.008.106-.008.134 0 .064.008.163.03.29.022.127.029.226.029.29 0 .091-.051.17-.154.233-.102.064-.153.148-.153.254 0 .099.029.17.095.212l.197.134c.008.021.015.05.015.085s-.007.084-.015.148c-.007.064-.014.113-.014.148 0 .1.007.248.014.446.008.197.015.353.015.459 0 .615.178.11.097.626a8.077 8.077 0 0 0-.066.438c0 .248.11.375.322.375a.343.343 0 0 0 .3-.17c.322-.473.261-.13.261-1.106 0-.269-.015-.7-.05-1.294.314.022.489.202.483.197.202.162.344.344.658.647.314.303.705 1.02.859.999.373-.078.545-.099.596-.388l-.173-.154zm1.947-3.675c0-.078-.037-.149-.11-.212a.61.61 0 0 1-.11-.106c0-.014 0-.035.007-.064v-.063c-.007-.106-.066-.19-.175-.254a.684.684 0 0 0-.352-.092c-.226 0-.343.099-.343.296 0 .163.08.34.248.523.169.183.337.275.505.275a.31.31 0 0 0 .227-.084.287.287 0 0 0 .088-.22h.015zm-.352 3.575c0-.085-.014-.191-.036-.326-.037-.184-.06-.29-.06-.326a32.598 32.598 0 0 1-.087-.99 1.1 1.1 0 0 0-.022-.213c-.066-.135-.197-.206-.395-.206-.256 0-.38.12-.38.369 0 .05.007.12.03.219.021.1.029.177.029.234 0 .29 0 .453.007.481l.066.27c.022.105.036.19.036.254a.894.894 0 0 1-.022.163.84.84 0 0 0-.022.156c0 .12.044.22.14.304a.479.479 0 0 0 .328.128c.256 0 .388-.17.388-.51v-.007zm.474.21l.011.087a1.1 1.1 0 0 0 .345.382c.057.036.123.073.198.11.151-.008.262-.037.334-.088a.607.607 0 0 0 .187-.268c.053-.127-.18-.45-.12-.671.023-.285.076-.65.197-1.008.038-.087.133-.267.19-.394.056-.127.218-.234.426-.292.17-.08.2-.091.39-.124.159-.048.24-.028.376-.028a.49.49 0 0 1 .193.038c.06.026.12.038.18.038a.199.199 0 0 0 .125-.044.326.326 0 0 0 .09-.109.595.595 0 0 0 .068-.25v-.056c-.037-.153-.139-.278-.305-.377a1.006 1.006 0 0 0-.52-.147.536.536 0 0 0-.272.065 1.71 1.71 0 0 0-.215.148 2.43 2.43 0 0 1-.204.148.41.41 0 0 1-.226.065h-.045l.362-.7c0-.014-.02-.043-.062-.087l-.136-.141a1.262 1.262 0 0 0-.147-.131c-.05-.037-.085-.055-.108-.055-.007-.007-.035-.013-.084-.016a1.707 1.707 0 0 0-.12-.006c-.09 0-.175.01-.254.033-.079.022-.122.065-.13.13-.106.292-.207.585-.306.88-.098.295-.183.594-.254.896a7.618 7.618 0 0 0-.158.912 5.081 5.081 0 0 0-.006 1.06zm9.602-.668a1.82 1.82 0 0 0 .575.618c.119.078.241.13.368.159a.83.83 0 0 0 .113.008h.181c.398 0 .741-.109 1.03-.326l.658-.51a5.5 5.5 0 0 0 .125-.1l.169-.133c.057-.045.108-.088.151-.13l.083-.079c.11-.1.7-.442.755-.55.055-.109.414-.557.53-.657-.047-.062-.278-.054-.341-.11-.064-.056.458-1.234-.227-.365l-.831.876-.276.305-.666.443-.121.058a6.61 6.61 0 0 0-.264.2 2.71 2.71 0 0 1-.26.184 1.47 1.47 0 0 1-.285.138 1.039 1.039 0 0 1-.35.054.91.91 0 0 1-.195-.016.233.233 0 0 1-.113-.055.246.246 0 0 1-.06-.108 3.07 3.07 0 0 1-.048-.18l-.009-.05a1.799 1.799 0 0 1-.034-.551 2.78 2.78 0 0 1 .103-.526c.052-.173.114-.34.187-.502l.212-.475c.126-.296.27-.571.428-.828.158-.256.368-.487.627-.693.064-.05.127-.093.19-.13a.484.484 0 0 1 .243-.054.09.09 0 0 0 .017.025c.006.006.009.012.009.017v.017a4.957 4.957 0 0 1-.338 1.01l-.095.184a1.627 1.627 0 0 1-.104.138 6.17 6.17 0 0 1-.458.497h-.009l-.017-.008c-.03 0-.058.015-.087.046a.924.924 0 0 0-.147.208.304.304 0 0 0-.026.063c.012.056.04.11.087.163a1.038 1.038 0 0 0 .359.255.487.487 0 0 0 .186.042c.08 0 .167-.037.26-.109.091-.072.185-.167.28-.284a3.41 3.41 0 0 0 .277-.397 6.246 6.246 0 0 0 .454-.906c.058-.145.102-.276.13-.393a.529.529 0 0 0 .009-.213l-.035-.204-.086-.41-.606-.442a.767.767 0 0 1-.065-.004 1.136 1.136 0 0 0-.1-.005h-.172c-.087 0-.157.005-.212.013a.199.199 0 0 0-.126.063l-.26.058a.843.843 0 0 0-.094.075 2.745 2.745 0 0 0-.165.155l-.164.167c-.052.053-.087.09-.104.112a9.238 9.238 0 0 0-.471.681c-.13.209-.246.42-.347.635a7.484 7.484 0 0 0-.28.689c-.087.245-.182.524-.286.836a1.288 1.288 0 0 0-.06.467c.005.173.025.334.06.485.023.117.069.236.138.359zm7.182-1.272c0-.248-.03-.495-.088-.75-.073-.324-.176-.543-.315-.663a1.134 1.134 0 0 0-.204-.128c-.044-.084-.103-.127-.183-.127-.044 0-.169-.035-.367-.1a1.728 1.728 0 0 0-.505-.098c-.315 0-.622.113-.922.332-.307.234-.461.495-.461.785 0 .261.154.388.469.388.043 0 .087 0 .131-.007.037-.12.066-.219.08-.29l.081-.035c.022-.092.044-.183.073-.276.03-.091.11-.155.241-.19-.182.198-.329.501-.446.904a3.68 3.68 0 0 0-.153.997c0 .508.146.855.431 1.031.198.12.388.184.571.184.212 0 .44-.106.682-.325l.563-.558c.22-.184.329-.545.329-1.074h-.007zm-.783-.078c0 .586-.19.996-.579 1.236-.066.043-.117.064-.16.064-.14 0-.206-.141-.206-.424 0-.07.007-.148.022-.24.49-.064.74-.29.74-.678 0-.085-.045-.262-.133-.53a2.61 2.61 0 0 1-.05-.439c.124.05.22.198.285.453.052.197.081.388.081.565v-.007zm7.01 1.985l-.072-.17.036.022-.015-.183a2.2 2.2 0 0 0-.505.162c-.102.05-.153.078-.16.078-.022 0-.067-.05-.14-.156l-.146-.205c-.161-.183-.293-.53-.396-1.046a18 18 0 0 1-.073-.593 13.428 13.428 0 0 0-.131-.947c-.154-.84-.403-1.265-.74-1.265-.205 0-.447.304-.717.919-.162.36-.308.763-.44 1.208-.088-.622-.263-1.053-.52-1.293l-.036-.134a3.44 3.44 0 0 0-.308.014c-.263.042-.439.198-.534.473-.044-.275-.102-.473-.168-.6-.117-.212-.285-.318-.512-.318-.139 0-.27.106-.395.325a.217.217 0 0 0 .066.014c.014 0-.088.127-.088.127.102.19.197.6.292 1.23.03.226.08.664.154 1.32a.989.989 0 0 1 .008.17c0 .63.036.983.102 1.06.088.092.227.135.417.135.183 0 .307-.07.373-.212.037-.092.059-.24.059-.445 0-.276 0-.424.007-.453a7.96 7.96 0 0 1 .197-1.088c.022.113.037.22.045.325.007.368.021.735.036 1.11.044.55.146.869.307.96a.61.61 0 0 0 .308.071.398.398 0 0 0 .27-.084c.067-.057.118-.156.162-.297a1.8 1.8 0 0 1 .11-.325c.102-.191.175-.438.227-.742l.11-.77a7.6 7.6 0 0 1 .336-1.195c.044.36.08.594.103.7.007.021.022.078.05.177a.754.754 0 0 1 .038.19c0 .332.08.679.234 1.039.146.346.337.65.578.919.117.12.212.205.278.254.11.035.22.057.33.057.388 0 .68-.177.871-.523l-.007-.015z" id="Fill-14" fill="#1D1D1B"/><path d="M17.993 26.952a3.72 3.72 0 0 0-.086-.784c-.072-.34-.173-.57-.31-.695a1.102 1.102 0 0 0-.2-.133c-.044-.088-.101-.133-.18-.133-.044 0-.166-.037-.36-.103a1.602 1.602 0 0 0-.498-.104c-.309 0-.61.118-.906.348-.302.244-.453.517-.453.82 0 .274.151.407.46.407.044 0 .087 0 .13-.008.036-.125.065-.229.08-.303l.078-.037c.022-.096.043-.192.072-.288.029-.096.108-.162.237-.2-.18.208-.323.525-.438.947a4.09 4.09 0 0 0-.151 1.043c0 .532.144.894.424 1.08.194.125.381.191.561.191.209 0 .432-.11.67-.34l.554-.584c.215-.192.323-.57.323-1.124h-.007zm-.77-.081c0 .613-.186 1.042-.568 1.294-.065.044-.116.066-.159.066-.137 0-.201-.148-.201-.444a1.7 1.7 0 0 1 .021-.25c.482-.067.727-.304.727-.71 0-.09-.043-.274-.13-.555a2.914 2.914 0 0 1-.05-.459c.122.052.216.207.281.474.05.207.08.406.08.591v-.007z" id="Fill-16" fill="#1D1D1B"/><path d="M79.606 28.667c.035.112.082.231.142.357.06.127.132.246.217.357.084.112.183.203.296.273a.7.7 0 0 0 .38.106c.162 0 .278-.052.348-.156.07-.104.13-.223.18-.357a.56.56 0 0 1 .069-.24c.045-.092.065-.157.058-.194a.348.348 0 0 0-.032-.084.143.143 0 0 0-.074-.062l-.18.146h-.063a.385.385 0 0 0-.248.072c-.06.049-.108.072-.143.072-.056 0-.098-.081-.126-.245a2.418 2.418 0 0 1-.016-.914c.053-.305.103-.595.153-.87 0-.037.007-.104.021-.2.014-.097.028-.153.042-.168l.19-.714.032-.223.222-.58v-.066c-.007-.03-.032-.063-.074-.1a2.056 2.056 0 0 0-.132-.107l-.132-.094a.577.577 0 0 1-.085-.067.21.21 0 0 0-.084-.011h-.201c-.042 0-.063.003-.063.01l-.116.146-.17.513-.052.067a.724.724 0 0 0-.18-.045 1.49 1.49 0 0 0-.18-.022.603.603 0 0 0-.453.217c-.134.145-.254.32-.36.524-.105.205-.2.418-.285.641-.085.223-.158.413-.222.57a4.769 4.769 0 0 0-.206.5c-.031.09-.054.181-.068.274a.961.961 0 0 0 0 .284l.02.1.201.29c.078.082.143.142.196.179a.369.369 0 0 0 .216.056c.092 0 .18-.02.264-.062.085-.04.164-.09.238-.15a1.72 1.72 0 0 0 .206-.195c.064-.07.123-.136.18-.195l.074.367zm.137-2.397l.021.078c.007.022-.012.073-.058.15a4.497 4.497 0 0 1-.375.541c-.078.097-.144.18-.2.246a.987.987 0 0 1 .084-.296 3.57 3.57 0 0 1 .163-.334c.06-.108.118-.199.175-.273.056-.075.095-.112.116-.112h.074zm6.001 2.436c0-.145-.138-.222-.42-.222a.983.983 0 0 0-.306.046c-.21-.353-.349-.943-.414-1.77-.036-.468-.109-.813-.225-1.035a.733.733 0 0 0-.13-.169.464.464 0 0 0-.044-.184l-.131-.115a6.247 6.247 0 0 0-.196-.238c-.065-.076-.174-.115-.327-.115-.218 0-.407.146-.56.43-.08.146-.173.383-.282.72 0-.191 0-.383-.008-.574-.007-.284-.029-.46-.065-.537l-.13-.023c-.044-.046-.087-.092-.13-.13a.283.283 0 0 0-.19-.062c-.166 0-.283.07-.348.215-.014.03-.022.13-.022.299 0 .651.022 1.119.066 1.402.05.238.094.414.123.53l.087.88c.066.407.167.652.312.737a.506.506 0 0 0 .254.053c.138 0 .24-.038.312-.123.073-.084.116-.268.138-.551.015-.2.03-.399.05-.598.044-.154.081-.268.117-.337.03-.123.073-.33.13-.629.052-.268.095-.475.139-.62.08.298.13.528.145.69.196.88.298 1.402.298 1.563a.84.84 0 0 0 .13.429c.146.237.218.368.226.39.036.07.08.123.13.162.022.023.08.053.175.092.007 0 .058.023.152.076a.387.387 0 0 0 .16.047.72.72 0 0 0 .196-.031c.022-.038.13-.138.334-.3.182-.145.269-.268.269-.375l-.015-.023zM90 27.588a.977.977 0 0 0-.312-.085.574.574 0 0 0-.269.077c-.102.053-.24.107-.414.169-.175.06-.32.138-.436.237l-.348.3a7.36 7.36 0 0 0 .043-.415c0-.053 0-.13-.007-.238v-.237c0-.085 0-.207.007-.376.007-.168.007-.291.007-.375 0-.13-.007-.322-.014-.575-.007-.253-.015-.445-.015-.575 0-.1.008-.253.022-.468.015-.214.022-.368.022-.467 0-.376-.13-.56-.399-.56-.225 0-.37.1-.435.299l-.538 1.763-.065.299a.886.886 0 0 1-.102.276l-.095.115a.262.262 0 0 0-.043.16c0 .1-.037.216-.117.346a6.752 6.752 0 0 1-.065-.529.316.316 0 0 0 .036-.153c0-.039-.007-.1-.029-.177a.672.672 0 0 1-.03-.176c0-.176.015-.307.052-.39a.292.292 0 0 0 .087-.223c0-.046-.007-.107-.022-.184a1.051 1.051 0 0 1-.021-.177c0-.068.014-.16.043-.283.03-.123.044-.215.044-.276 0-.283-.138-.43-.421-.43a.489.489 0 0 0-.283.07c-.109.084-.189.383-.24.896-.036.353-.058.706-.058 1.066 0 1.403.305 2.1.907 2.1a.59.59 0 0 0 .276-.069c.088-.046.211-.214.364-.498a6.49 6.49 0 0 0 .283-.605c0 .091 0 .26.008.513.007.222.007.391.007.514 0 .023 0 .069-.007.13-.008.061-.008.107-.008.138 0 .077.008.192.015.337.007.146.015.261.015.338 0 .16-.022.283-.066.36-.116.2-.225.521-.32.958a3.809 3.809 0 0 0-.036.407 10.569 10.569 0 0 0-.138 1.793c0 .552.037.989.116 1.303l.073.399c.036.176.073.299.109.368.08.145.196.222.348.222.181 0 .312-.092.392-.283.05-.13.087-.46.109-.99.029-.65.05-1.02.058-1.111.007-.038.007-.069.007-.1 0-.038-.007-.092-.014-.168-.008-.077-.015-.13-.015-.169 0-.122.007-.306.022-.552.015-.245.022-.429.022-.552 0-.03-.007-.076-.015-.138-.007-.06-.014-.107-.014-.137 0-.031.007-.07.029-.116.036-.1.058-.29.065-.582.007-.345.015-.56.022-.644l.022-.008a.556.556 0 0 0 .116-.207.556.556 0 0 1 .145-.222 4.23 4.23 0 0 0 .298-.353 1.97 1.97 0 0 1 .348-.345c.175-.13.313-.207.415-.23.166-.038.268-.084.304-.13.015-.023.044-.13.088-.322l.065-.053z" id="Fill-18" fill="#1D1D1B"/><path d="M75.457 32.926a.93.93 0 0 0 .286.074.258.258 0 0 0 .158-.09.352.352 0 0 0 .067-.157.742.742 0 0 0 .008-.182 1.711 1.711 0 0 0-.017-.158l-.048-.96a1.068 1.068 0 0 1-.006-.061c-.003-.035 0-.056.01-.064l-.025-.052-.022-.29.001.009a2.77 2.77 0 0 1-.004-.384c.007-.126.013-.246.017-.36l-.001-.21-.004-.25c0-.093.029-.145.089-.157l.29-.023c.01.023.086.02.227-.01a3.675 3.675 0 0 0 .717-.23c.054-.027.082-.05.085-.07.006-.033.031-.057.076-.073.046-.016.068-.027.067-.033l-.009.002c.089-.146.177-.286.264-.422.088-.135.155-.262.203-.38l-.01-.017c.028-.094.055-.2.078-.316a2.4 2.4 0 0 0 .043-.351 2.128 2.128 0 0 0-.01-.35 1.523 1.523 0 0 0-.069-.314l-.296-.623a.793.793 0 0 0-.108-.139l-.138-.075-.498-.21-.359.075-.254.196-.075.11a3.57 3.57 0 0 1-.141.192 4.024 4.024 0 0 0-.145.196 1.107 1.107 0 0 0-.101.179c-.025.056-.029.1-.012.135a.043.043 0 0 1-.003.03l-.011.087a.533.533 0 0 0-.04-.191l-.036-.069-.01-.007-.14-.076-.122-.079a.486.486 0 0 0-.279-.056c-.104.086-.154.174-.15.265.004.091.01.187.022.286l.014.187c.02.192.03.385.028.58-.002.193-.007.392-.012.596l.047 1.212c.015.4.026.805.031 1.216l.02 1.09c.002.088.01.172.02.252.01.08.028.163.053.246a.374.374 0 0 0 .049.095.346.346 0 0 0 .185.18zm1.452-6.172a.21.21 0 0 1 .064.03c.037.02.08.047.126.078a.793.793 0 0 1 .132.11.46.46 0 0 1 .088.124c.043.125.054.287.034.488-.02.201-.072.4-.155.598a1.87 1.87 0 0 1-.341.538.948.948 0 0 1-.52.303 2.218 2.218 0 0 1-.288.042 5.947 5.947 0 0 0 0-.414 2.429 2.429 0 0 1 .056-.559c.042-.205.121-.421.239-.649.117-.227.297-.455.54-.684l.025-.005z" id="Fill-20" fill="#1D1D1B"/><path d="M60 26.727c0-.068-.046-.113-.14-.144a19.42 19.42 0 0 1-1.21.296l-1.1.34a3.11 3.11 0 0 1-.016-.295c0-.053 0-.136.008-.25.008-.113.008-.197.008-.25 0-.265-.008-.659-.031-1.189s-.031-.924-.031-1.19a1.12 1.12 0 0 0-.023-.181 1.15 1.15 0 0 1-.023-.182c0-.076.007-.19.015-.341.008-.151.015-.265.015-.34 0-.667-.17-1.001-.503-1.001a.663.663 0 0 0-.325.091c-.124.068-.202.144-.233.235a.539.539 0 0 0-.023.19c0 .28.03.65.1 1.113.078.553.125.924.132 1.114.031.704.055 1.227.062 1.575.04.493.055.803.055.932s-.008.22-.023.265c-.008.023-.163.06-.466.114a5.023 5.023 0 0 0-.814.204c-.287.106-.434.243-.434.41 0 .204.14.303.41.303.18 0 .396-.03.644-.099l.636-.182c.016.265.024.568.024.91 0 .226 0 .461-.008.704 0 .053-.008.151-.016.287-.007.137-.015.243-.015.311 0 .174.015.296.046.364.055.106.155.159.302.159.116 0 .202-.03.264-.09.092-.1.162-.562.209-1.387.015-.516.03-1.03.054-1.546l1.07-.477.628-.212c.194-.068.395-.182.605-.34.093-.07.14-.13.14-.183l.007-.038z" id="Fill-22" fill="#1D1D1B"/></g></g></g></svg>