<?xml version="1.0" encoding="UTF-8"?>
<svg width="40px" height="40px" viewBox="0 0 40 40" version="1.1" xmlns="http://www.w3.org/2000/svg" xmlns:xlink="http://www.w3.org/1999/xlink">
    <!-- Generator: Sketch 55 (78076) - https://sketchapp.com -->
    <title>BTN/Arrow</title>
    <desc>Created with Sketch.</desc>
    <defs>
        <filter x="-26.2%" y="-26.2%" width="152.5%" height="152.5%" filterUnits="objectBoundingBox" id="filter-1">
            <feOffset dx="0" dy="0" in="SourceAlpha" result="shadowOffsetOuter1"></feOffset>
            <feGaussianBlur stdDeviation="2.5" in="shadowOffsetOuter1" result="shadowBlurOuter1"></feGaussianBlur>
            <feColorMatrix values="0 0 0 0 0   0 0 0 0 0   0 0 0 0 0  0 0 0 0.1 0" type="matrix" in="shadowBlurOuter1" result="shadowMatrixOuter1"></feColorMatrix>
            <feMerge>
                <feMergeNode in="shadowMatrixOuter1"></feMergeNode>
                <feMergeNode in="SourceGraphic"></feMergeNode>
            </feMerge>
        </filter>
    </defs>
    <g id="BTN/Arrow" stroke="none" stroke-width="1" fill="none" fill-rule="evenodd">
        <g filter="url(#filter-1)" fill="#FFFFFF" id="Oval">
            <circle cx="20" cy="20" r="20"></circle>
        </g>
        <g id="right-arrow" transform="translate(20.000000, 18.500000) rotate(-270.000000) translate(-20.000000, -18.500000) translate(11.500000, 12.500000)" fill="#1E201D" fill-rule="nonzero">
            <path d="M11.4476024,0.180471502 C11.2160051,-0.0601571674 10.8305494,-0.0601571674 10.5908542,0.180471502 C10.3592569,0.412970825 10.3592569,0.799927739 10.5908542,1.03188511 L14.9350587,5.39300876 L0.599777707,5.39300876 C0.26560813,5.39355072 0,5.6601933 0,5.99566435 C0,6.3311354 0.26560813,6.60644928 0.599777707,6.60644928 L14.9350587,6.60644928 L10.5908542,10.9594436 C10.3592569,11.2000723 10.3592569,11.5875711 10.5908542,11.8195285 C10.8305494,12.0601572 11.2165449,12.0601572 11.4476024,11.8195285 L16.8202286,6.42597778 C17.0599238,6.19347846 17.0599238,5.80652154 16.8202286,5.57456418 L11.4476024,0.180471502 Z" id="Path"></path>
        </g>
    </g>
</svg>