<?xml version="1.0" encoding="UTF-8"?>
<svg width="60px" height="60px" viewBox="0 0 60 60" version="1.1" xmlns="http://www.w3.org/2000/svg" xmlns:xlink="http://www.w3.org/1999/xlink">
    <!-- Generator: Sketch 55 (78076) - https://sketchapp.com -->
    <title>Icon/Coffee</title>
    <desc>Created with Sketch.</desc>
    <g id="Icon/Coffee" stroke="none" stroke-width="1" fill="none" fill-rule="evenodd">
        <g id="coffee-cup" transform="translate(20.000000, 20.000000)" fill="#292929" fill-rule="nonzero">
            <path d="M17.9684797,17.3736961 L13.6978431,17.3736961 C14.7858174,16.9664111 15.6177885,16.3870191 16.2520831,15.6853525 C18.8403273,15.3170779 20,13.3110357 20,11.4646423 C20,10.1539076 19.2212373,9.05953371 18.2133731,8.86816331 C18.2134525,8.85823406 18.2135715,8.84830482 18.2136509,8.83841276 C18.2136509,8.67426412 18.1435793,8.51011547 18.0034758,8.37880399 C17.8633723,8.24749252 17.6882331,8.18181818 17.5130938,8.18181818 L1.40107448,8.18181818 C1.22593521,8.18181818 1.05079594,8.24749252 0.910692463,8.37880399 C0.770588982,8.51011547 0.700517403,8.67426412 0.700517403,8.83841276 C0.727617566,12.369059 1.3838145,15.9389759 5.21632517,17.3737332 L0.910692463,17.3737332 C0.420310442,17.3737332 0,17.7348305 0,18.2272764 C0,18.6212109 0.280206961,18.916671 0.770588982,19.0151453 L5.21890425,19.3106054 C5.32397194,19.3106054 5.42907931,19.3762798 5.46407542,19.4747541 C5.63921469,19.8030514 5.98945355,20 6.37476788,20 L12.1891218,20 C12.5743965,20 12.924675,19.8030142 13.0647785,19.4747541 C13.0998143,19.3762798 13.204882,19.3106054 13.3099497,19.3106054 L18.0735077,19.0151453 L18.1085435,19.0151453 C18.5989255,18.916671 18.8791325,18.6212109 18.8791325,18.2272764 C18.8791325,17.7676305 18.4938578,17.3736961 17.9684797,17.3736961 Z M18.2136509,9.5606073 C18.8091006,9.75759311 19.2644468,10.545462 19.2644468,11.4646423 C19.2644468,12.7439159 18.6348739,14.2853661 16.8867348,14.8445648 C16.9160173,14.797968 16.9446649,14.7509994 16.9727173,14.7036588 C17.9455061,13.1221569 18.1456425,11.2176756 18.2136509,9.5606073 Z M1.40107448,8.83837557 L17.5131335,8.83837557 C17.4780977,13.2701659 16.4623375,17.3736961 9.45712381,17.3736961 C2.45191011,17.3736961 1.43611027,13.2701659 1.40107448,8.83837557 Z M18.0385116,18.3585507 L13.3449855,18.6540109 C12.9947069,18.686848 12.6795039,18.8837967 12.5043646,19.1792568 C12.434293,19.2777311 12.3292253,19.3434054 12.2241576,19.3434054 L6.37480756,19.3434054 C6.26973987,19.3434054 6.1646325,19.2777311 6.0946006,19.1792568 C5.91946133,18.8837967 5.60421858,18.686848 5.25397972,18.6540109 L0.875696351,18.3585507 C0.700557081,18.3257136 0.700557081,18.2600764 0.700557081,18.2272393 C0.700557081,18.1287649 0.805624772,18.0302534 0.910732141,18.0302534 L18.0034758,18.0302534 C18.1085435,18.0302534 18.2136509,18.1287278 18.2136509,18.2272393 C18.2136509,18.2600764 18.2136509,18.3257136 18.0385116,18.3585507 Z" id="Shape"></path>
            <path d="M9.22725985,2.93433882 C8.54545455,3.464631 8.18181818,3.99496323 8.18181818,4.56061891 C8.18181818,5.12627459 8.54545455,5.69193026 9.22725985,6.25758594 C9.31819469,6.32831292 9.40907804,6.36363636 9.5454288,6.36363636 C9.68177956,6.36363636 9.7727144,6.32827287 9.86359774,6.25758594 C10.0454159,6.11617202 10.0454159,5.90403111 9.86359774,5.7626172 C9.36361062,5.33837544 9.0908576,4.94949717 9.0908576,4.56057886 C9.0908576,4.17166055 9.36361062,3.78278228 9.86359774,3.42926751 C10.5454545,2.93433882 10.9090909,2.36868314 10.9090909,1.80302747 C10.9090909,1.23737179 10.590922,0.636352623 9.86364924,0.106060439 C9.68183105,-0.0353534797 9.40907804,-0.0353534797 9.22725985,0.106060439 C9.04544167,0.247474358 9.04544167,0.459615261 9.22725985,0.60102918 C9.72724698,1.02527094 10,1.4141492 10,1.80306752 C10,2.19198583 9.72724698,2.580784 9.22725985,2.93433882 Z" id="Path"></path>
            <path d="M11.8181818,4.56063026 C11.8181818,5.12628237 12.1818182,5.69193449 12.8636235,6.2575866 C12.9545583,6.32831314 13.0454417,6.36363636 13.1817924,6.36363636 C13.2727273,6.36363636 13.409078,6.32827309 13.4545455,6.2575866 C13.6363636,6.11617358 13.6363636,5.90403401 13.4545455,5.76262098 C12.9545583,5.33838189 12.6818053,4.94950607 12.6818053,4.56059021 C12.6818053,4.17167434 12.9545583,3.78279852 13.4545455,3.42928598 C14.1818182,2.93432035 14.5454545,2.36866823 14.5454545,1.80301612 C14.5454545,1.20200073 14.2272856,0.636348618 13.5000129,0.106059772 C13.3181947,-0.0353532572 13.0454417,-0.0353532572 12.8636235,0.106059772 C12.6818053,0.247472801 12.6818053,0.459612369 12.8636235,0.601025398 C13.3636106,1.02526448 13.6363636,1.4141403 13.6363636,1.80305617 C13.6363636,2.19197203 13.3636106,2.54548458 12.8636235,2.9343604 C12.1818182,3.46464925 11.8181818,3.99497814 11.8181818,4.56063026 Z" id="Path"></path>
            <path d="M4.54545455,4.56063026 C4.54545455,5.12628237 4.90909091,5.69193449 5.59089622,6.2575866 C5.68183105,6.32831314 5.7727144,6.36363636 5.90906516,6.36363636 C6,6.36363636 6.13635076,6.32827309 6.18181818,6.2575866 C6.36363636,6.11617358 6.36363636,5.90403401 6.18181818,5.76262098 C5.68183105,5.33838189 5.40907804,4.94950607 5.40907804,4.56059021 C5.40907804,4.17167434 5.68183105,3.78279852 6.18181818,3.42928598 C6.90909091,2.93432035 7.27272727,2.36866823 7.27272727,1.80301612 C7.27272727,1.20200073 6.95455833,0.636348618 6.2272856,0.106059772 C6.04546742,-0.0353532572 5.7727144,-0.0353532572 5.59089622,0.106059772 C5.40907804,0.247472801 5.40907804,0.459612369 5.59089622,0.601025398 C6.09088334,1.02526448 6.36363636,1.4141403 6.36363636,1.80305617 C6.36363636,2.19197203 6.09088334,2.54548458 5.59089622,2.9343604 C4.90909091,3.46464925 4.54545455,3.99497814 4.54545455,4.56063026 Z" id="Path"></path>
            <path d="M7.88588107,15.6824801 C5.30937728,15.2737863 4.00299663,13.9114737 3.45864052,11.1868099 C3.42234189,11.0165112 3.20463234,10.88028 3.02318031,10.9143474 C2.84172827,10.9484149 2.69657487,11.1527425 2.73287349,11.3230412 C3.31348712,14.3541964 4.87391706,15.8868462 7.74072766,16.3636364 C7.77702629,16.3636364 7.77702629,16.3636364 7.81332492,16.3636364 C7.99477695,16.3636364 8.13993036,16.2614726 8.17622899,16.0911738 C8.21248651,15.8868462 8.0673331,15.7165475 7.88588107,15.6824801 Z" id="Path"></path>
        </g>
        <path d="M30,10 C18.9721739,10 10,18.9721739 10,30 C10,41.0278261 18.9721739,50 30,50 C41.0286957,50 50,41.0278261 50,30 C50,18.9721739 41.0286957,10 30,10 Z M30,48.2608696 C19.9304348,48.2608696 11.7391304,40.0695652 11.7391304,30 C11.7391304,19.9304348 19.9304348,11.7391304 30,11.7391304 C40.0686957,11.7391304 48.2608696,19.9304348 48.2608696,30 C48.2608696,40.0695652 40.0686957,48.2608696 30,48.2608696 Z" id="Shape" fill="#292929" fill-rule="nonzero"></path>
    </g>
</svg>