<?xml version="1.0" encoding="UTF-8"?>
<svg width="60px" height="60px" viewBox="0 0 60 60" version="1.1" xmlns="http://www.w3.org/2000/svg" xmlns:xlink="http://www.w3.org/1999/xlink">
    <!-- Generator: Sketch 55 (78076) - https://sketchapp.com -->
    <title>Icon/Insta</title>
    <desc>Created with Sketch.</desc>
    <g id="Icon/Insta" stroke="none" stroke-width="1" fill="none" fill-rule="evenodd">
        <g id="instagram" transform="translate(20.000000, 19.000000)" fill="#292929" fill-rule="nonzero">
            <path d="M17.8471477,0.72972973 L3.23393335,0.72972973 C1.89777257,0.72972973 0.810810811,1.80669709 0.810810811,3.13057213 L0.810810811,17.7883468 C0.810810811,19.1122218 1.89777257,20.1891892 3.23393335,20.1891892 L17.8471477,20.1891892 C19.1833085,20.1891892 20.2702703,19.1122218 20.2702703,17.7883468 L20.2702703,3.13057213 C20.2702703,1.80682345 19.1833085,0.72972973 17.8471477,0.72972973 Z M17.9746805,17.7883468 C17.9746805,17.8580976 17.9175458,17.9147069 17.8471477,17.9147069 L3.23393335,17.9147069 C3.16353526,17.9147069 3.10640059,17.8580976 3.10640059,17.7883468 L3.10640059,3.13057213 C3.10640059,3.06082134 3.16353526,3.004212 3.23393335,3.004212 L17.8471477,3.004212 C17.9175458,3.004212 17.9746805,3.06082134 17.9746805,3.13057213 L17.9746805,17.7883468 Z" id="Shape"></path>
            <rect id="Rectangle" x="13.7837838" y="5.05405405" width="2.16216216" height="2.16216216"></rect>
            <circle id="Oval" cx="10" cy="12.0810811" r="2.7027027"></circle>
            <path d="M14.1123647,12.2023083 C14.1123647,14.3624998 12.2711721,16.1136738 9.99993657,16.1136738 C7.72870104,16.1136738 5.88750843,14.3624998 5.88750843,12.2023083 L5.89309011,10.4594595 L4.05405405,10.4594595 L4.05405405,16.9459459 L15.9459459,16.9459459 L15.9459459,10.4594595 L14.1218789,10.4594595 L14.1123647,12.2023083 Z" id="Path"></path>
        </g>
        <path d="M30,10 C18.9721739,10 10,18.9721739 10,30 C10,41.0278261 18.9721739,50 30,50 C41.0286957,50 50,41.0278261 50,30 C50,18.9721739 41.0286957,10 30,10 Z M30,48.2608696 C19.9304348,48.2608696 11.7391304,40.0695652 11.7391304,30 C11.7391304,19.9304348 19.9304348,11.7391304 30,11.7391304 C40.0686957,11.7391304 48.2608696,19.9304348 48.2608696,30 C48.2608696,40.0695652 40.0686957,48.2608696 30,48.2608696 Z" id="Shape" fill="#292929" fill-rule="nonzero"></path>
    </g>
</svg>