<?xml version="1.0" encoding="UTF-8"?>
<svg width="60px" height="60px" viewBox="0 0 60 60" version="1.1" xmlns="http://www.w3.org/2000/svg" xmlns:xlink="http://www.w3.org/1999/xlink">
    <!-- Generator: Sketch 55 (78076) - https://sketchapp.com -->
    <title>Icon/Package</title>
    <desc>Created with Sketch.</desc>
    <g id="Icon/Package" stroke="none" stroke-width="1" fill="none" fill-rule="evenodd">
        <path d="M30,10 C18.9721739,10 10,18.9721739 10,30 C10,41.0278261 18.9721739,50 30,50 C41.0286957,50 50,41.0278261 50,30 C50,18.9721739 41.0286957,10 30,10 Z M30,48.2608696 C19.9304348,48.2608696 11.7391304,40.0695652 11.7391304,30 C11.7391304,19.9304348 19.9304348,11.7391304 30,11.7391304 C40.0686957,11.7391304 48.2608696,19.9304348 48.2608696,30 C48.2608696,40.0695652 40.0686957,48.2608696 30,48.2608696 Z" id="Shape" fill="#292929" fill-rule="nonzero"></path>
        <g id="scooter-(1)" transform="translate(18.000000, 22.000000)" fill="#292929" fill-rule="nonzero">
            <path d="M22.0032397,10.8672936 C21.6654968,10.8672936 21.3409827,10.9224138 21.037851,11.0225705 L20.625054,10.2236677 C21.0565875,10.0657262 21.5215983,9.97910136 22.0032397,9.97910136 C22.5473002,9.97910136 23.0737581,10.0849007 23.5679266,10.2936782 C23.7727862,10.380094 24.0116091,10.2896029 24.1010799,10.0913271 C24.1905508,9.89294671 24.0969222,9.66196447 23.8919546,9.57539185 C23.2949244,9.32324974 22.6595032,9.1954023 22.0032397,9.1954023 C21.3927106,9.1954023 20.8041577,9.31060606 20.2615011,9.52011494 L18.7612311,6.61677116 C18.8321814,6.62873563 18.9050216,6.6353187 18.9794816,6.6353187 L19.8434125,6.6353187 C20.0670626,6.6353187 20.2483801,6.45992685 20.2483801,6.24346917 L20.2483801,4.57157785 C20.2483801,4.35512017 20.0670626,4.17972832 19.8434125,4.17972832 L18.9794816,4.17972832 C18.4867171,4.17972832 18.0589633,4.45308255 17.8488661,4.85120167 L17.4206263,4.02246604 C17.2043197,3.603814 16.7693844,3.34378265 16.2856911,3.34378265 L15.5237581,3.34378265 C15.300108,3.34378265 15.1187905,3.5191745 15.1187905,3.73563218 C15.1187905,3.95208986 15.300108,4.12748171 15.5237581,4.12748171 L16.2856911,4.12748171 C16.4606371,4.12748171 16.6179806,4.22157785 16.6962203,4.37298851 L17.7450324,6.40261233 L17.5481102,6.49791014 C17.1154428,6.70721003 16.8466523,7.12800418 16.8466523,7.5960815 L16.8466523,11.7032393 L13.3639309,11.7032393 C12.6345032,11.7032393 12.0410367,11.1290491 12.0410367,10.4231975 L12.0410367,8.72518286 L12.0680346,8.72518286 C12.7677106,8.72518286 13.336933,8.17439916 13.336933,7.49738767 C13.336933,6.82037618 12.7677106,6.26959248 12.0680346,6.26959248 L8.61231102,6.26959248 C8.26538877,6.26959248 7.95070194,6.40512017 7.72138229,6.62419018 L7.72138229,0.809822362 C7.72138229,0.363270637 7.34595032,0 6.88444924,0 L0.836933045,0 C0.375431965,0 0,0.363270637 0,0.809822362 L0,6.66144201 C0,7.10799373 0.375431965,7.47126437 0.836933045,7.47126437 L1.74589633,7.47126437 C1.72678186,7.5515674 1.71636069,7.63432602 1.71776458,7.71891327 C1.72683585,8.2737722 2.20075594,8.72518286 2.77424406,8.72518286 L4.95145788,8.72518286 C4.67764579,8.89435737 4.44308855,9.07340648 4.24789417,9.24315569 C3.35064795,10.0233542 2.87116631,10.9530303 2.72165227,11.5629049 C2.64103672,11.8917973 2.71841253,12.2314002 2.93401728,12.4947753 C3.14665227,12.7545977 3.46517279,12.903396 3.80815335,12.903396 C3.80890929,12.903396 3.80961123,12.903396 3.81036717,12.903396 L4.0237581,12.9030303 C3.93417927,13.181348 3.88768898,13.4727273 3.88768898,13.7669801 C3.88768898,15.365883 5.23201944,16.6666667 6.88444924,16.6666667 C8.39946004,16.6666667 9.65469762,15.5729363 9.85307775,14.1588297 L17.6835853,14.1588297 C17.9072354,14.1588297 18.0885529,13.9834378 18.0885529,13.7669801 C18.0885529,13.511651 18.1149028,13.2565831 18.1669006,13.0089342 C18.3832073,11.9778997 19.0292657,11.1133751 19.9010799,10.5749739 L20.3137689,11.3736155 C19.525108,11.8964995 19.0064795,12.7741379 19.0064795,13.7669801 C19.0064795,15.365883 20.3508099,16.6666667 22.0032397,16.6666667 C23.6556695,16.6666667 25,15.365883 25,13.7669801 C25,12.1680773 23.6556695,10.8672936 22.0032397,10.8672936 Z M8.61231102,7.05329154 L12.0680346,7.05329154 C12.3211123,7.05329154 12.5269978,7.25250784 12.5269978,7.49738767 C12.5269978,7.7422675 12.3211123,7.9414838 12.0680346,7.9414838 L8.61231102,7.9414838 C8.35923326,7.9414838 8.15334773,7.7422675 8.15334773,7.49738767 C8.15334773,7.25250784 8.35923326,7.05329154 8.61231102,7.05329154 Z M0.809935205,0.809822362 C0.809935205,0.795454545 0.822030238,0.78369906 0.836933045,0.78369906 L6.88444924,0.78369906 C6.89935205,0.78369906 6.91144708,0.795454545 6.91144708,0.809822362 L6.91144708,1.67189133 L0.809935205,1.67189133 L0.809935205,0.809822362 Z M0.836933045,6.68756531 C0.822030238,6.68756531 0.809935205,6.67580982 0.809935205,6.66144201 L0.809935205,2.45559039 L6.91144708,2.45559039 L6.91144708,6.66144201 C6.91144708,6.67580982 6.89935205,6.68756531 6.88444924,6.68756531 L0.836933045,6.68756531 Z M2.77424406,7.9414838 C2.64038877,7.9414838 2.52975162,7.8361024 2.52764579,7.70658307 C2.52656587,7.64205852 2.55183585,7.58119122 2.59865011,7.53521421 C2.63158747,7.50292581 2.6725162,7.4815047 2.71695464,7.47126437 L7.34411447,7.47251829 C7.34395248,7.4808255 7.34346652,7.48902821 7.34346652,7.49738767 C7.34346652,7.65397074 7.37424406,7.80365726 7.42969762,7.9414838 L2.77424406,7.9414838 Z M3.80885529,12.1197492 C3.80863931,12.1197492 3.80842333,12.1197492 3.80820734,12.1197492 C3.67953564,12.1197492 3.60307775,12.0498955 3.56895248,12.0082027 C3.50831533,11.934117 3.48677106,11.8377743 3.50977322,11.7438349 C3.80820734,10.526489 5.36171706,8.72518286 7.74838013,8.72518286 C9.60113391,8.72518286 10.2915767,10.4385057 10.2915767,11.5184953 C10.2915767,11.8113898 10.12446,12.108255 9.8050216,12.1088297 L3.80885529,12.1197492 Z M7.34341253,13.7669801 C7.34341253,14.01186 7.137527,14.2110763 6.88444924,14.2110763 C6.63137149,14.2110763 6.42548596,14.01186 6.42548596,13.7669801 C6.42548596,13.5221003 6.63137149,13.322884 6.88444924,13.322884 C7.137527,13.322884 7.34341253,13.5221003 7.34341253,13.7669801 Z M6.88444924,15.8829676 C5.67861771,15.8829676 4.69762419,14.9337513 4.69762419,13.7669801 C4.69762419,13.4673459 4.76425486,13.1722571 4.88963283,12.9014629 L5.98736501,12.8994775 C5.75777538,13.1217868 5.61555076,13.4285789 5.61555076,13.7669801 C5.61555076,14.4439916 6.18477322,14.9947753 6.88444924,14.9947753 C7.58412527,14.9947753 8.15334773,14.4439916 8.15334773,13.7669801 C8.15334773,13.426907 8.00966523,13.1187565 7.77802376,12.896186 L8.87586393,12.8941484 C9.00345572,13.1668757 9.0712743,13.4645768 9.0712743,13.7669279 C9.0712743,14.9337513 8.09028078,15.8829676 6.88444924,15.8829676 Z M17.3731641,12.8530303 C17.337095,13.0247649 17.3112851,13.1993208 17.2957883,13.3751306 L9.85356371,13.3751306 C9.83050756,13.2112853 9.79292657,13.0498433 9.74163067,12.8926332 L9.80642549,12.8925287 C10.5447084,12.8912226 11.1014579,12.3005225 11.1014579,11.5184953 C11.1014579,10.6705852 10.8098272,9.81133751 10.3012959,9.16118077 C10.1897408,9.01854754 10.0542657,8.86891327 9.8924406,8.72518286 L11.2311015,8.72518286 L11.2311015,10.4231975 C11.2311015,11.5611285 12.187905,12.4869383 13.3639309,12.4869383 L17.2516199,12.4869383 C17.3413607,12.4869383 17.4240281,12.4583595 17.4911447,12.4105538 C17.4447624,12.5550157 17.4047516,12.7023511 17.3731641,12.8530303 Z M18.9794816,4.96342738 L19.4384449,4.96342738 L19.4384449,5.85161964 L18.9794816,5.85161964 C18.7264039,5.85161964 18.5205184,5.65240334 18.5205184,5.40752351 C18.5205184,5.16264368 18.7264039,4.96342738 18.9794816,4.96342738 Z M17.6565875,11.9756008 L17.6565875,7.59602926 C17.6565875,7.42675026 17.7537797,7.2745559 17.9103132,7.19879833 L18.1072354,7.10350052 L19.537581,9.87147335 C18.7106911,10.3626437 18.0456803,11.0942529 17.6565875,11.9756008 Z M22.0032397,15.8829676 C20.7974082,15.8829676 19.8164147,14.9337513 19.8164147,13.7669801 C19.8164147,12.600209 20.7974082,11.6509927 22.0032397,11.6509927 C23.2090713,11.6509927 24.1900648,12.600209 24.1900648,13.7669801 C24.1900648,14.9337513 23.2090713,15.8829676 22.0032397,15.8829676 Z" id="Shape"></path>
            <path d="M21.4285714,11.9047619 C20.7721378,11.9047619 20.2380952,12.4388045 20.2380952,13.0952381 C20.2380952,13.7516717 20.7721378,14.2857143 21.4285714,14.2857143 C22.0850051,14.2857143 22.6190476,13.7516717 22.6190476,13.0952381 C22.6190476,12.4388045 22.0850051,11.9047619 21.4285714,11.9047619 Z M21.4285714,13.5258359 C21.1911348,13.5258359 20.9979737,13.3326748 20.9979737,13.0952381 C20.9979737,12.8578014 21.1911348,12.6646403 21.4285714,12.6646403 C21.6660081,12.6646403 21.8591692,12.8578014 21.8591692,13.0952381 C21.8591692,13.3326748 21.6660081,13.5258359 21.4285714,13.5258359 Z" id="Shape"></path>
        </g>
    </g>
</svg>