<?xml version="1.0" encoding="UTF-8"?>
<svg width="60px" height="60px" viewBox="0 0 60 60" version="1.1" xmlns="http://www.w3.org/2000/svg" xmlns:xlink="http://www.w3.org/1999/xlink">
    <!-- Generator: Sketch 58 (84663) - https://sketch.com -->
    <title>Icon/Returns</title>
    <desc>Created with Sketch.</desc>
    <g id="Icon/Returns" stroke="none" stroke-width="1" fill="none" fill-rule="evenodd">
        <g id="Group" transform="translate(10.000000, 10.000000)">
            <path d="M20,0 C8.97217391,0 0,8.97217391 0,20 C0,31.0278261 8.97217391,40 20,40 C31.0286957,40 40,31.0278261 40,20 C40,8.97217391 31.0286957,0 20,0 Z M20,38.2608696 C9.93043478,38.2608696 1.73913043,30.0695652 1.73913043,20 C1.73913043,9.93043478 9.93043478,1.73913043 20,1.73913043 C30.0686957,1.73913043 38.2608696,9.93043478 38.2608696,20 C38.2608696,30.0695652 30.0686957,38.2608696 20,38.2608696 Z" id="Shape" fill="#292929" fill-rule="nonzero"></path>
            <g id="back-(3)" transform="translate(9.000000, 10.000000)">
                <path d="M8.09790766,3.18175469 L8.09790766,0.336198515 C8.09773909,0.20021091 8.01363518,0.0776907345 7.88469835,0.0256278734 C7.75576152,-0.0264349877 7.60727349,0.0023063137 7.50867474,0.0983845152 L0.101126932,7.31672918 C-0.0337089774,7.44795391 -0.0337089774,7.66096823 0.101126932,7.79219296 L7.50867474,15.0103734 C7.60727349,15.1066158 7.75576152,15.1353572 7.88469835,15.0832943 C8.01363518,15.0312314 8.09773909,14.9087112 8.09790766,14.7727237 L8.09790766,11.9270032 L8.68124151,11.9270032 C13.2147619,11.9153424 17.3702361,14.3880825 19.4300231,18.32351 L20.2171278,19.8169097 C20.2897706,19.9553608 20.4503939,20.027132 20.6054552,19.9905073 C20.7605165,19.9540469 20.8695652,19.8187163 20.8695652,19.6631846 L20.8695652,15.6269161 C20.8614749,8.75691634 15.1481403,3.18963802 8.09790766,3.18175469 Z M20.1792052,18.2721041 L20.0442007,18.0163884 C17.8667693,13.8559572 13.4739839,11.2418098 8.68124151,11.2542918 L7.75272773,11.2542918 C7.56210346,11.2542918 7.40754781,11.4048964 7.40754781,11.5906475 L7.40754781,13.9607399 L0.833117387,7.55437896 L7.40754781,1.14818223 L7.40754781,3.5181104 C7.40754781,3.70402576 7.56210346,3.85446611 7.75272773,3.85446611 L8.09790766,3.85446611 C14.7670603,3.86202096 20.1714521,9.12825435 20.1792052,15.6269161 L20.1792052,18.2721041 Z" id="Shape" fill="#000000" fill-rule="nonzero"></path>
                <polyline id="Path-2" stroke="#000000" stroke-width="0.7" stroke-linecap="round" points="3.2 7.24920654 5.10255712 5.42088942 6.06083984 4.5"></polyline>
            </g>
        </g>
        <path d="M28.9078369,25.6661377 C31.950887,26.0679118 34.4014893,27.6540934 36.2596436,30.4246826" id="Path-3" stroke="#000000" stroke-width="0.7" stroke-linecap="round"></path>
    </g>
</svg>