<?xml version="1.0" encoding="UTF-8"?>
<svg width="60px" height="60px" viewBox="0 0 60 60" version="1.1" xmlns="http://www.w3.org/2000/svg" xmlns:xlink="http://www.w3.org/1999/xlink">
    <title>Icon/Shipping</title>
    <desc>Created with Sketch.</desc>
    <g id="Icon/Shipping" stroke="none" stroke-width="1" fill="none" fill-rule="evenodd">
        <g id="shipped" transform="translate(17.000000, 22.000000)" fill="#292929" fill-rule="nonzero">
            <path d="M23.2499478,6.71339768 L22.6025344,4.12466396 C22.7795367,4.08707888 22.9123494,3.93010013 22.9123494,3.74202827 L22.9123494,3.32463859 C22.9123494,2.41839874 22.1747992,1.68114534 21.2683033,1.68114534 L18.3194694,1.68114534 L18.3194694,0.820202844 C18.3194694,0.374258255 17.956578,0.0114889706 17.5104834,0.0114889706 L2.4791064,0.0114889706 C2.03301178,0.0114889706 1.67012045,0.374258255 1.67012045,0.820202844 L1.67012045,7.91597395 C1.67012045,8.13206378 1.84536493,8.30729814 2.06157629,8.30729814 C2.27773882,8.30729814 2.45303213,8.1321126 2.45303213,7.91597395 L2.45303213,0.820202844 C2.45303213,0.805803363 2.46470208,0.794137343 2.4791064,0.794137343 L17.5104346,0.794137343 C17.5248389,0.794137343 17.5365089,0.805803363 17.5365089,0.820202844 L17.5365089,7.91607158 C17.5365089,8.13216141 17.7117533,8.30739576 17.9279647,8.30739576 C18.1441272,8.30739576 18.3194205,8.13221022 18.3194205,7.91607158 L18.3194205,7.47246995 L22.9370565,7.47246995 C22.9374471,7.47246995 22.9377401,7.47256758 22.9380819,7.47256758 C22.9384725,7.47256758 22.9388143,7.47251877 22.9391561,7.47251877 C23.5073701,7.47290926 23.9898418,7.84573378 24.1555648,8.35947795 L22.9383749,8.35947795 C22.7222123,8.35947795 22.546919,8.5346635 22.546919,8.75080214 L22.546919,9.58558151 C22.546919,10.2616737 23.0971154,10.8116851 23.7734351,10.8116851 L24.2170883,10.8116851 L24.2170883,12.5334236 L23.1935512,12.5334236 C22.85732,11.5628986 21.9344178,10.8638161 20.8506755,10.8638161 C19.7669331,10.8638161 18.8439821,11.5628986 18.5077998,12.5334236 L18.3193229,12.5334236 L18.3193229,9.5855327 C18.3193229,9.36944287 18.1440784,9.19420851 17.927867,9.19420851 C17.7117045,9.19420851 17.5364112,9.36939406 17.5364112,9.5855327 L17.5364112,12.533326 L9.41491097,12.533326 C9.07867984,11.562801 8.15577765,10.8637184 7.0720353,10.8637184 C5.98829295,10.8637184 5.06534192,11.562801 4.72915963,12.533326 L2.4791064,12.533326 C2.46470208,12.533326 2.45303213,12.52166 2.45303213,12.5072605 L2.45303213,11.6463668 L4.14927568,11.6463668 C4.36543821,11.6463668 4.54073152,11.4711813 4.54073152,11.2550426 C4.54073152,11.038904 4.36548704,10.8637184 4.14927568,10.8637184 L0.391455843,10.8637184 C0.175293311,10.8637184 0,11.038904 0,11.2550426 C0,11.4711813 0.175244483,11.6463668 0.391455843,11.6463668 L1.67016928,11.6463668 L1.67016928,12.5072605 C1.67016928,12.9532051 2.03306061,13.3159744 2.47915523,13.3159744 L4.59361249,13.3159744 C4.59351483,13.3246629 4.59292889,13.3333026 4.59292889,13.3420399 C4.59292889,14.708575 5.70508927,15.8203125 7.0720353,15.8203125 C8.43898133,15.8203125 9.5511417,14.708575 9.5511417,13.3420399 C9.5511417,13.3332538 9.55055576,13.3246629 9.55045811,13.3159744 L18.3722527,13.3159744 C18.372155,13.3246629 18.3715691,13.3333026 18.3715691,13.3420399 C18.3715691,14.708575 19.4837295,15.8203125 20.8506755,15.8203125 C22.2176215,15.8203125 23.3297819,14.708575 23.3297819,13.3420399 C23.3297819,13.3332538 23.329196,13.3246629 23.3290983,13.3159744 L24.6085442,13.3159744 C24.8247067,13.3159744 25,13.1407888 25,12.9246502 L25,8.75070451 C25.0000488,7.72018983 24.2394516,6.86398208 23.2499478,6.71339768 Z M18.3194694,2.4637449 L21.2683033,2.4637449 C21.7431577,2.4637449 22.1294866,2.84994385 22.1294866,3.32463859 L22.1294866,3.35070409 L18.3194694,3.35070409 L18.3194694,2.4637449 Z M18.3194694,6.68987039 L18.3194694,4.13330365 L21.7977477,4.13330365 L22.4371044,6.68987039 L18.3194694,6.68987039 Z M7.0720353,15.0378106 C6.13673074,15.0378106 5.37579175,14.2771763 5.37579175,13.3421375 C5.37579175,12.4070987 6.13673074,11.6464644 7.0720353,11.6464644 C8.00733986,11.6464644 8.76827884,12.4070987 8.76827884,13.3421375 C8.76827884,14.2771763 8.00733986,15.0378106 7.0720353,15.0378106 Z M20.8507731,15.0378106 C19.9154686,15.0378106 19.1545296,14.2771763 19.1545296,13.3421375 C19.1545296,12.4070987 19.9154686,11.6464644 20.8507731,11.6464644 C21.7860777,11.6464644 22.5470167,12.4070987 22.5470167,13.3421375 C22.5470167,14.2771763 21.7860777,15.0378106 20.8507731,15.0378106 Z M24.217186,10.0290367 L23.7735328,10.0290367 C23.5289034,10.0290367 23.3298796,9.83007981 23.3298796,9.5855327 L23.3298796,9.1420287 L24.2171371,9.1420287 L24.2171371,10.0290367 L24.217186,10.0290367 Z" id="Shape"></path>
            <path d="M6.98529412,12.511489 C6.57983498,12.511489 6.25,12.8413239 6.25,13.2467831 C6.25,13.6522422 6.57983498,13.9820772 6.98529412,13.9820772 C7.39075326,13.9820772 7.72058824,13.6522422 7.72058824,13.2467831 C7.72058824,12.8413239 7.39075326,12.511489 6.98529412,12.511489 Z" id="Path"></path>
            <path d="M20.9558824,12.511489 C20.5504232,12.511489 20.2205882,12.8413239 20.2205882,13.2467831 C20.2205882,13.6522422 20.5504232,13.9820772 20.9558824,13.9820772 C21.3613415,13.9820772 21.6911765,13.6522422 21.6911765,13.2467831 C21.6911765,12.8413239 21.3613415,12.511489 20.9558824,12.511489 Z" id="Path"></path>
            <path d="M16.1532987,11.0409007 L10.3172896,11.0409007 C10.1014787,11.0409007 9.92647059,11.2054867 9.92647059,11.4085478 C9.92647059,11.6116089 10.10143,11.7761949 10.3172896,11.7761949 L16.1532987,11.7761949 C16.3691095,11.7761949 16.5441176,11.6116089 16.5441176,11.4085478 C16.5441176,11.2054867 16.3691583,11.0409007 16.1532987,11.0409007 Z" id="Path"></path>
            <path d="M6.22017872,9.20266544 L1.13276246,9.20266544 C0.913279815,9.20266544 0.735294118,9.36725136 0.735294118,9.5703125 C0.735294118,9.77337364 0.913230237,9.93795956 1.13276246,9.93795956 L6.22017872,9.93795956 C6.43966136,9.93795956 6.61764706,9.77337364 6.61764706,9.5703125 C6.61764706,9.36725136 6.43966136,9.20266544 6.22017872,9.20266544 Z" id="Path"></path>
            <path d="M13.4885083,3.79932304 C13.3359231,3.65083049 13.088423,3.65083049 12.9358378,3.79937048 L9.4604045,7.18153741 L7.65244013,5.42206672 C7.49980615,5.27352673 7.25235483,5.27352673 7.0997696,5.42206672 C6.94713562,5.57060672 6.94713562,5.8113734 7.0997696,5.95991339 L9.18409361,7.98833113 C9.26038622,8.06262485 9.36041973,8.09972426 9.4604045,8.09972426 C9.56038926,8.09972426 9.66047152,8.06262485 9.73671539,7.98833113 L13.4884596,4.33721715 C13.6410936,4.18862971 13.6410936,3.94786304 13.4885083,3.79932304 Z" id="Path"></path>
        </g>
        <path d="M30,10 C18.9721739,10 10,18.9721739 10,30 C10,41.0278261 18.9721739,50 30,50 C41.0286957,50 50,41.0278261 50,30 C50,18.9721739 41.0286957,10 30,10 Z M30,48.2608696 C19.9304348,48.2608696 11.7391304,40.0695652 11.7391304,30 C11.7391304,19.9304348 19.9304348,11.7391304 30,11.7391304 C40.0686957,11.7391304 48.2608696,19.9304348 48.2608696,30 C48.2608696,40.0695652 40.0686957,48.2608696 30,48.2608696 Z" id="Shape" fill="#292929" fill-rule="nonzero"></path>
    </g>
</svg>