<?xml version="1.0" encoding="UTF-8"?>
<svg width="60px" height="60px" viewBox="0 0 60 60" version="1.1" xmlns="http://www.w3.org/2000/svg" xmlns:xlink="http://www.w3.org/1999/xlink">
    <!-- Generator: Sketch 55 (78076) - https://sketchapp.com -->
    <title>Icon/Twitter</title>
    <desc>Created with Sketch.</desc>
    <g id="Icon/Twitter" stroke="none" stroke-width="1" fill="none" fill-rule="evenodd">
        <g id="twitter" transform="translate(24.000000, 22.000000)" fill="#292929" fill-rule="nonzero">
            <path d="M9.9144127,4.86425397 C10.5456508,4.86425397 11.0572698,4.35263492 11.0572698,3.72139683 C11.0572698,3.09015873 10.5456508,2.57853968 9.9144127,2.57853968 L3.18425397,2.57853968 L3.18425397,1.41714286 C3.18425397,0.785904762 2.67263492,0.274285714 2.04139683,0.274285714 C1.41015873,0.274285714 0.898539683,0.785904762 0.898539683,1.41714286 L0.898539683,8.96609524 C0.898539683,12.6690794 3.91111111,15.6817778 7.61409524,15.6817778 L9.9144127,15.6817778 C10.5456508,15.6817778 11.0572698,15.1701587 11.0572698,14.5389206 C11.0572698,13.9076825 10.5456508,13.3960635 9.9144127,13.3960635 L7.61409524,13.3960635 C5.17155556,13.3960635 3.18425397,11.4088889 3.18425397,8.96609524 L3.18425397,4.86425397 L9.9144127,4.86425397 Z" id="Path"></path>
        </g>
        <path d="M30,10 C18.9721739,10 10,18.9721739 10,30 C10,41.0278261 18.9721739,50 30,50 C41.0286957,50 50,41.0278261 50,30 C50,18.9721739 41.0286957,10 30,10 Z M30,48.2608696 C19.9304348,48.2608696 11.7391304,40.0695652 11.7391304,30 C11.7391304,19.9304348 19.9304348,11.7391304 30,11.7391304 C40.0686957,11.7391304 48.2608696,19.9304348 48.2608696,30 C48.2608696,40.0695652 40.0686957,48.2608696 30,48.2608696 Z" id="Shape" fill="#292929" fill-rule="nonzero"></path>
    </g>
</svg>