<svg width="120" height="45" viewBox="0 0 120 45" version="1.1" xmlns="http://www.w3.org/2000/svg" xmlns:xlink="http://www.w3.org/1999/xlink"><defs><path id="path-1" d="M.19.067h16.724V21.97H.19z"/></defs><g id="Symbols" stroke="none" stroke-width="1" fill="none" fill-rule="evenodd"><g id="TopNav_D" transform="translate(-130 -20)"><g id="Group-24" transform="translate(130 20)"><path d="M16.844 6.842c-2.125-1.305-4.315-1.46-5.506-1.46-2.447 0-2.962 1.149-2.962 2.019 0 1.367.998 1.74 4.7 2.3C16.78 10.26 20 11.781 20 16.163 20 20.669 15.524 23 11.145 23 8.118 23 4.963 22.534 2 20.017l2.866-3.667c2.093 1.802 4.25 2.269 6.536 2.269 2.158 0 3.382-.995 3.382-2.145 0-1.056-.355-2.112-3.06-2.361-4.25-.404-8.275-1.616-8.275-6.463 0-4.6 4.09-6.65 7.76-6.65 2.737 0 5.539.497 7.921 2.02l-2.286 3.822z" id="Fill-1" fill="#4D4E4C"/><path id="Fill-3" fill="#4D4E4C" d="M37.303 23l-5.634-9.357-2.849 3.225V23H24V1h4.82v9.42l.063.063 3.318-4.078L36.74 1h5.822l-7.638 8.914L43 23z"/><path id="Fill-5" fill="#4D4E4C" d="M57.195 23v-8.977h-8.327V23H44V1h4.868v8.819h8.327V1H62v22z"/><g id="Group-9" transform="translate(103 1)"><mask id="mask-2" fill="#fff"><use xlink:href="#path-1"/></mask><path d="M8.977 4.41H5.041v5.224h4.062c1.606 0 2.898-1.007 2.898-2.613C12 5.26 10.899 4.41 8.977 4.41m.347 9.566H5.04v7.994H.19V.067h9.038c4.63 0 7.685 2.706 7.685 7.05 0 3.964-3.402 6.86-7.59 6.86" id="Fill-7" fill="#4D4E4C" mask="url(#mask-2)"/></g><path d="M65 11.5C65 5.159 70.159 0 76.5 0c1.856 0 3.269.313 4.772 1.071-1.636 1.118-2.893 2.514-3.741 4.157a2.99 2.99 0 0 0-.63-.056l-.401.002a6.333 6.333 0 0 0-6.326 6.326 6.333 6.333 0 0 0 6.326 6.326c3.225 0 6.794-1.94 7.009-6.201.003-.018.58-3.83 3.562-4.815.667 1.376.929 2.713.929 4.69C88 17.84 82.841 23 76.5 23S65 17.841 65 11.5z" id="Fill-10" fill="#4D4E4C"/><path d="M83.785 21.901c2.105-.987 3.152-2.431 3.94-3.875a1.256 1.256 0 0 0 .432.037c.073-.005.172-.012.343-.012 3.488 0 6.326-2.715 6.326-6.051 0-3.336-2.838-6.05-6.326-6.05-6.324 0-6.681 6.15-6.699 6.61-.386 1.619-1.625 2.774-3.888 3.622C77.258 14.819 77 13.627 77 12c0-6.065 5.159-11 11.5-11S100 5.935 100 12s-5.159 11-11.5 11c-1.857 0-3.142-.292-4.715-1.099z" id="Fill-12" fill="#4D4E4C"/><path d="M3.62 38.405l.013.036c.024.136.109.266.254.39.145.124.285.186.423.186.112 0 .205-.059.277-.174.073-.116.13-.264.17-.444.04-.18.07-.385.09-.618.02-.232.037-.463.049-.695.012-.232.022-.454.03-.666a4.68 4.68 0 0 1 .048-.545l.4-2.46.12-.479.242-.923a.696.696 0 0 0 .066-.168c.02-.072.05-.116.091-.132a1.198 1.198 0 0 1 .508-.108 10.117 10.117 0 0 1 1.25.06c.142.016.27.034.388.053.116.02.255.043.417.067l.338.012c.032 0 .063.002.09.005a.525.525 0 0 0 .08.007c.072 0 .126-.014.163-.043.036-.027.046-.097.03-.21a.864.864 0 0 0-.514-.611 2.283 2.283 0 0 0-.96-.192c-.25 0-.498.012-.744.036a6.765 6.765 0 0 1-.635.036c-.097 0-.175-.006-.236-.018-.06-.012-.095-.038-.102-.078 0-.04.003-.064.012-.072l.084-.168c.016-.04.02-.072.012-.096-.016-.064-.096-.105-.241-.126a3.46 3.46 0 0 0-.472-.03h-.64c-.033.008-.07.044-.11.109-.04.063-.068.095-.084.095-.016.12-.123.212-.32.276-.198.064-.43.11-.695.138-.266.028-.538.05-.816.066-.278.016-1.369.036-1.546.06l-.786.132c-.056.048-.109.09-.157.126a1.18 1.18 0 0 0-.127.108.264.264 0 0 0-.072.126.45.45 0 0 0 .006.192l.012.06c.032.16.129.315.29.467a.787.787 0 0 0 .556.228H.92a.104.104 0 0 0 .049-.012l.181-.096 2.265-.372a.616.616 0 0 0 .103-.011l.15-.024c.057-.008.108-.016.152-.024a.619.619 0 0 1 .103-.012h.012l.103-.007.127-.005.102.005a.34.34 0 0 1 .103.019l-.036.395-.4 1.931a1.134 1.134 0 0 0-.03.126 15.608 15.608 0 0 0-.066.366 1.009 1.009 0 0 0-.012.12c-.065.504-.105 1.01-.12 1.517a52.873 52.873 0 0 1-.073 1.53 3.02 3.02 0 0 1-.03.275.687.687 0 0 0 .018.264zm7.131.281a.597.597 0 0 0-.086-.282 1.486 1.486 0 0 1-.133-.283l-.228-.96c-.104-.359-.275-.641-.503-.84-.228-.197-.427-.3-.589-.3-.161 0-.36.121-.598.376-.01-.217-.028-.631-.067-1.244A25.07 25.07 0 0 1 8.5 33.91c0-.123.01-.312.038-.566a5.3 5.3 0 0 0 .038-.565c0-.518-.218-.782-.655-.782-.322 0-.484.198-.484.593 0 .35 0 .867.01 1.555s.01 1.206.01 1.555c0 .122.009.31.018.565.01.255.02.452.02.584 0 .141-.01.358-.03.64-.018.283-.028.5-.028.641 0 .274.038.471.105.585.085.14.265.216.54.216.295 0 .522-.245.674-.744.114-.386.266-.697.456-.933.067.104.143.33.228.679.095.395.171.668.238.81.123.254.285.386.484.386a.637.637 0 0 0 .39-.122.38.38 0 0 0 .17-.32h.03zm4.141-3.947c0-.669-.37-.999-1.11-.999-.466 0-.884.245-1.264.745-.19.244-.304.386-.342.414-.086.076-.152.198-.2.368-.047.17-.075.254-.085.264-.01.01-.095.028-.247.056a1.364 1.364 0 0 0-.313.085c-.171.028-.257.113-.257.264 0 .16.152.368.447.622v.047c.01.094 0 .226-.029.386-.038.18-.057.311-.057.396 0 .396.152.744.456 1.036.304.292.655.442 1.054.442.162 0 .314-.028.466-.075.218-.075.475-.245.779-.517.332-.302.503-.547.503-.744 0-.16-.105-.236-.304-.236-.218 0-.465.113-.75.33-.285.216-.485.33-.608.33-.295 0-.446-.33-.446-.98 0-.152.01-.236.018-.246.257-.084.485-.15.684-.188.409-.17.77-.405 1.074-.697.36-.358.54-.726.54-1.103h-.009zm-1.044.104c0 .15-.105.301-.323.452a2.166 2.166 0 0 1-.513.255c.066-.16.161-.33.294-.51.171-.216.323-.33.456-.33h.057a.325.325 0 0 1 .029.123v.01zm15.139-1c-.124-.235-.295-.348-.504-.348a1.95 1.95 0 0 0-.465.094l-.484.113a.812.812 0 0 0-.428.255c-.066.084-.209.207-.418.367-.142.113-.294.33-.388.509 0 0-.428.45-.467.535-.028.067-.275-.695-.313-.497a4.082 4.082 0 0 1-.076-.396c-.085-.499-.655-1.338-.95-1.338a.617.617 0 0 0-.456.217.678.678 0 0 0-.199.47c0 .124.038.227.123.321.143.386.247.557.314.755l.494 2.62c.104.499.152 1.016.152 1.308 0 .028 0 .075-.01.141-.01.066-.01.113-.01.141 0 .34.22.51.656.51.105 0 .19-.01.257-.038.18-.189.323-.66.427-1.414.123-.886.218-1.535.285-1.704.067-.122.123-.208.17-.264.105-.198.2-.312.286-.585.076-.245.152-.424.218-.547.114-.188.314-.386.589-.593.029-.085.228-.17.599-.254.37-.085.56-.208.57-.377h.028zm1.7-.34c0-.103-.048-.197-.143-.282a.803.803 0 0 1-.143-.141c0-.019 0-.047.01-.085v-.085c-.01-.14-.086-.254-.228-.338a.869.869 0 0 0-.456-.123c-.294 0-.446.132-.446.396 0 .216.105.452.323.696.218.245.436.367.655.367a.389.389 0 0 0 .409-.405h.018zm-.457 4.767a2.94 2.94 0 0 0-.047-.434c-.048-.245-.076-.387-.076-.434a44.87 44.87 0 0 1-.114-1.322 1.519 1.519 0 0 0-.029-.283c-.085-.18-.256-.274-.512-.274-.332 0-.493.16-.493.491 0 .066.01.16.038.292.028.133.038.237.038.312 0 .388 0 .604.01.642l.084.359c.03.142.048.255.048.34 0 .047-.01.123-.029.217-.019.094-.028.16-.028.208 0 .16.057.292.18.406.124.113.266.17.427.17.332 0 .503-.227.503-.68v-.01zm5.623-1.11c-.541.189-.845.302-.92.349l-.18-.066c-.048-.47.026-.44-.003-.921l.002-.587-.256-1.724c-.162-.8-.466-1.197-.912-1.197l-.428.189c-.047.047-.095.207-.142.471-.105-.207-.285-.31-.542-.31-.237 0-.38.075-.427.216v-.01l-.01.01a.926.926 0 0 0-.18.31c-.057.142-.105.236-.152.284-.114.047-.171.14-.171.282 0 .029-.038.104-.124.226-.095.142-.142.217-.152.226-.076.142-.142.368-.199.67a3.528 3.528 0 0 0-.085.697c0 .216.038.376.123.47.085.095.237.142.456.142.094 0 .2-.01.304-.038.294-.075.57-.245.826-.499.105-.113.171-.179.19-.188.067-.047.114-.085.143-.104.066-.066.152-.207.266-.424.114-.217.19-.377.218-.48.076.3.133.668.18 1.111l.096 1.122c0 .037.01.113.038.226.028.113.038.207.038.273 0 .047-.01.085-.019.113-.01.028-.285.189-.827.471-.446.236-.456.33-.456.33a3.12 3.12 0 0 0-.256.217L31.18 40.09a2.277 2.277 0 0 0-.55.951c-.095.34-.142.867-.142 1.584 0 .084.019.17.057.254l.076.047c.142.396.237.622.275.679.142.132.256.226.341.282v.104c.085.066.18.132.285.188.257.17.447.302.57.396.238.123.59.226 1.045.311.418.076.78.113 1.083.113.466 0 .779-.085.93-.264.266-.32.399-.791.399-1.403 0-.34-.047-.745-.133-1.216l-.237-1.197c-.01-.179-.019-.31-.019-.405a2.222 2.222 0 0 0-.114-.368 1.204 1.204 0 0 1-.076-.367 3.83 3.83 0 0 0-.123-.65c-.076-.292-.114-.509-.114-.66 0-.094.01-.16.028-.207a5.06 5.06 0 0 1 .323-.226c.294-.18.54-.462.75-.848l.019-.028zm-3.19-2.62c-.181.5-.352.84-.514 1.018.19-.555.361-.894.523-1.008l-.01-.01zm1.947 8.415c0 .16-.02.358-.067.584-.038.199-.076.397-.123.594-.038.029-.114.047-.218.047a3.19 3.19 0 0 1-.561-.075c-.637-.141-1.083-.302-1.34-.48-.304-.217-.56-.603-.779-1.16a1.534 1.534 0 0 1-.105-.527c0-.264.086-.547.257-.858.085-.16.257-.405.513-.735a2.56 2.56 0 0 1 .456-.452c.314-.255.475-.386.485-.396l.228-.245.56-.452c.152 1.027.267 1.734.342 2.12l.219 1.009c.076.395.114.734.114 1.017l.019.01zm3.399-9.451c0-.104-.048-.198-.143-.283a.803.803 0 0 1-.142-.141c0-.019 0-.047.01-.085v-.085c-.01-.14-.086-.254-.229-.338a.869.869 0 0 0-.455-.123c-.294 0-.446.132-.446.396 0 .216.104.452.323.696.218.245.436.367.654.367a.389.389 0 0 0 .409-.405h.019zm-.456 4.766c0-.113-.02-.255-.048-.434-.047-.245-.076-.387-.076-.434a46.143 46.143 0 0 1-.114-1.322 1.505 1.505 0 0 0-.028-.283c-.085-.18-.256-.274-.512-.274-.332 0-.494.16-.494.491 0 .066.01.16.038.292.029.133.038.237.038.312 0 .388 0 .604.01.642l.085.359c.029.142.048.255.048.34 0 .047-.01.123-.029.217-.019.094-.028.16-.028.208 0 .16.057.292.18.406.123.113.265.17.427.17.332 0 .503-.227.503-.68v-.01zm5.974.237c0-.179-.18-.273-.55-.273a1.36 1.36 0 0 0-.4.057c-.275-.434-.456-1.16-.541-2.177-.048-.574-.143-.998-.295-1.272a.903.903 0 0 0-.17-.207.55.55 0 0 0-.058-.226l-.17-.141c-.086-.104-.172-.198-.257-.292-.086-.095-.228-.142-.428-.142-.284 0-.531.18-.73.528-.105.179-.229.47-.371.886 0-.236 0-.471-.01-.707-.01-.349-.038-.565-.085-.66l-.17-.028c-.058-.056-.115-.113-.172-.16a.385.385 0 0 0-.246-.075c-.218 0-.37.084-.456.263-.019.038-.028.16-.028.368 0 .8.028 1.375.085 1.724.067.292.124.509.162.65l.113 1.083c.086.5.218.801.408.905a.7.7 0 0 0 .332.066c.18 0 .314-.047.409-.151.095-.103.152-.33.18-.678.02-.245.038-.49.067-.735a2.35 2.35 0 0 1 .152-.414c.037-.151.095-.406.17-.773.067-.33.124-.584.181-.763.104.367.171.65.19.847.256 1.084.39 1.725.39 1.923 0 .169.056.348.17.527.19.292.285.452.295.48a.588.588 0 0 0 .17.198.782.782 0 0 0 .229.114c.01 0 .076.028.2.094a.535.535 0 0 0 .208.056.985.985 0 0 0 .256-.037c.029-.047.171-.17.437-.368.238-.179.352-.33.352-.462l-.02-.028zm3.894.877c0-.057-.067-.208-.21-.453-.142-.084-.246-.339-.303-.763-.01-.103-.029-.396-.057-.886a3.946 3.946 0 0 0-.086-.452 6.674 6.674 0 0 1-.057-.98c0-.424.038-.66.124-.715-.048-.123-.076-.198-.086-.217a.346.346 0 0 0 .02-.132c0-.047 0-.094-.01-.15-.171-.312-.352-.462-.542-.462a.655.655 0 0 0-.36.132c-.228-.255-.456-.377-.694-.377-.418 0-.788.395-1.12 1.196-.275.66-.417 1.234-.417 1.734 0 .235.019.527.057.876.047.452.113.716.199.8.142.133.408.198.806.198.02 0 .029-.018.029-.065 0-.029 0-.067-.01-.114l.01-.01.01.18c.227-.038.427-.123.598-.245.076-.056.228-.207.465-.462.152.566.266.933.352 1.103.209.462.475.688.798.688.085 0 .18-.02.284-.047l.038-.113c.105-.095.162-.19.162-.283v.019zm-1.833-3.223c0 .226-.172.613-.504 1.159a4.215 4.215 0 0 1-.161.283c-.086.132-.162.198-.228.198-.133 0-.2-.151-.2-.462 0-.226.029-.462.086-.706l.066-.076.2-.763c.085-.31.19-.546.313-.697.114.273.19.433.228.48.067.17.105.302.114.396l.067.047c.01.048.019.094.019.141zm3.77.98c0-.669-.057-1.668-.18-2.996-.124-1.329-.18-2.328-.18-2.997 0-.16.018-.395.056-.716a6.65 6.65 0 0 0 .057-.716c0-.075 0-.141-.01-.188-.009-.151-.094-.273-.246-.377A.803.803 0 0 0 48.39 29c-.123 0-.266.057-.427.17-.161.113-.247.235-.247.367 0 .066.01.17.029.302.019.132.028.226.028.283.067.603.124 1.055.171 1.356.029.782.038 1.367.029 1.762.009.122.047.48.113 1.074.058.453.086.802.086 1.046v.142c-.01.066-.01.113-.01.14 0 .218.02.547.067.99.048.443.067.773.067.99v.226c-.01.104-.01.179-.01.226 0 .066.01.16.029.273a1.8 1.8 0 0 1 .028.273.878.878 0 0 1-.057.264.925.925 0 0 0-.057.274c0 .14.048.254.152.348a.533.533 0 0 0 .37.142.761.761 0 0 0 .313-.076c.076-.16.123-.273.142-.349l.105-.027c0-.227.01-.566.028-1.018.019-.453.029-.782.029-1l-.01-.037zm8.947.576a.511.511 0 0 0-.057-.255c-.038-.065-.2-.16-.494-.282-.322-.142-.521-.245-.597-.311a1.716 1.716 0 0 0-.38-.227c-.18-.085-.305-.16-.362-.226l-.807-.858c-.2-.254-.361-.622-.485-1.093a2.485 2.485 0 0 1-.104-.622c0-.085.009-.17.028-.254.067-.293.152-.5.257-.623.133-.16.332-.235.608-.235.228 0 .437.103.618.301l.437.575c.2.236.294.5.294.792 0 .038 0 .094-.01.18-.009.084-.009.14-.009.178 0 .104.01.226.029.377.512-.188.768-.546.768-1.065 0-.48-.313-.99-.94-1.536s-1.197-.819-1.71-.819c-.475 0-.825.245-1.063.734-.17.367-.256.82-.256 1.357 0 .33.057.641.18.933.275.679.513 1.15.712 1.424.247.31.655.65 1.235 1.018.361.235.541.349.541.34-.009.009-.018.009-.028.009-.504.075-.94.112-1.32.112-.371 0-.609-.047-.713-.131a.886.886 0 0 1-.113-.293c-.058-.226-.114-.358-.162-.396-.048-.037-.19-.056-.417-.065a1.438 1.438 0 0 0-.162.612c0 .198.057.368.18.518.333.414.864.621 1.605.621.209 0 .617-.037 1.226-.103.655-.085 1.044-.15 1.167-.207.161-.085.247-.254.247-.509l.057.029zm5.148.687a1.488 1.488 0 0 1-.323-.339c-.395-.532-.558-.972-.998-1.31-.371-.287-.719-.67-.975-.775-.264-.107-.506-.242-.706-.308.152-.141.266-.245.342-.311.295-.292.618-.744.969-1.366.39-.688.58-1.197.58-1.527 0-.537-.115-.81-.343-.81-.266 0-.456.084-.58.263-.066.104-.113.293-.142.557-.028.263-.076.442-.142.527a5.792 5.792 0 0 0-.446.745c-.171.31-.333.546-.494.706l-.01-.16c0-.396 0-.697.01-.895l-.114-1.178c-.048-.48-.076-.876-.076-1.178 0-.094.01-.235.028-.424.02-.188.029-.33.029-.434 0-.518-.171-.772-.522-.772a.693.693 0 0 0-.398.132.652.652 0 0 0-.257.339c.01.094.029.188.057.292a.722.722 0 0 0-.019.142c0 .037.01.075.02.103-.048.33-.067.67-.067 1.018 0 .254.019.575.066.961.067.528.105.839.114.943.048.621.076.914.076.876 0 .038 0 .094-.01.179-.009.085-.009.141-.009.179 0 .085.01.217.038.386.028.17.038.302.038.387 0 .122-.066.226-.2.31-.132.085-.199.198-.199.34 0 .131.038.225.124.282l.256.179c.01.028.02.066.02.113s-.01.113-.02.197c-.01.085-.019.151-.019.198 0 .132.01.33.019.594.01.264.02.471.02.612 0 .82.23.148.125.835a11.05 11.05 0 0 0-.085.584c0 .33.142.5.417.5a.443.443 0 0 0 .39-.226c.417-.632.338-.175.338-1.476 0-.358-.019-.933-.066-1.724.408.028.635.269.628.263.262.215.446.457.854.861.407.405.914 1.361 1.114 1.332.484-.103.707-.131.773-.517l-.225-.205zm2.526-4.9c0-.104-.048-.198-.143-.283a.803.803 0 0 1-.142-.141c0-.019 0-.047.01-.085v-.085c-.01-.14-.086-.254-.229-.338a.869.869 0 0 0-.455-.123c-.294 0-.446.132-.446.396 0 .216.104.452.322.696.219.245.437.367.655.367a.389.389 0 0 0 .409-.405h.019zm-.456 4.766c0-.113-.02-.255-.048-.434-.047-.245-.076-.387-.076-.434a44.644 44.644 0 0 1-.113-1.322c-.01-.17-.02-.264-.03-.283-.084-.18-.255-.274-.511-.274-.332 0-.494.16-.494.491 0 .066.01.16.038.292.029.133.038.237.038.312 0 .388 0 .604.01.642l.085.359c.029.142.048.255.048.34 0 .047-.01.123-.029.217-.019.094-.028.16-.028.208 0 .16.057.292.18.406.123.113.266.17.427.17.332 0 .503-.227.503-.68v-.01zm.614.28c.01.068.015.107.015.116a1.434 1.434 0 0 0 .448.51c.073.049.158.097.257.146.195-.01.34-.049.433-.116.093-.069.173-.188.242-.357.068-.17-.233-.6-.155-.896.03-.38.098-.868.255-1.344.049-.116.172-.355.246-.525.073-.17.284-.312.553-.39.221-.106.26-.121.506-.165.206-.063.312-.038.488-.038.088 0 .171.017.25.051a.58.58 0 0 0 .235.051.253.253 0 0 0 .161-.058.432.432 0 0 0 .118-.146.807.807 0 0 0 .088-.334v-.073c-.05-.204-.181-.372-.397-.503a1.279 1.279 0 0 0-.675-.196.68.68 0 0 0-.352.087 2.243 2.243 0 0 0-.28.197 3.158 3.158 0 0 1-.263.196.521.521 0 0 1-.294.088h-.059l.47-.933c0-.019-.027-.058-.08-.116l-.177-.19a1.653 1.653 0 0 0-.19-.174c-.064-.048-.11-.073-.14-.073-.01-.01-.046-.017-.11-.022a2.155 2.155 0 0 0-.154-.007c-.118 0-.228.015-.33.044-.103.029-.16.087-.17.175-.136.388-.268.779-.396 1.172a14.43 14.43 0 0 0-.33 1.194c-.093.403-.161.809-.205 1.216a6.962 6.962 0 0 0-.008 1.413zm12.457-.89a2.425 2.425 0 0 0 .747.824c.153.104.312.174.477.212.052.007.1.01.146.01h.235c.517 0 .962-.144 1.336-.434l.853-.68c.038-.029.092-.073.163-.133.07-.059.144-.118.219-.178.075-.06.14-.117.196-.172l.107-.106c.142-.134.91-.59.98-.734.071-.145.537-.743.687-.876-.06-.082-.36-.072-.442-.146-.082-.074.594-1.646-.294-.486l-1.079 1.167-.357.406-.865.59-.157.079c-.12.088-.233.178-.342.267-.109.09-.22.17-.337.245-.116.074-.24.136-.37.184a1.314 1.314 0 0 1-.455.072 1.15 1.15 0 0 1-.252-.022.299.299 0 0 1-.146-.073.33.33 0 0 1-.079-.144 4.185 4.185 0 0 1-.061-.24l-.012-.067a2.464 2.464 0 0 1-.045-.735c.023-.237.068-.471.135-.701a5.6 5.6 0 0 1 .242-.669l.275-.634a8.45 8.45 0 0 1 .555-1.103 3.57 3.57 0 0 1 .814-.924 1.98 1.98 0 0 1 .247-.173.614.614 0 0 1 .314-.072.12.12 0 0 0 .023.033c.007.008.01.015.01.023v.022c-.096.46-.243.91-.437 1.347l-.123.245a2.166 2.166 0 0 1-.135.184 8.14 8.14 0 0 1-.595.663h-.011l-.023-.011c-.037 0-.075.02-.112.061a1.226 1.226 0 0 0-.19.278.412.412 0 0 0-.034.084.48.48 0 0 0 .112.217 1.337 1.337 0 0 0 .466.34.618.618 0 0 0 .24.055c.105 0 .218-.048.338-.144a2.42 2.42 0 0 0 .364-.379c.124-.156.243-.332.36-.53a8.4 8.4 0 0 0 .589-1.207c.074-.194.13-.368.168-.524a.724.724 0 0 0 .011-.284l-.044-.273-.113-.545-.785-.59a.968.968 0 0 1-.085-.006 1.434 1.434 0 0 0-.129-.006h-.224c-.112 0-.204.006-.275.017a.255.255 0 0 0-.163.083l-.337.078a1.098 1.098 0 0 0-.123.1c-.067.06-.139.129-.213.207l-.214.222c-.067.07-.112.121-.135.15-.24.328-.443.63-.611.908a8.523 8.523 0 0 0-.449.847c-.131.286-.252.592-.365.918-.112.327-.235.699-.37 1.114a1.83 1.83 0 0 0-.079.624c.008.23.034.445.079.646.03.156.09.315.18.479zm9.317-1.697c0-.33-.038-.659-.114-.998-.095-.434-.228-.726-.408-.886a1.465 1.465 0 0 0-.265-.17c-.058-.112-.133-.17-.238-.17-.057 0-.218-.046-.475-.131a2.188 2.188 0 0 0-.656-.132c-.408 0-.807.151-1.195.443-.4.311-.599.66-.599 1.046 0 .348.2.518.608.518.057 0 .114 0 .17-.01a5.25 5.25 0 0 0 .105-.386l.104-.047c.029-.122.057-.245.095-.367.038-.123.142-.208.313-.255-.237.264-.427.67-.578 1.206-.133.48-.2.924-.2 1.329 0 .678.19 1.14.56 1.375.256.16.503.245.74.245.276 0 .57-.141.885-.433l.73-.744c.285-.245.427-.726.427-1.433h-.01zm-1.015-.103c0 .782-.248 1.328-.751 1.648-.086.057-.152.085-.21.085-.18 0-.266-.188-.266-.565 0-.094.01-.198.029-.32.636-.085.96-.386.96-.904 0-.114-.058-.35-.172-.707a3.573 3.573 0 0 1-.066-.584c.161.066.285.264.37.603.068.263.106.518.106.753v-.01zm9.095 2.647l-.095-.226.047.028-.019-.244a2.799 2.799 0 0 0-.655.216c-.133.066-.2.104-.21.104-.027 0-.085-.066-.18-.207l-.19-.274c-.208-.244-.38-.706-.512-1.394a24.637 24.637 0 0 1-.095-.791 18.372 18.372 0 0 0-.171-1.263c-.2-1.121-.523-1.687-.96-1.687-.265 0-.579.406-.93 1.225-.21.48-.4 1.018-.57 1.611-.114-.829-.342-1.403-.674-1.724l-.048-.179c-.162 0-.295.01-.4.02-.34.055-.569.263-.692.63-.057-.367-.133-.63-.218-.8-.152-.283-.37-.425-.664-.425-.18 0-.352.142-.513.434a.26.26 0 0 0 .085.019c.02 0-.114.17-.114.17.133.254.257.8.38 1.639.038.301.104.885.2 1.762.01.047.01.122.01.226 0 .838.047 1.31.132 1.413.114.122.294.18.54.18.238 0 .4-.095.485-.284.047-.122.076-.32.076-.593 0-.368 0-.565.01-.603.047-.462.132-.942.255-1.451.029.15.048.292.058.433.01.49.028.98.047 1.48.057.734.19 1.158.399 1.28a.782.782 0 0 0 .399.095.508.508 0 0 0 .351-.113c.086-.076.152-.207.209-.396.067-.245.114-.386.143-.433.133-.254.227-.584.294-.99l.143-1.026c.123-.613.266-1.14.437-1.593.056.48.104.792.132.933.01.028.029.104.067.236.029.103.047.188.047.254 0 .443.105.904.304 1.385.19.462.437.867.75 1.225.152.16.276.273.362.34.142.046.284.074.427.074.503 0 .883-.235 1.13-.697l-.01-.019z" id="Fill-14" fill="#4D4E4C"/><path d="M22.99 34.44c0-.324-.038-.647-.114-.98-.096-.425-.23-.711-.413-.869a1.482 1.482 0 0 0-.268-.166c-.057-.11-.134-.166-.24-.166-.057 0-.22-.046-.48-.13a2.26 2.26 0 0 0-.663-.129c-.412 0-.814.148-1.207.435-.403.304-.605.646-.605 1.025 0 .342.202.508.614.508.058 0 .115 0 .173-.009a5.02 5.02 0 0 0 .105-.378l.106-.047c.028-.12.057-.24.095-.36.039-.12.144-.203.317-.25-.24.26-.432.657-.585 1.183a4.788 4.788 0 0 0-.201 1.304c0 .665.192 1.118.565 1.35.26.156.508.239.748.239.279 0 .577-.138.894-.425l.738-.73c.287-.24.431-.712.431-1.405h-.01zm-1.025-.102c0 .768-.25 1.303-.759 1.618-.086.055-.153.083-.211.083-.183 0-.269-.185-.269-.555 0-.092.01-.194.029-.314.643-.083.969-.379.969-.887 0-.111-.058-.342-.173-.693a3.424 3.424 0 0 1-.067-.573c.163.064.288.258.375.591.067.26.106.508.106.74v-.01z" id="Fill-16" fill="#4D4E4C"/><path d="M102.14 36.94c.048.142.111.294.19.455.08.16.177.312.29.454.113.142.244.257.394.347.15.09.32.135.507.135.216 0 .371-.066.465-.198.093-.133.173-.284.24-.454a.7.7 0 0 1 .09-.306c.062-.118.088-.2.078-.248a.43.43 0 0 0-.042-.106.189.189 0 0 0-.098-.079l-.24.185h-.084a.53.53 0 0 0-.332.092c-.08.062-.143.092-.19.092-.075 0-.131-.104-.168-.312a2.94 2.94 0 0 1-.022-1.163c.07-.388.139-.757.204-1.107 0-.048.01-.133.029-.256.018-.122.037-.194.056-.213l.253-.908.043-.284.296-.738v-.085c-.01-.037-.043-.08-.1-.128a2.723 2.723 0 0 0-.175-.135l-.176-.12a.764.764 0 0 1-.113-.085.293.293 0 0 0-.113-.014h-.267c-.056 0-.085.004-.085.014l-.154.184-.226.653-.07.085a1.002 1.002 0 0 0-.24-.057 2.078 2.078 0 0 0-.24-.028.822.822 0 0 0-.605.277 3.014 3.014 0 0 0-.478.667c-.142.26-.268.532-.38.816a34.5 34.5 0 0 1-.297.724 6.63 6.63 0 0 0-.274.639 1.76 1.76 0 0 0-.092.347 1.169 1.169 0 0 0 0 .362l.029.127.267.37c.103.104.19.18.26.227a.51.51 0 0 0 .29.07.83.83 0 0 0 .351-.077c.113-.052.218-.116.317-.192s.19-.158.275-.248c.085-.09.164-.173.24-.249l.098.468zm.184-3.05l.028.099c.01.028-.016.092-.077.191a5.696 5.696 0 0 1-.5.688 16.83 16.83 0 0 1-.268.313c.01-.104.047-.23.113-.377a4.46 4.46 0 0 1 .218-.425c.08-.137.157-.253.232-.348.076-.094.127-.142.155-.142h.099zm8.002 3.1c0-.185-.184-.283-.562-.283-.145 0-.28.02-.406.058-.281-.448-.466-1.2-.552-2.253-.049-.595-.146-1.034-.3-1.317a.94.94 0 0 0-.175-.214.57.57 0 0 0-.058-.234l-.175-.147a8.042 8.042 0 0 0-.26-.303c-.088-.097-.233-.146-.437-.146-.29 0-.542.186-.745.547-.107.185-.233.487-.378.917 0-.244 0-.488-.01-.732-.009-.361-.038-.586-.086-.683l-.174-.03c-.059-.058-.116-.116-.175-.165a.389.389 0 0 0-.251-.078c-.222 0-.377.088-.465.273-.019.04-.029.166-.029.38 0 .83.03 1.425.088 1.785.067.303.125.527.164.673l.116 1.122c.087.517.222.83.416.937a.701.701 0 0 0 .339.068c.184 0 .32-.048.416-.156.097-.107.155-.341.184-.702.02-.254.039-.507.068-.761.058-.195.106-.341.155-.43.038-.155.096-.419.174-.799.068-.342.126-.605.184-.79.106.38.174.673.193.878.262 1.122.398 1.785.398 1.99 0 .175.058.36.174.546.194.302.29.468.3.498a.611.611 0 0 0 .174.204c.03.03.107.069.233.117.01 0 .077.03.203.098a.54.54 0 0 0 .213.059c.068 0 .155-.01.261-.04.03-.048.175-.175.446-.38.242-.185.358-.341.358-.478l-.02-.03zM116 35.565c-.184-.068-.32-.108-.416-.108a.793.793 0 0 0-.359.098 4.49 4.49 0 0 1-.552.215 1.82 1.82 0 0 0-.58.302l-.466.38c.04-.312.059-.487.059-.526 0-.068 0-.166-.01-.303v-.302c0-.107 0-.263.01-.478.01-.214.01-.37.01-.478 0-.166-.01-.41-.02-.732s-.02-.565-.02-.731c0-.127.01-.323.03-.596a8.88 8.88 0 0 0 .029-.595c0-.478-.174-.712-.532-.712-.3 0-.494.127-.58.38l-.718 2.244-.087.38c-.048.186-.097.304-.136.352l-.126.147a.322.322 0 0 0-.058.204c0 .127-.048.274-.155.44a8.221 8.221 0 0 1-.087-.674.387.387 0 0 0 .049-.195.835.835 0 0 0-.04-.224.82.82 0 0 1-.038-.225c0-.224.019-.39.068-.497a.362.362 0 0 0 .116-.283c0-.059-.01-.137-.03-.235a1.28 1.28 0 0 1-.028-.224c0-.088.019-.205.058-.36.039-.157.058-.274.058-.352 0-.36-.184-.546-.561-.546-.165 0-.29.03-.378.088-.145.107-.25.487-.319 1.141-.048.449-.077.898-.077 1.356 0 1.786.406 2.673 1.209 2.673a.822.822 0 0 0 .368-.087c.117-.059.281-.273.485-.635.155-.283.28-.536.378-.77 0 .117 0 .331.01.653.009.283.009.498.009.654 0 .03 0 .088-.01.166-.009.078-.009.136-.009.176 0 .097.01.243.019.429.01.185.02.331.02.429 0 .205-.03.361-.087.459-.156.253-.301.663-.427 1.22-.03.223-.048.399-.048.516a12.853 12.853 0 0 0-.184 2.283c0 .702.049 1.259.155 1.659l.097.507c.048.224.096.38.145.468a.512.512 0 0 0 .464.283c.242 0 .416-.117.522-.36.068-.167.117-.586.146-1.26a58.75 58.75 0 0 1 .077-1.414c.01-.049.01-.088.01-.127 0-.049-.01-.117-.02-.214-.009-.098-.019-.167-.019-.215 0-.156.01-.39.03-.703.019-.312.028-.546.028-.702 0-.04-.009-.097-.019-.176-.01-.077-.02-.136-.02-.175 0-.04.01-.088.04-.147.048-.126.076-.37.086-.74.01-.44.02-.713.03-.82l.028-.01a.7.7 0 0 0 .155-.264.706.706 0 0 1 .194-.283c.184-.195.32-.341.397-.448.107-.137.261-.283.465-.44.232-.165.416-.263.552-.292.222-.049.358-.108.406-.166.02-.03.059-.166.117-.41l.087-.068z" id="Fill-18" fill="#4D4E4C"/><path d="M97.61 41.905c.117.05.244.082.381.095a.347.347 0 0 0 .21-.116.444.444 0 0 0 .09-.202.92.92 0 0 0 .01-.234 2.124 2.124 0 0 0-.023-.203l-.064-1.234a1.326 1.326 0 0 1-.008-.078c-.003-.045.001-.072.014-.083l-.033-.067-.03-.372.002.011a3.435 3.435 0 0 1-.006-.494c.01-.161.018-.315.023-.463l-.002-.269a61.164 61.164 0 0 1-.004-.323c-.001-.118.038-.185.118-.2l.388-.03c.013.03.113.026.301-.012a5.051 5.051 0 0 0 .956-.297c.073-.035.11-.065.114-.09.007-.043.041-.074.102-.094.06-.02.09-.035.088-.042l-.011.002c.118-.187.235-.368.351-.542.117-.174.207-.337.271-.488l-.014-.022a4 4 0 0 0 .104-.407c.031-.148.05-.3.058-.452a2.639 2.639 0 0 0-.015-.45 1.898 1.898 0 0 0-.09-.403l-.395-.8a1.025 1.025 0 0 0-.143-.18l-.186-.096-.663-.27-.478.096-.34.252-.1.142a4.604 4.604 0 0 1-.188.246 5.189 5.189 0 0 0-.193.253 1.41 1.41 0 0 0-.135.23c-.032.071-.038.13-.015.174a.05.05 0 0 1-.005.037l-.014.113a.662.662 0 0 0-.053-.246l-.049-.088-.013-.01-.185-.097-.163-.101a.671.671 0 0 0-.372-.072c-.14.11-.206.223-.2.34.004.118.013.24.028.367l.019.24c.026.248.039.497.037.746-.003.249-.009.505-.016.767l.063 1.559c.02.513.034 1.035.042 1.563l.025 1.401c.004.113.013.222.027.325.014.103.037.208.07.316.026.06.048.1.066.121.048.104.13.182.248.231zm1.935-7.935a.286.286 0 0 1 .085.038c.05.026.106.06.17.1.062.04.12.088.175.142a.577.577 0 0 1 .117.16c.057.16.072.368.045.627a2.625 2.625 0 0 1-.206.769c-.11.254-.262.485-.456.69a1.275 1.275 0 0 1-.692.391 3.056 3.056 0 0 1-.384.053c.006-.14.006-.317 0-.532a3.015 3.015 0 0 1 .074-.718 3.2 3.2 0 0 1 .318-.835c.156-.292.397-.585.722-.879l.032-.006z" id="Fill-20" fill="#4D4E4C"/><path d="M77 34.778c0-.084-.056-.14-.168-.176-.641.176-1.125.296-1.451.361l-1.321.417a3.871 3.871 0 0 1-.019-.362c0-.064 0-.166.01-.305.009-.139.009-.24.009-.305 0-.325-.01-.806-.037-1.454a34.957 34.957 0 0 1-.038-1.454c0-.046-.009-.12-.027-.222a1.43 1.43 0 0 1-.028-.222c0-.093.01-.232.018-.417.01-.185.019-.324.019-.417 0-.814-.204-1.222-.604-1.222-.13 0-.26.037-.39.111-.15.084-.242.176-.28.287a.67.67 0 0 0-.028.232c0 .342.038.796.121 1.36.094.677.15 1.13.158 1.362.038.861.066 1.5.075 1.926.047.602.065.981.065 1.139 0 .157-.01.268-.028.324-.009.027-.195.074-.558.139-.437.083-.763.166-.977.25-.344.13-.521.296-.521.5 0 .25.168.37.493.37.214 0 .475-.037.772-.12l.763-.223c.019.324.028.695.028 1.111 0 .278 0 .565-.009.862 0 .064-.01.185-.019.351-.009.167-.018.297-.018.38 0 .213.018.361.056.445.065.13.185.194.362.194.14 0 .242-.037.316-.111.111-.12.195-.685.25-1.695.02-.63.038-1.259.066-1.889l1.284-.583.754-.26c.232-.082.474-.221.725-.416.112-.083.168-.157.168-.222l.009-.046z" id="Fill-22" fill="#4D4E4C"/></g></g></g></svg>